G04 #@! TF.GenerationSoftware,KiCad,Pcbnew,(5.1.2)-1*
G04 #@! TF.CreationDate,2019-05-27T11:12:18-07:00*
G04 #@! TF.ProjectId,Aidan PCB,41696461-6e20-4504-9342-2e6b69636164,rev?*
G04 #@! TF.SameCoordinates,Original*
G04 #@! TF.FileFunction,Copper,L1,Top*
G04 #@! TF.FilePolarity,Positive*
%FSLAX46Y46*%
G04 Gerber Fmt 4.6, Leading zero omitted, Abs format (unit mm)*
G04 Created by KiCad (PCBNEW (5.1.2)-1) date 2019-05-27 11:12:18*
%MOMM*%
%LPD*%
G04 APERTURE LIST*
%ADD10C,2.250000*%
%ADD11C,2.250000*%
%ADD12C,1.905000*%
%ADD13R,1.905000X1.905000*%
%ADD14O,1.700000X2.700000*%
%ADD15C,0.800000*%
%ADD16C,0.203200*%
G04 APERTURE END LIST*
D10*
X119020000Y-95400000D03*
D11*
X119000000Y-95690000D02*
X119040000Y-95110000D01*
D10*
X119040000Y-95110000D03*
X113345001Y-96920000D03*
D11*
X112690000Y-97650000D02*
X114000002Y-96190000D01*
D10*
X114000000Y-96190000D03*
D12*
X115230000Y-105270000D03*
D13*
X117770000Y-105270000D03*
X98647250Y-86137750D03*
D12*
X96107250Y-86137750D03*
D10*
X94877250Y-77057750D03*
X94222251Y-77787750D03*
D11*
X93567250Y-78517750D02*
X94877252Y-77057750D01*
D10*
X99917250Y-75977750D03*
X99897250Y-76267750D03*
D11*
X99877250Y-76557750D02*
X99917250Y-75977750D01*
D13*
X117745000Y-86155000D03*
D12*
X115205000Y-86155000D03*
D10*
X113975000Y-77075000D03*
X113320001Y-77805000D03*
D11*
X112665000Y-78535000D02*
X113975002Y-77075000D01*
D10*
X119015000Y-75995000D03*
X118995000Y-76285000D03*
D11*
X118975000Y-76575000D02*
X119015000Y-75995000D01*
D10*
X99895000Y-95317750D03*
D11*
X99875000Y-95607750D02*
X99915000Y-95027750D01*
D10*
X99915000Y-95027750D03*
X94220001Y-96837750D03*
D11*
X93565000Y-97567750D02*
X94875002Y-96107750D01*
D10*
X94875000Y-96107750D03*
D12*
X96105000Y-105187750D03*
D13*
X98645000Y-105187750D03*
D14*
X50300000Y-77144000D03*
X57600000Y-77144000D03*
X57600000Y-72644000D03*
X50300000Y-72644000D03*
D15*
X74930000Y-90678000D03*
X79502000Y-90932000D03*
X72675000Y-82525000D03*
X76350000Y-82550000D03*
X65278000Y-83548400D03*
X66548000Y-93218000D03*
X103378000Y-96012000D03*
X86868000Y-92202000D03*
X103378000Y-91186000D03*
X120904000Y-92202000D03*
X84836000Y-94234000D03*
X88646000Y-79756000D03*
X103378000Y-92456000D03*
X109982000Y-92456000D03*
X91440000Y-93218000D03*
X91440000Y-96012000D03*
X60625000Y-98100000D03*
X61100000Y-86125000D03*
D16*
X74930000Y-90678000D02*
X79248000Y-90678000D01*
X79248000Y-90678000D02*
X79502000Y-90932000D01*
X72675000Y-82525000D02*
X76325000Y-82525000D01*
X76325000Y-82525000D02*
X76350000Y-82550000D01*
X65278000Y-83548400D02*
X66548000Y-84818400D01*
X66548000Y-84818400D02*
X66548000Y-93218000D01*
X94451986Y-92202000D02*
X86868000Y-92202000D01*
X103378000Y-96012000D02*
X99568000Y-92202000D01*
X99568000Y-92202000D02*
X94451986Y-92202000D01*
X103378000Y-91186000D02*
X119888000Y-91186000D01*
X119888000Y-91186000D02*
X120904000Y-92202000D01*
X86166399Y-82235601D02*
X88646000Y-79756000D01*
X84836000Y-94234000D02*
X84836000Y-83566000D01*
X84836000Y-83566000D02*
X86166399Y-82235601D01*
X103378000Y-92456000D02*
X109982000Y-92456000D01*
X91440000Y-93218000D02*
X91440000Y-96012000D01*
X60625000Y-98100000D02*
X61100000Y-97625000D01*
X61100000Y-97625000D02*
X61100000Y-86125000D01*
M02*
