G04 #@! TF.GenerationSoftware,KiCad,Pcbnew,(5.1.2)-1*
G04 #@! TF.CreationDate,2019-05-27T11:12:18-07:00*
G04 #@! TF.ProjectId,Aidan PCB,41696461-6e20-4504-9342-2e6b69636164,rev?*
G04 #@! TF.SameCoordinates,Original*
G04 #@! TF.FileFunction,Soldermask,Bot*
G04 #@! TF.FilePolarity,Negative*
%FSLAX46Y46*%
G04 Gerber Fmt 4.6, Leading zero omitted, Abs format (unit mm)*
G04 Created by KiCad (PCBNEW (5.1.2)-1) date 2019-05-27 11:12:18*
%MOMM*%
%LPD*%
G04 APERTURE LIST*
%ADD10C,0.100000*%
G04 APERTURE END LIST*
D10*
G36*
X118773500Y-106273500D02*
G01*
X116766500Y-106273500D01*
X116766500Y-104266500D01*
X118773500Y-104266500D01*
X118773500Y-106273500D01*
X118773500Y-106273500D01*
G37*
G36*
X115356425Y-104271988D02*
G01*
X115522710Y-104305063D01*
X115705336Y-104380709D01*
X115869694Y-104490530D01*
X116009470Y-104630306D01*
X116119291Y-104794664D01*
X116194937Y-104977290D01*
X116233500Y-105171164D01*
X116233500Y-105368836D01*
X116194937Y-105562710D01*
X116119291Y-105745336D01*
X116009470Y-105909694D01*
X115869694Y-106049470D01*
X115705336Y-106159291D01*
X115522710Y-106234937D01*
X115356425Y-106268012D01*
X115328837Y-106273500D01*
X115131163Y-106273500D01*
X115103575Y-106268012D01*
X114937290Y-106234937D01*
X114754664Y-106159291D01*
X114590306Y-106049470D01*
X114450530Y-105909694D01*
X114340709Y-105745336D01*
X114265063Y-105562710D01*
X114226500Y-105368836D01*
X114226500Y-105171164D01*
X114265063Y-104977290D01*
X114340709Y-104794664D01*
X114450530Y-104630306D01*
X114590306Y-104490530D01*
X114754664Y-104380709D01*
X114937290Y-104305063D01*
X115103575Y-104271988D01*
X115131163Y-104266500D01*
X115328837Y-104266500D01*
X115356425Y-104271988D01*
X115356425Y-104271988D01*
G37*
G36*
X96231425Y-104189738D02*
G01*
X96397710Y-104222813D01*
X96580336Y-104298459D01*
X96744694Y-104408280D01*
X96884470Y-104548056D01*
X96994291Y-104712414D01*
X97069937Y-104895040D01*
X97108500Y-105088914D01*
X97108500Y-105286586D01*
X97069937Y-105480460D01*
X96994291Y-105663086D01*
X96884470Y-105827444D01*
X96744694Y-105967220D01*
X96580336Y-106077041D01*
X96397710Y-106152687D01*
X96231425Y-106185762D01*
X96203837Y-106191250D01*
X96006163Y-106191250D01*
X95978575Y-106185762D01*
X95812290Y-106152687D01*
X95629664Y-106077041D01*
X95465306Y-105967220D01*
X95325530Y-105827444D01*
X95215709Y-105663086D01*
X95140063Y-105480460D01*
X95101500Y-105286586D01*
X95101500Y-105088914D01*
X95140063Y-104895040D01*
X95215709Y-104712414D01*
X95325530Y-104548056D01*
X95465306Y-104408280D01*
X95629664Y-104298459D01*
X95812290Y-104222813D01*
X95978575Y-104189738D01*
X96006163Y-104184250D01*
X96203837Y-104184250D01*
X96231425Y-104189738D01*
X96231425Y-104189738D01*
G37*
G36*
X99648500Y-106191250D02*
G01*
X97641500Y-106191250D01*
X97641500Y-104184250D01*
X99648500Y-104184250D01*
X99648500Y-106191250D01*
X99648500Y-106191250D01*
G37*
G36*
X51351000Y-103676000D02*
G01*
X49449000Y-103676000D01*
X49449000Y-102474000D01*
X51351000Y-102474000D01*
X51351000Y-103676000D01*
X51351000Y-103676000D01*
G37*
G36*
X57551000Y-103676000D02*
G01*
X55649000Y-103676000D01*
X55649000Y-102474000D01*
X57551000Y-102474000D01*
X57551000Y-103676000D01*
X57551000Y-103676000D01*
G37*
G36*
X81496968Y-102078565D02*
G01*
X81535638Y-102090296D01*
X81571277Y-102109346D01*
X81602517Y-102134983D01*
X81628154Y-102166223D01*
X81647204Y-102201862D01*
X81658935Y-102240532D01*
X81663500Y-102286888D01*
X81663500Y-103363112D01*
X81658935Y-103409468D01*
X81647204Y-103448138D01*
X81628154Y-103483777D01*
X81602517Y-103515017D01*
X81571277Y-103540654D01*
X81535638Y-103559704D01*
X81496968Y-103571435D01*
X81450612Y-103576000D01*
X80799388Y-103576000D01*
X80753032Y-103571435D01*
X80714362Y-103559704D01*
X80678723Y-103540654D01*
X80647483Y-103515017D01*
X80621846Y-103483777D01*
X80602796Y-103448138D01*
X80591065Y-103409468D01*
X80586500Y-103363112D01*
X80586500Y-102286888D01*
X80591065Y-102240532D01*
X80602796Y-102201862D01*
X80621846Y-102166223D01*
X80647483Y-102134983D01*
X80678723Y-102109346D01*
X80714362Y-102090296D01*
X80753032Y-102078565D01*
X80799388Y-102074000D01*
X81450612Y-102074000D01*
X81496968Y-102078565D01*
X81496968Y-102078565D01*
G37*
G36*
X83371968Y-102078565D02*
G01*
X83410638Y-102090296D01*
X83446277Y-102109346D01*
X83477517Y-102134983D01*
X83503154Y-102166223D01*
X83522204Y-102201862D01*
X83533935Y-102240532D01*
X83538500Y-102286888D01*
X83538500Y-103363112D01*
X83533935Y-103409468D01*
X83522204Y-103448138D01*
X83503154Y-103483777D01*
X83477517Y-103515017D01*
X83446277Y-103540654D01*
X83410638Y-103559704D01*
X83371968Y-103571435D01*
X83325612Y-103576000D01*
X82674388Y-103576000D01*
X82628032Y-103571435D01*
X82589362Y-103559704D01*
X82553723Y-103540654D01*
X82522483Y-103515017D01*
X82496846Y-103483777D01*
X82477796Y-103448138D01*
X82466065Y-103409468D01*
X82461500Y-103363112D01*
X82461500Y-102286888D01*
X82466065Y-102240532D01*
X82477796Y-102201862D01*
X82496846Y-102166223D01*
X82522483Y-102134983D01*
X82553723Y-102109346D01*
X82589362Y-102090296D01*
X82628032Y-102078565D01*
X82674388Y-102074000D01*
X83325612Y-102074000D01*
X83371968Y-102078565D01*
X83371968Y-102078565D01*
G37*
G36*
X117096474Y-98223684D02*
G01*
X117223811Y-98276429D01*
X117468623Y-98377833D01*
X117803548Y-98601623D01*
X118088377Y-98886452D01*
X118312167Y-99221377D01*
X118344562Y-99299586D01*
X118466316Y-99593526D01*
X118544900Y-99988594D01*
X118544900Y-100391406D01*
X118466316Y-100786474D01*
X118383819Y-100985638D01*
X118312167Y-101158623D01*
X118088377Y-101493548D01*
X117803548Y-101778377D01*
X117468623Y-102002167D01*
X117314474Y-102066017D01*
X117096474Y-102156316D01*
X116701406Y-102234900D01*
X116298594Y-102234900D01*
X115903526Y-102156316D01*
X115685526Y-102066017D01*
X115531377Y-102002167D01*
X115196452Y-101778377D01*
X114911623Y-101493548D01*
X114687833Y-101158623D01*
X114616181Y-100985638D01*
X114533684Y-100786474D01*
X114455100Y-100391406D01*
X114455100Y-99988594D01*
X114533684Y-99593526D01*
X114655438Y-99299586D01*
X114687833Y-99221377D01*
X114911623Y-98886452D01*
X115196452Y-98601623D01*
X115531377Y-98377833D01*
X115776189Y-98276429D01*
X115903526Y-98223684D01*
X116298594Y-98145100D01*
X116701406Y-98145100D01*
X117096474Y-98223684D01*
X117096474Y-98223684D01*
G37*
G36*
X125111000Y-102227000D02*
G01*
X123809000Y-102227000D01*
X123809000Y-101225000D01*
X125111000Y-101225000D01*
X125111000Y-102227000D01*
X125111000Y-102227000D01*
G37*
G36*
X97971474Y-98141434D02*
G01*
X98105250Y-98196846D01*
X98343623Y-98295583D01*
X98678548Y-98519373D01*
X98963377Y-98804202D01*
X99187167Y-99139127D01*
X99228328Y-99238500D01*
X99341316Y-99511276D01*
X99419900Y-99906344D01*
X99419900Y-100309156D01*
X99341316Y-100704224D01*
X99261557Y-100896778D01*
X99187167Y-101076373D01*
X98963377Y-101411298D01*
X98678548Y-101696127D01*
X98343623Y-101919917D01*
X98189474Y-101983767D01*
X97971474Y-102074066D01*
X97576406Y-102152650D01*
X97173594Y-102152650D01*
X96778526Y-102074066D01*
X96560526Y-101983767D01*
X96406377Y-101919917D01*
X96071452Y-101696127D01*
X95786623Y-101411298D01*
X95562833Y-101076373D01*
X95488443Y-100896778D01*
X95408684Y-100704224D01*
X95330100Y-100309156D01*
X95330100Y-99906344D01*
X95408684Y-99511276D01*
X95521672Y-99238500D01*
X95562833Y-99139127D01*
X95786623Y-98804202D01*
X96071452Y-98519373D01*
X96406377Y-98295583D01*
X96644750Y-98196846D01*
X96778526Y-98141434D01*
X97173594Y-98062850D01*
X97576406Y-98062850D01*
X97971474Y-98141434D01*
X97971474Y-98141434D01*
G37*
G36*
X106061000Y-101719000D02*
G01*
X104759000Y-101719000D01*
X104759000Y-100717000D01*
X106061000Y-100717000D01*
X106061000Y-101719000D01*
X106061000Y-101719000D01*
G37*
G36*
X121850104Y-99299585D02*
G01*
X122018626Y-99369389D01*
X122170291Y-99470728D01*
X122299272Y-99599709D01*
X122400611Y-99751374D01*
X122470415Y-99919896D01*
X122506000Y-100098797D01*
X122506000Y-100281203D01*
X122470415Y-100460104D01*
X122400611Y-100628626D01*
X122299272Y-100780291D01*
X122170291Y-100909272D01*
X122018626Y-101010611D01*
X121850104Y-101080415D01*
X121671203Y-101116000D01*
X121488797Y-101116000D01*
X121309896Y-101080415D01*
X121141374Y-101010611D01*
X120989709Y-100909272D01*
X120860728Y-100780291D01*
X120759389Y-100628626D01*
X120689585Y-100460104D01*
X120654000Y-100281203D01*
X120654000Y-100098797D01*
X120689585Y-99919896D01*
X120759389Y-99751374D01*
X120860728Y-99599709D01*
X120989709Y-99470728D01*
X121141374Y-99369389D01*
X121309896Y-99299585D01*
X121488797Y-99264000D01*
X121671203Y-99264000D01*
X121850104Y-99299585D01*
X121850104Y-99299585D01*
G37*
G36*
X111690104Y-99299585D02*
G01*
X111858626Y-99369389D01*
X112010291Y-99470728D01*
X112139272Y-99599709D01*
X112240611Y-99751374D01*
X112310415Y-99919896D01*
X112346000Y-100098797D01*
X112346000Y-100281203D01*
X112310415Y-100460104D01*
X112240611Y-100628626D01*
X112139272Y-100780291D01*
X112010291Y-100909272D01*
X111858626Y-101010611D01*
X111690104Y-101080415D01*
X111511203Y-101116000D01*
X111328797Y-101116000D01*
X111149896Y-101080415D01*
X110981374Y-101010611D01*
X110829709Y-100909272D01*
X110700728Y-100780291D01*
X110599389Y-100628626D01*
X110529585Y-100460104D01*
X110494000Y-100281203D01*
X110494000Y-100098797D01*
X110529585Y-99919896D01*
X110599389Y-99751374D01*
X110700728Y-99599709D01*
X110829709Y-99470728D01*
X110981374Y-99369389D01*
X111149896Y-99299585D01*
X111328797Y-99264000D01*
X111511203Y-99264000D01*
X111690104Y-99299585D01*
X111690104Y-99299585D01*
G37*
G36*
X65609468Y-100041065D02*
G01*
X65648138Y-100052796D01*
X65683777Y-100071846D01*
X65715017Y-100097483D01*
X65740654Y-100128723D01*
X65759704Y-100164362D01*
X65771435Y-100203032D01*
X65776000Y-100249388D01*
X65776000Y-100900612D01*
X65771435Y-100946968D01*
X65759704Y-100985638D01*
X65740654Y-101021277D01*
X65715017Y-101052517D01*
X65683777Y-101078154D01*
X65648138Y-101097204D01*
X65609468Y-101108935D01*
X65563112Y-101113500D01*
X64486888Y-101113500D01*
X64440532Y-101108935D01*
X64401862Y-101097204D01*
X64366223Y-101078154D01*
X64334983Y-101052517D01*
X64309346Y-101021277D01*
X64290296Y-100985638D01*
X64278565Y-100946968D01*
X64274000Y-100900612D01*
X64274000Y-100249388D01*
X64278565Y-100203032D01*
X64290296Y-100164362D01*
X64309346Y-100128723D01*
X64334983Y-100097483D01*
X64366223Y-100071846D01*
X64401862Y-100052796D01*
X64440532Y-100041065D01*
X64486888Y-100036500D01*
X65563112Y-100036500D01*
X65609468Y-100041065D01*
X65609468Y-100041065D01*
G37*
G36*
X102725104Y-99217335D02*
G01*
X102893626Y-99287139D01*
X103045291Y-99388478D01*
X103174272Y-99517459D01*
X103275611Y-99669124D01*
X103345415Y-99837646D01*
X103381000Y-100016547D01*
X103381000Y-100198953D01*
X103345415Y-100377854D01*
X103275611Y-100546376D01*
X103174272Y-100698041D01*
X103045291Y-100827022D01*
X102893626Y-100928361D01*
X102725104Y-100998165D01*
X102546203Y-101033750D01*
X102363797Y-101033750D01*
X102184896Y-100998165D01*
X102016374Y-100928361D01*
X101864709Y-100827022D01*
X101735728Y-100698041D01*
X101634389Y-100546376D01*
X101564585Y-100377854D01*
X101529000Y-100198953D01*
X101529000Y-100016547D01*
X101564585Y-99837646D01*
X101634389Y-99669124D01*
X101735728Y-99517459D01*
X101864709Y-99388478D01*
X102016374Y-99287139D01*
X102184896Y-99217335D01*
X102363797Y-99181750D01*
X102546203Y-99181750D01*
X102725104Y-99217335D01*
X102725104Y-99217335D01*
G37*
G36*
X92565104Y-99217335D02*
G01*
X92733626Y-99287139D01*
X92885291Y-99388478D01*
X93014272Y-99517459D01*
X93115611Y-99669124D01*
X93185415Y-99837646D01*
X93221000Y-100016547D01*
X93221000Y-100198953D01*
X93185415Y-100377854D01*
X93115611Y-100546376D01*
X93014272Y-100698041D01*
X92885291Y-100827022D01*
X92733626Y-100928361D01*
X92565104Y-100998165D01*
X92386203Y-101033750D01*
X92203797Y-101033750D01*
X92024896Y-100998165D01*
X91856374Y-100928361D01*
X91704709Y-100827022D01*
X91575728Y-100698041D01*
X91474389Y-100546376D01*
X91404585Y-100377854D01*
X91369000Y-100198953D01*
X91369000Y-100016547D01*
X91404585Y-99837646D01*
X91474389Y-99669124D01*
X91575728Y-99517459D01*
X91704709Y-99388478D01*
X91856374Y-99287139D01*
X92024896Y-99217335D01*
X92203797Y-99181750D01*
X92386203Y-99181750D01*
X92565104Y-99217335D01*
X92565104Y-99217335D01*
G37*
G36*
X86784468Y-99791065D02*
G01*
X86823138Y-99802796D01*
X86858777Y-99821846D01*
X86890017Y-99847483D01*
X86915654Y-99878723D01*
X86934704Y-99914362D01*
X86946435Y-99953032D01*
X86951000Y-99999388D01*
X86951000Y-100650612D01*
X86946435Y-100696968D01*
X86934704Y-100735638D01*
X86915654Y-100771277D01*
X86890017Y-100802517D01*
X86858777Y-100828154D01*
X86823138Y-100847204D01*
X86784468Y-100858935D01*
X86738112Y-100863500D01*
X85661888Y-100863500D01*
X85615532Y-100858935D01*
X85576862Y-100847204D01*
X85541223Y-100828154D01*
X85509983Y-100802517D01*
X85484346Y-100771277D01*
X85465296Y-100735638D01*
X85453565Y-100696968D01*
X85449000Y-100650612D01*
X85449000Y-99999388D01*
X85453565Y-99953032D01*
X85465296Y-99914362D01*
X85484346Y-99878723D01*
X85509983Y-99847483D01*
X85541223Y-99821846D01*
X85576862Y-99802796D01*
X85615532Y-99791065D01*
X85661888Y-99786500D01*
X86738112Y-99786500D01*
X86784468Y-99791065D01*
X86784468Y-99791065D01*
G37*
G36*
X57551000Y-99976000D02*
G01*
X55649000Y-99976000D01*
X55649000Y-98774000D01*
X57551000Y-98774000D01*
X57551000Y-99976000D01*
X57551000Y-99976000D01*
G37*
G36*
X51351000Y-99976000D02*
G01*
X49449000Y-99976000D01*
X49449000Y-98774000D01*
X51351000Y-98774000D01*
X51351000Y-99976000D01*
X51351000Y-99976000D01*
G37*
G36*
X80650000Y-99857500D02*
G01*
X71998000Y-99857500D01*
X71998000Y-98255500D01*
X80650000Y-98255500D01*
X80650000Y-99857500D01*
X80650000Y-99857500D01*
G37*
G36*
X65609468Y-98166065D02*
G01*
X65648138Y-98177796D01*
X65683777Y-98196846D01*
X65715017Y-98222483D01*
X65740654Y-98253723D01*
X65759704Y-98289362D01*
X65771435Y-98328032D01*
X65776000Y-98374388D01*
X65776000Y-99025612D01*
X65771435Y-99071968D01*
X65759704Y-99110638D01*
X65740654Y-99146277D01*
X65715017Y-99177517D01*
X65683777Y-99203154D01*
X65648138Y-99222204D01*
X65609468Y-99233935D01*
X65563112Y-99238500D01*
X64486888Y-99238500D01*
X64440532Y-99233935D01*
X64401862Y-99222204D01*
X64366223Y-99203154D01*
X64334983Y-99177517D01*
X64309346Y-99146277D01*
X64290296Y-99110638D01*
X64278565Y-99071968D01*
X64274000Y-99025612D01*
X64274000Y-98374388D01*
X64278565Y-98328032D01*
X64290296Y-98289362D01*
X64309346Y-98253723D01*
X64334983Y-98222483D01*
X64366223Y-98196846D01*
X64401862Y-98177796D01*
X64440532Y-98166065D01*
X64486888Y-98161500D01*
X65563112Y-98161500D01*
X65609468Y-98166065D01*
X65609468Y-98166065D01*
G37*
G36*
X86784468Y-97916065D02*
G01*
X86823138Y-97927796D01*
X86858777Y-97946846D01*
X86890017Y-97972483D01*
X86915654Y-98003723D01*
X86934704Y-98039362D01*
X86946435Y-98078032D01*
X86951000Y-98124388D01*
X86951000Y-98775612D01*
X86946435Y-98821968D01*
X86934704Y-98860638D01*
X86915654Y-98896277D01*
X86890017Y-98927517D01*
X86858777Y-98953154D01*
X86823138Y-98972204D01*
X86784468Y-98983935D01*
X86738112Y-98988500D01*
X85661888Y-98988500D01*
X85615532Y-98983935D01*
X85576862Y-98972204D01*
X85541223Y-98953154D01*
X85509983Y-98927517D01*
X85484346Y-98896277D01*
X85465296Y-98860638D01*
X85453565Y-98821968D01*
X85449000Y-98775612D01*
X85449000Y-98124388D01*
X85453565Y-98078032D01*
X85465296Y-98039362D01*
X85484346Y-98003723D01*
X85509983Y-97972483D01*
X85541223Y-97946846D01*
X85576862Y-97927796D01*
X85615532Y-97916065D01*
X85661888Y-97911500D01*
X86738112Y-97911500D01*
X86784468Y-97916065D01*
X86784468Y-97916065D01*
G37*
G36*
X125111000Y-98927000D02*
G01*
X123809000Y-98927000D01*
X123809000Y-97925000D01*
X125111000Y-97925000D01*
X125111000Y-98927000D01*
X125111000Y-98927000D01*
G37*
G36*
X114023205Y-95013881D02*
G01*
X114028645Y-95014000D01*
X114115828Y-95014000D01*
X114132097Y-95017236D01*
X114150956Y-95019515D01*
X114167532Y-95020246D01*
X114252223Y-95041010D01*
X114257518Y-95042184D01*
X114343027Y-95059193D01*
X114358362Y-95065545D01*
X114376401Y-95071455D01*
X114392521Y-95075407D01*
X114471504Y-95112280D01*
X114476494Y-95114477D01*
X114557045Y-95147842D01*
X114570841Y-95157060D01*
X114587393Y-95166382D01*
X114602426Y-95173400D01*
X114672694Y-95224971D01*
X114677192Y-95228122D01*
X114749656Y-95276541D01*
X114761383Y-95288268D01*
X114775809Y-95300648D01*
X114789179Y-95310461D01*
X114844400Y-95370777D01*
X114848021Y-95374733D01*
X114851829Y-95378714D01*
X114913459Y-95440344D01*
X114922674Y-95454135D01*
X114934396Y-95469078D01*
X114945605Y-95481321D01*
X114990799Y-95555874D01*
X114993746Y-95560501D01*
X115018244Y-95597166D01*
X115042158Y-95632955D01*
X115048505Y-95648277D01*
X115057092Y-95665231D01*
X115065691Y-95679417D01*
X115095478Y-95761368D01*
X115097452Y-95766448D01*
X115130807Y-95846973D01*
X115130807Y-95846974D01*
X115134041Y-95863233D01*
X115139158Y-95881542D01*
X115144825Y-95897134D01*
X115158055Y-95983345D01*
X115159001Y-95988713D01*
X115176000Y-96074173D01*
X115176000Y-96090752D01*
X115177444Y-96109692D01*
X115179963Y-96126104D01*
X115176120Y-96213249D01*
X115176000Y-96218689D01*
X115176000Y-96305825D01*
X115172766Y-96322083D01*
X115170488Y-96340941D01*
X115169756Y-96357531D01*
X115148988Y-96442237D01*
X115147812Y-96447537D01*
X115130807Y-96533027D01*
X115124457Y-96548357D01*
X115118549Y-96566393D01*
X115114595Y-96582520D01*
X115077711Y-96661526D01*
X115075511Y-96666523D01*
X115042158Y-96747045D01*
X115032944Y-96760835D01*
X115023622Y-96777387D01*
X115016602Y-96792424D01*
X114965011Y-96862720D01*
X114961866Y-96867210D01*
X114913461Y-96939654D01*
X114856460Y-96996655D01*
X114851811Y-97001563D01*
X113899559Y-98062850D01*
X113526723Y-98478376D01*
X113398679Y-98595602D01*
X113299631Y-98655645D01*
X113200583Y-98715689D01*
X112982866Y-98794823D01*
X112753895Y-98829961D01*
X112522470Y-98819754D01*
X112297481Y-98764593D01*
X112192727Y-98715689D01*
X112087579Y-98666602D01*
X111990838Y-98595602D01*
X111900823Y-98529539D01*
X111825520Y-98447287D01*
X111744398Y-98358679D01*
X111662564Y-98223685D01*
X111624311Y-98160583D01*
X111545177Y-97942866D01*
X111510039Y-97713895D01*
X111520246Y-97482470D01*
X111575407Y-97257481D01*
X111626972Y-97147028D01*
X111673398Y-97047580D01*
X111692752Y-97021209D01*
X111776114Y-96907622D01*
X112565847Y-96027463D01*
X113062787Y-95473621D01*
X113073681Y-95459589D01*
X113086539Y-95440346D01*
X113143573Y-95383312D01*
X113148223Y-95378403D01*
X113163278Y-95361624D01*
X113184701Y-95342011D01*
X113188682Y-95338203D01*
X113250346Y-95276539D01*
X113264143Y-95267320D01*
X113279102Y-95255585D01*
X113291321Y-95244398D01*
X113334205Y-95218402D01*
X113365830Y-95199231D01*
X113370421Y-95196308D01*
X113442955Y-95147842D01*
X113458300Y-95141486D01*
X113475248Y-95132901D01*
X113489416Y-95124312D01*
X113489417Y-95124312D01*
X113489418Y-95124311D01*
X113571312Y-95094545D01*
X113576410Y-95092563D01*
X113656973Y-95059193D01*
X113673252Y-95055955D01*
X113691542Y-95050844D01*
X113707135Y-95045177D01*
X113793300Y-95031954D01*
X113798663Y-95031009D01*
X113884173Y-95014000D01*
X113900766Y-95014000D01*
X113919709Y-95012555D01*
X113936106Y-95010039D01*
X114023205Y-95013881D01*
X114023205Y-95013881D01*
G37*
G36*
X94898205Y-94931631D02*
G01*
X94903645Y-94931750D01*
X94990828Y-94931750D01*
X95007097Y-94934986D01*
X95025956Y-94937265D01*
X95042532Y-94937996D01*
X95127223Y-94958760D01*
X95132518Y-94959934D01*
X95218027Y-94976943D01*
X95233362Y-94983295D01*
X95251401Y-94989205D01*
X95267521Y-94993157D01*
X95346504Y-95030030D01*
X95351494Y-95032227D01*
X95432045Y-95065592D01*
X95445841Y-95074810D01*
X95462393Y-95084132D01*
X95477426Y-95091150D01*
X95547694Y-95142721D01*
X95552190Y-95145871D01*
X95596876Y-95175729D01*
X95624656Y-95194291D01*
X95636383Y-95206018D01*
X95650809Y-95218398D01*
X95664179Y-95228211D01*
X95713882Y-95282500D01*
X95723021Y-95292483D01*
X95726829Y-95296464D01*
X95788459Y-95358094D01*
X95797674Y-95371885D01*
X95809396Y-95386828D01*
X95820605Y-95399071D01*
X95865797Y-95473621D01*
X95868746Y-95478251D01*
X95917158Y-95550705D01*
X95923505Y-95566027D01*
X95932092Y-95582981D01*
X95940691Y-95597167D01*
X95970478Y-95679118D01*
X95972452Y-95684198D01*
X96005807Y-95764723D01*
X96005807Y-95764724D01*
X96009041Y-95780983D01*
X96014158Y-95799292D01*
X96019825Y-95814884D01*
X96033055Y-95901095D01*
X96034001Y-95906463D01*
X96051000Y-95991923D01*
X96051000Y-96008502D01*
X96052444Y-96027442D01*
X96054963Y-96043854D01*
X96051120Y-96130999D01*
X96051000Y-96136439D01*
X96051000Y-96223576D01*
X96049623Y-96230500D01*
X96047766Y-96239833D01*
X96045488Y-96258691D01*
X96044756Y-96275281D01*
X96023988Y-96359987D01*
X96022812Y-96365287D01*
X96005807Y-96450777D01*
X95999457Y-96466107D01*
X95993549Y-96484143D01*
X95989595Y-96500270D01*
X95952711Y-96579276D01*
X95950511Y-96584273D01*
X95917158Y-96664795D01*
X95907944Y-96678585D01*
X95898622Y-96695137D01*
X95891602Y-96710174D01*
X95840011Y-96780470D01*
X95836866Y-96784960D01*
X95788461Y-96857404D01*
X95731460Y-96914405D01*
X95726811Y-96919313D01*
X95366566Y-97320807D01*
X94401723Y-98396126D01*
X94273679Y-98513352D01*
X94174631Y-98573395D01*
X94075583Y-98633439D01*
X93857866Y-98712573D01*
X93628895Y-98747711D01*
X93397470Y-98737504D01*
X93172481Y-98682343D01*
X93067727Y-98633439D01*
X92962579Y-98584352D01*
X92865838Y-98513352D01*
X92775823Y-98447289D01*
X92666349Y-98327712D01*
X92619398Y-98276429D01*
X92537564Y-98141435D01*
X92499311Y-98078333D01*
X92420177Y-97860616D01*
X92385039Y-97631645D01*
X92395246Y-97400220D01*
X92450407Y-97175231D01*
X92517974Y-97030500D01*
X92548398Y-96965330D01*
X92548400Y-96965327D01*
X92651114Y-96825372D01*
X93280448Y-96123978D01*
X93937787Y-95391371D01*
X93948681Y-95377339D01*
X93961539Y-95358096D01*
X94018573Y-95301062D01*
X94023223Y-95296153D01*
X94038278Y-95279374D01*
X94059701Y-95259761D01*
X94063682Y-95255953D01*
X94125346Y-95194289D01*
X94139143Y-95185070D01*
X94154102Y-95173335D01*
X94166321Y-95162148D01*
X94213944Y-95133279D01*
X94240830Y-95116981D01*
X94245421Y-95114058D01*
X94317955Y-95065592D01*
X94333300Y-95059236D01*
X94350248Y-95050651D01*
X94364416Y-95042062D01*
X94364417Y-95042062D01*
X94364418Y-95042061D01*
X94446312Y-95012295D01*
X94451410Y-95010313D01*
X94531973Y-94976943D01*
X94548252Y-94973705D01*
X94566542Y-94968594D01*
X94582135Y-94962927D01*
X94668300Y-94949704D01*
X94673663Y-94948759D01*
X94759173Y-94931750D01*
X94775766Y-94931750D01*
X94794709Y-94930305D01*
X94811106Y-94927789D01*
X94898205Y-94931631D01*
X94898205Y-94931631D01*
G37*
G36*
X106061000Y-98419000D02*
G01*
X104759000Y-98419000D01*
X104759000Y-97417000D01*
X106061000Y-97417000D01*
X106061000Y-98419000D01*
X106061000Y-98419000D01*
G37*
G36*
X71425000Y-97682500D02*
G01*
X69823000Y-97682500D01*
X69823000Y-89030500D01*
X71425000Y-89030500D01*
X71425000Y-97682500D01*
X71425000Y-97682500D01*
G37*
G36*
X82825000Y-97682500D02*
G01*
X81223000Y-97682500D01*
X81223000Y-89030500D01*
X82825000Y-89030500D01*
X82825000Y-97682500D01*
X82825000Y-97682500D01*
G37*
G36*
X119128127Y-93932261D02*
G01*
X119148900Y-93934000D01*
X119155827Y-93934000D01*
X119250754Y-93952882D01*
X119254348Y-93953542D01*
X119349730Y-93969624D01*
X119356203Y-93972085D01*
X119376228Y-93977841D01*
X119383027Y-93979193D01*
X119432144Y-93999538D01*
X119472443Y-94016230D01*
X119475844Y-94017581D01*
X119566255Y-94051961D01*
X119572127Y-94055640D01*
X119590636Y-94065187D01*
X119597045Y-94067842D01*
X119677563Y-94121642D01*
X119680554Y-94123578D01*
X119762557Y-94174959D01*
X119767584Y-94179700D01*
X119783896Y-94192691D01*
X119789652Y-94196537D01*
X119858110Y-94264995D01*
X119860689Y-94267499D01*
X119931090Y-94333889D01*
X119935095Y-94339519D01*
X119948559Y-94355444D01*
X119953459Y-94360344D01*
X120006948Y-94440395D01*
X120007244Y-94440839D01*
X120009291Y-94443807D01*
X120065380Y-94522645D01*
X120068214Y-94528958D01*
X120078308Y-94547193D01*
X120082158Y-94552955D01*
X120119220Y-94642430D01*
X120120624Y-94645685D01*
X120160265Y-94733973D01*
X120161815Y-94740725D01*
X120168152Y-94760562D01*
X120170807Y-94766973D01*
X120189692Y-94861917D01*
X120190438Y-94865401D01*
X120212098Y-94959751D01*
X120212098Y-94959754D01*
X120212300Y-94966654D01*
X120214647Y-94987370D01*
X120216000Y-94994174D01*
X120216000Y-95090986D01*
X120216053Y-95094584D01*
X120217188Y-95133277D01*
X120216295Y-95146225D01*
X120216000Y-95154797D01*
X120216000Y-95225826D01*
X120210081Y-95255585D01*
X120209604Y-95257979D01*
X120207500Y-95273750D01*
X120169238Y-95828545D01*
X120140376Y-95999730D01*
X120058038Y-96216255D01*
X119935041Y-96412557D01*
X119776111Y-96581090D01*
X119587355Y-96715380D01*
X119376027Y-96810265D01*
X119150249Y-96862098D01*
X118918698Y-96868889D01*
X118918697Y-96868889D01*
X118873012Y-96861186D01*
X118690270Y-96830376D01*
X118473745Y-96748038D01*
X118277443Y-96625041D01*
X118108910Y-96466111D01*
X117974620Y-96277355D01*
X117879735Y-96066027D01*
X117827902Y-95840249D01*
X117822812Y-95666723D01*
X117863704Y-95073794D01*
X117864000Y-95065196D01*
X117864000Y-94994175D01*
X117866165Y-94983292D01*
X117882888Y-94899219D01*
X117883544Y-94895645D01*
X117884630Y-94889205D01*
X117899624Y-94800270D01*
X117902085Y-94793799D01*
X117907842Y-94773767D01*
X117909193Y-94766974D01*
X117911843Y-94760576D01*
X117946264Y-94677476D01*
X117947553Y-94674230D01*
X117981962Y-94583745D01*
X117985636Y-94577881D01*
X117995187Y-94559365D01*
X117997842Y-94552955D01*
X118051657Y-94472415D01*
X118053577Y-94469449D01*
X118104959Y-94387443D01*
X118109711Y-94382404D01*
X118122689Y-94366107D01*
X118126537Y-94360348D01*
X118194993Y-94291892D01*
X118197546Y-94289262D01*
X118208078Y-94278094D01*
X118263889Y-94218910D01*
X118269521Y-94214903D01*
X118285447Y-94201438D01*
X118290346Y-94196539D01*
X118370824Y-94142766D01*
X118373806Y-94140710D01*
X118452645Y-94084620D01*
X118458955Y-94081787D01*
X118477194Y-94071691D01*
X118482951Y-94067844D01*
X118482954Y-94067843D01*
X118482955Y-94067842D01*
X118572429Y-94030781D01*
X118575687Y-94029375D01*
X118663973Y-93989735D01*
X118670725Y-93988185D01*
X118690562Y-93981848D01*
X118696973Y-93979193D01*
X118791899Y-93960311D01*
X118795446Y-93959551D01*
X118889751Y-93937901D01*
X118892130Y-93937831D01*
X118896665Y-93937698D01*
X118917381Y-93935351D01*
X118924174Y-93934000D01*
X119020959Y-93934000D01*
X119024584Y-93933947D01*
X119121302Y-93931110D01*
X119128127Y-93932261D01*
X119128127Y-93932261D01*
G37*
G36*
X100003127Y-93850011D02*
G01*
X100023900Y-93851750D01*
X100030827Y-93851750D01*
X100125754Y-93870632D01*
X100129348Y-93871292D01*
X100224730Y-93887374D01*
X100231203Y-93889835D01*
X100251228Y-93895591D01*
X100258027Y-93896943D01*
X100320414Y-93922784D01*
X100347443Y-93933980D01*
X100350844Y-93935331D01*
X100441255Y-93969711D01*
X100447127Y-93973390D01*
X100465636Y-93982937D01*
X100472045Y-93985592D01*
X100552563Y-94039392D01*
X100555554Y-94041328D01*
X100637557Y-94092709D01*
X100642584Y-94097450D01*
X100658896Y-94110441D01*
X100664652Y-94114287D01*
X100733110Y-94182745D01*
X100735689Y-94185249D01*
X100806090Y-94251639D01*
X100810095Y-94257269D01*
X100823559Y-94273194D01*
X100828459Y-94278094D01*
X100882244Y-94358589D01*
X100884291Y-94361557D01*
X100940380Y-94440395D01*
X100943214Y-94446708D01*
X100953308Y-94464943D01*
X100957158Y-94470705D01*
X100994220Y-94560180D01*
X100995624Y-94563435D01*
X101035265Y-94651723D01*
X101036815Y-94658475D01*
X101043152Y-94678312D01*
X101045807Y-94684723D01*
X101064692Y-94779667D01*
X101065438Y-94783151D01*
X101087098Y-94877501D01*
X101087098Y-94877504D01*
X101087300Y-94884404D01*
X101089647Y-94905120D01*
X101091000Y-94911924D01*
X101091000Y-95008736D01*
X101091053Y-95012334D01*
X101092188Y-95051027D01*
X101091295Y-95063975D01*
X101091000Y-95072547D01*
X101091000Y-95143576D01*
X101085068Y-95173400D01*
X101084604Y-95175729D01*
X101082500Y-95191500D01*
X101044238Y-95746295D01*
X101015376Y-95917480D01*
X100933038Y-96134005D01*
X100810041Y-96330307D01*
X100651111Y-96498840D01*
X100462355Y-96633130D01*
X100251027Y-96728015D01*
X100025249Y-96779848D01*
X99793698Y-96786639D01*
X99793697Y-96786639D01*
X99738864Y-96777394D01*
X99565270Y-96748126D01*
X99348745Y-96665788D01*
X99152443Y-96542791D01*
X98983910Y-96383861D01*
X98849620Y-96195105D01*
X98754735Y-95983777D01*
X98702902Y-95757999D01*
X98697812Y-95584473D01*
X98738704Y-94991544D01*
X98739000Y-94982946D01*
X98739000Y-94911925D01*
X98757882Y-94817000D01*
X98758544Y-94813395D01*
X98760757Y-94800272D01*
X98774624Y-94718020D01*
X98777085Y-94711549D01*
X98782842Y-94691517D01*
X98784193Y-94684724D01*
X98788577Y-94674140D01*
X98821264Y-94595226D01*
X98822553Y-94591980D01*
X98856962Y-94501495D01*
X98860636Y-94495631D01*
X98870187Y-94477115D01*
X98872842Y-94470705D01*
X98926657Y-94390165D01*
X98928577Y-94387199D01*
X98979959Y-94305193D01*
X98984711Y-94300154D01*
X98997689Y-94283857D01*
X99001537Y-94278098D01*
X99069993Y-94209642D01*
X99072546Y-94207012D01*
X99093023Y-94185298D01*
X99138889Y-94136660D01*
X99144521Y-94132653D01*
X99160447Y-94119188D01*
X99165346Y-94114289D01*
X99245824Y-94060516D01*
X99248806Y-94058460D01*
X99327645Y-94002370D01*
X99333955Y-93999537D01*
X99352194Y-93989441D01*
X99357951Y-93985594D01*
X99357954Y-93985593D01*
X99357955Y-93985592D01*
X99447429Y-93948531D01*
X99450687Y-93947125D01*
X99538973Y-93907485D01*
X99545725Y-93905935D01*
X99565562Y-93899598D01*
X99571973Y-93896943D01*
X99666899Y-93878061D01*
X99670446Y-93877301D01*
X99764751Y-93855651D01*
X99767130Y-93855581D01*
X99771665Y-93855448D01*
X99792381Y-93853101D01*
X99799174Y-93851750D01*
X99895959Y-93851750D01*
X99899584Y-93851697D01*
X99996302Y-93848860D01*
X100003127Y-93850011D01*
X100003127Y-93850011D01*
G37*
G36*
X47898604Y-91418347D02*
G01*
X47935144Y-91429432D01*
X47968821Y-91447433D01*
X47998341Y-91471659D01*
X48022567Y-91501179D01*
X48040568Y-91534856D01*
X48051653Y-91571396D01*
X48056000Y-91615538D01*
X48056000Y-92564462D01*
X48051653Y-92608604D01*
X48040568Y-92645144D01*
X48022567Y-92678821D01*
X47998341Y-92708341D01*
X47968821Y-92732567D01*
X47935144Y-92750568D01*
X47898604Y-92761653D01*
X47854462Y-92766000D01*
X46405538Y-92766000D01*
X46361396Y-92761653D01*
X46324856Y-92750568D01*
X46291179Y-92732567D01*
X46261659Y-92708341D01*
X46237433Y-92678821D01*
X46219432Y-92645144D01*
X46208347Y-92608604D01*
X46204000Y-92564462D01*
X46204000Y-91615538D01*
X46208347Y-91571396D01*
X46219432Y-91534856D01*
X46237433Y-91501179D01*
X46261659Y-91471659D01*
X46291179Y-91447433D01*
X46324856Y-91429432D01*
X46361396Y-91418347D01*
X46405538Y-91414000D01*
X47854462Y-91414000D01*
X47898604Y-91418347D01*
X47898604Y-91418347D01*
G37*
G36*
X66371968Y-90528565D02*
G01*
X66410638Y-90540296D01*
X66446277Y-90559346D01*
X66477517Y-90584983D01*
X66503154Y-90616223D01*
X66522204Y-90651862D01*
X66533935Y-90690532D01*
X66538500Y-90736888D01*
X66538500Y-91813112D01*
X66533935Y-91859468D01*
X66522204Y-91898138D01*
X66503154Y-91933777D01*
X66477517Y-91965017D01*
X66446277Y-91990654D01*
X66410638Y-92009704D01*
X66371968Y-92021435D01*
X66325612Y-92026000D01*
X65674388Y-92026000D01*
X65628032Y-92021435D01*
X65589362Y-92009704D01*
X65553723Y-91990654D01*
X65522483Y-91965017D01*
X65496846Y-91933777D01*
X65477796Y-91898138D01*
X65466065Y-91859468D01*
X65461500Y-91813112D01*
X65461500Y-90736888D01*
X65466065Y-90690532D01*
X65477796Y-90651862D01*
X65496846Y-90616223D01*
X65522483Y-90584983D01*
X65553723Y-90559346D01*
X65589362Y-90540296D01*
X65628032Y-90528565D01*
X65674388Y-90524000D01*
X66325612Y-90524000D01*
X66371968Y-90528565D01*
X66371968Y-90528565D01*
G37*
G36*
X64496968Y-90528565D02*
G01*
X64535638Y-90540296D01*
X64571277Y-90559346D01*
X64602517Y-90584983D01*
X64628154Y-90616223D01*
X64647204Y-90651862D01*
X64658935Y-90690532D01*
X64663500Y-90736888D01*
X64663500Y-91813112D01*
X64658935Y-91859468D01*
X64647204Y-91898138D01*
X64628154Y-91933777D01*
X64602517Y-91965017D01*
X64571277Y-91990654D01*
X64535638Y-92009704D01*
X64496968Y-92021435D01*
X64450612Y-92026000D01*
X63799388Y-92026000D01*
X63753032Y-92021435D01*
X63714362Y-92009704D01*
X63678723Y-91990654D01*
X63647483Y-91965017D01*
X63621846Y-91933777D01*
X63602796Y-91898138D01*
X63591065Y-91859468D01*
X63586500Y-91813112D01*
X63586500Y-90736888D01*
X63591065Y-90690532D01*
X63602796Y-90651862D01*
X63621846Y-90616223D01*
X63647483Y-90584983D01*
X63678723Y-90559346D01*
X63714362Y-90540296D01*
X63753032Y-90528565D01*
X63799388Y-90524000D01*
X64450612Y-90524000D01*
X64496968Y-90528565D01*
X64496968Y-90528565D01*
G37*
G36*
X86134468Y-89753565D02*
G01*
X86173138Y-89765296D01*
X86208777Y-89784346D01*
X86240017Y-89809983D01*
X86265654Y-89841223D01*
X86284704Y-89876862D01*
X86296435Y-89915532D01*
X86301000Y-89961888D01*
X86301000Y-90613112D01*
X86296435Y-90659468D01*
X86284704Y-90698138D01*
X86265654Y-90733777D01*
X86240017Y-90765017D01*
X86208777Y-90790654D01*
X86173138Y-90809704D01*
X86134468Y-90821435D01*
X86088112Y-90826000D01*
X85011888Y-90826000D01*
X84965532Y-90821435D01*
X84926862Y-90809704D01*
X84891223Y-90790654D01*
X84859983Y-90765017D01*
X84834346Y-90733777D01*
X84815296Y-90698138D01*
X84803565Y-90659468D01*
X84799000Y-90613112D01*
X84799000Y-89961888D01*
X84803565Y-89915532D01*
X84815296Y-89876862D01*
X84834346Y-89841223D01*
X84859983Y-89809983D01*
X84891223Y-89784346D01*
X84926862Y-89765296D01*
X84965532Y-89753565D01*
X85011888Y-89749000D01*
X86088112Y-89749000D01*
X86134468Y-89753565D01*
X86134468Y-89753565D01*
G37*
G36*
X47898604Y-88618347D02*
G01*
X47935144Y-88629432D01*
X47968821Y-88647433D01*
X47998341Y-88671659D01*
X48022567Y-88701179D01*
X48040568Y-88734856D01*
X48051653Y-88771396D01*
X48056000Y-88815538D01*
X48056000Y-89764462D01*
X48051653Y-89808604D01*
X48040568Y-89845144D01*
X48022567Y-89878821D01*
X47998341Y-89908341D01*
X47968821Y-89932567D01*
X47935144Y-89950568D01*
X47898604Y-89961653D01*
X47854462Y-89966000D01*
X46405538Y-89966000D01*
X46361396Y-89961653D01*
X46324856Y-89950568D01*
X46291179Y-89932567D01*
X46261659Y-89908341D01*
X46237433Y-89878821D01*
X46219432Y-89845144D01*
X46208347Y-89808604D01*
X46204000Y-89764462D01*
X46204000Y-88815538D01*
X46208347Y-88771396D01*
X46219432Y-88734856D01*
X46237433Y-88701179D01*
X46261659Y-88671659D01*
X46291179Y-88647433D01*
X46324856Y-88629432D01*
X46361396Y-88618347D01*
X46405538Y-88614000D01*
X47854462Y-88614000D01*
X47898604Y-88618347D01*
X47898604Y-88618347D01*
G37*
G36*
X86134468Y-87878565D02*
G01*
X86173138Y-87890296D01*
X86208777Y-87909346D01*
X86240017Y-87934983D01*
X86265654Y-87966223D01*
X86284704Y-88001862D01*
X86296435Y-88040532D01*
X86301000Y-88086888D01*
X86301000Y-88738112D01*
X86296435Y-88784468D01*
X86284704Y-88823138D01*
X86265654Y-88858777D01*
X86240017Y-88890017D01*
X86208777Y-88915654D01*
X86173138Y-88934704D01*
X86134468Y-88946435D01*
X86088112Y-88951000D01*
X85011888Y-88951000D01*
X84965532Y-88946435D01*
X84926862Y-88934704D01*
X84891223Y-88915654D01*
X84859983Y-88890017D01*
X84834346Y-88858777D01*
X84815296Y-88823138D01*
X84803565Y-88784468D01*
X84799000Y-88738112D01*
X84799000Y-88086888D01*
X84803565Y-88040532D01*
X84815296Y-88001862D01*
X84834346Y-87966223D01*
X84859983Y-87934983D01*
X84891223Y-87909346D01*
X84926862Y-87890296D01*
X84965532Y-87878565D01*
X85011888Y-87874000D01*
X86088112Y-87874000D01*
X86134468Y-87878565D01*
X86134468Y-87878565D01*
G37*
G36*
X80650000Y-88457500D02*
G01*
X71998000Y-88457500D01*
X71998000Y-86855500D01*
X80650000Y-86855500D01*
X80650000Y-88457500D01*
X80650000Y-88457500D01*
G37*
G36*
X118748500Y-87158500D02*
G01*
X116741500Y-87158500D01*
X116741500Y-85151500D01*
X118748500Y-85151500D01*
X118748500Y-87158500D01*
X118748500Y-87158500D01*
G37*
G36*
X115331425Y-85156988D02*
G01*
X115497710Y-85190063D01*
X115680336Y-85265709D01*
X115844694Y-85375530D01*
X115984470Y-85515306D01*
X116094291Y-85679664D01*
X116169937Y-85862290D01*
X116208500Y-86056164D01*
X116208500Y-86253836D01*
X116169937Y-86447710D01*
X116094291Y-86630336D01*
X115984470Y-86794694D01*
X115844694Y-86934470D01*
X115680336Y-87044291D01*
X115497710Y-87119937D01*
X115331425Y-87153012D01*
X115303837Y-87158500D01*
X115106163Y-87158500D01*
X115078575Y-87153012D01*
X114912290Y-87119937D01*
X114729664Y-87044291D01*
X114565306Y-86934470D01*
X114425530Y-86794694D01*
X114315709Y-86630336D01*
X114240063Y-86447710D01*
X114201500Y-86253836D01*
X114201500Y-86056164D01*
X114240063Y-85862290D01*
X114315709Y-85679664D01*
X114425530Y-85515306D01*
X114565306Y-85375530D01*
X114729664Y-85265709D01*
X114912290Y-85190063D01*
X115078575Y-85156988D01*
X115106163Y-85151500D01*
X115303837Y-85151500D01*
X115331425Y-85156988D01*
X115331425Y-85156988D01*
G37*
G36*
X96233675Y-85139738D02*
G01*
X96399960Y-85172813D01*
X96582586Y-85248459D01*
X96746944Y-85358280D01*
X96886720Y-85498056D01*
X96996541Y-85662414D01*
X97072187Y-85845040D01*
X97110750Y-86038914D01*
X97110750Y-86236586D01*
X97072187Y-86430460D01*
X96996541Y-86613086D01*
X96886720Y-86777444D01*
X96746944Y-86917220D01*
X96582586Y-87027041D01*
X96399960Y-87102687D01*
X96233675Y-87135762D01*
X96206087Y-87141250D01*
X96008413Y-87141250D01*
X95980825Y-87135762D01*
X95814540Y-87102687D01*
X95631914Y-87027041D01*
X95467556Y-86917220D01*
X95327780Y-86777444D01*
X95217959Y-86613086D01*
X95142313Y-86430460D01*
X95103750Y-86236586D01*
X95103750Y-86038914D01*
X95142313Y-85845040D01*
X95217959Y-85662414D01*
X95327780Y-85498056D01*
X95467556Y-85358280D01*
X95631914Y-85248459D01*
X95814540Y-85172813D01*
X95980825Y-85139738D01*
X96008413Y-85134250D01*
X96206087Y-85134250D01*
X96233675Y-85139738D01*
X96233675Y-85139738D01*
G37*
G36*
X99650750Y-87141250D02*
G01*
X97643750Y-87141250D01*
X97643750Y-85134250D01*
X99650750Y-85134250D01*
X99650750Y-87141250D01*
X99650750Y-87141250D01*
G37*
G36*
X55634468Y-85303565D02*
G01*
X55673138Y-85315296D01*
X55708777Y-85334346D01*
X55740017Y-85359983D01*
X55765654Y-85391223D01*
X55784704Y-85426862D01*
X55796435Y-85465532D01*
X55801000Y-85511888D01*
X55801000Y-86163112D01*
X55796435Y-86209468D01*
X55784704Y-86248138D01*
X55765654Y-86283777D01*
X55740017Y-86315017D01*
X55708777Y-86340654D01*
X55673138Y-86359704D01*
X55634468Y-86371435D01*
X55588112Y-86376000D01*
X54511888Y-86376000D01*
X54465532Y-86371435D01*
X54426862Y-86359704D01*
X54391223Y-86340654D01*
X54359983Y-86315017D01*
X54334346Y-86283777D01*
X54315296Y-86248138D01*
X54303565Y-86209468D01*
X54299000Y-86163112D01*
X54299000Y-85511888D01*
X54303565Y-85465532D01*
X54315296Y-85426862D01*
X54334346Y-85391223D01*
X54359983Y-85359983D01*
X54391223Y-85334346D01*
X54426862Y-85315296D01*
X54465532Y-85303565D01*
X54511888Y-85299000D01*
X55588112Y-85299000D01*
X55634468Y-85303565D01*
X55634468Y-85303565D01*
G37*
G36*
X52584468Y-85191065D02*
G01*
X52623138Y-85202796D01*
X52658777Y-85221846D01*
X52690017Y-85247483D01*
X52715654Y-85278723D01*
X52734704Y-85314362D01*
X52746435Y-85353032D01*
X52751000Y-85399388D01*
X52751000Y-86050612D01*
X52746435Y-86096968D01*
X52734704Y-86135638D01*
X52715654Y-86171277D01*
X52690017Y-86202517D01*
X52658777Y-86228154D01*
X52623138Y-86247204D01*
X52584468Y-86258935D01*
X52538112Y-86263500D01*
X51461888Y-86263500D01*
X51415532Y-86258935D01*
X51376862Y-86247204D01*
X51341223Y-86228154D01*
X51309983Y-86202517D01*
X51284346Y-86171277D01*
X51265296Y-86135638D01*
X51253565Y-86096968D01*
X51249000Y-86050612D01*
X51249000Y-85399388D01*
X51253565Y-85353032D01*
X51265296Y-85314362D01*
X51284346Y-85278723D01*
X51309983Y-85247483D01*
X51341223Y-85221846D01*
X51376862Y-85202796D01*
X51415532Y-85191065D01*
X51461888Y-85186500D01*
X52538112Y-85186500D01*
X52584468Y-85191065D01*
X52584468Y-85191065D01*
G37*
G36*
X55634468Y-83428565D02*
G01*
X55673138Y-83440296D01*
X55708777Y-83459346D01*
X55740017Y-83484983D01*
X55765654Y-83516223D01*
X55784704Y-83551862D01*
X55796435Y-83590532D01*
X55801000Y-83636888D01*
X55801000Y-84288112D01*
X55796435Y-84334468D01*
X55784704Y-84373138D01*
X55765654Y-84408777D01*
X55740017Y-84440017D01*
X55708777Y-84465654D01*
X55673138Y-84484704D01*
X55634468Y-84496435D01*
X55588112Y-84501000D01*
X54511888Y-84501000D01*
X54465532Y-84496435D01*
X54426862Y-84484704D01*
X54391223Y-84465654D01*
X54359983Y-84440017D01*
X54334346Y-84408777D01*
X54315296Y-84373138D01*
X54303565Y-84334468D01*
X54299000Y-84288112D01*
X54299000Y-83636888D01*
X54303565Y-83590532D01*
X54315296Y-83551862D01*
X54334346Y-83516223D01*
X54359983Y-83484983D01*
X54391223Y-83459346D01*
X54426862Y-83440296D01*
X54465532Y-83428565D01*
X54511888Y-83424000D01*
X55588112Y-83424000D01*
X55634468Y-83428565D01*
X55634468Y-83428565D01*
G37*
G36*
X52584468Y-83316065D02*
G01*
X52623138Y-83327796D01*
X52658777Y-83346846D01*
X52690017Y-83372483D01*
X52715654Y-83403723D01*
X52734704Y-83439362D01*
X52746435Y-83478032D01*
X52751000Y-83524388D01*
X52751000Y-84175612D01*
X52746435Y-84221968D01*
X52734704Y-84260638D01*
X52715654Y-84296277D01*
X52690017Y-84327517D01*
X52658777Y-84353154D01*
X52623138Y-84372204D01*
X52584468Y-84383935D01*
X52538112Y-84388500D01*
X51461888Y-84388500D01*
X51415532Y-84383935D01*
X51376862Y-84372204D01*
X51341223Y-84353154D01*
X51309983Y-84327517D01*
X51284346Y-84296277D01*
X51265296Y-84260638D01*
X51253565Y-84221968D01*
X51249000Y-84175612D01*
X51249000Y-83524388D01*
X51253565Y-83478032D01*
X51265296Y-83439362D01*
X51284346Y-83403723D01*
X51309983Y-83372483D01*
X51341223Y-83346846D01*
X51376862Y-83327796D01*
X51415532Y-83316065D01*
X51461888Y-83311500D01*
X52538112Y-83311500D01*
X52584468Y-83316065D01*
X52584468Y-83316065D01*
G37*
G36*
X106061000Y-83685000D02*
G01*
X104759000Y-83685000D01*
X104759000Y-82683000D01*
X106061000Y-82683000D01*
X106061000Y-83685000D01*
X106061000Y-83685000D01*
G37*
G36*
X125111000Y-83431000D02*
G01*
X123809000Y-83431000D01*
X123809000Y-82429000D01*
X125111000Y-82429000D01*
X125111000Y-83431000D01*
X125111000Y-83431000D01*
G37*
G36*
X65884468Y-82128565D02*
G01*
X65923138Y-82140296D01*
X65958777Y-82159346D01*
X65990017Y-82184983D01*
X66015654Y-82216223D01*
X66034704Y-82251862D01*
X66046435Y-82290532D01*
X66051000Y-82336888D01*
X66051000Y-82988112D01*
X66046435Y-83034468D01*
X66034704Y-83073138D01*
X66015654Y-83108777D01*
X65990017Y-83140017D01*
X65958777Y-83165654D01*
X65923138Y-83184704D01*
X65884468Y-83196435D01*
X65838112Y-83201000D01*
X64761888Y-83201000D01*
X64715532Y-83196435D01*
X64676862Y-83184704D01*
X64641223Y-83165654D01*
X64609983Y-83140017D01*
X64584346Y-83108777D01*
X64565296Y-83073138D01*
X64553565Y-83034468D01*
X64549000Y-82988112D01*
X64549000Y-82336888D01*
X64553565Y-82290532D01*
X64565296Y-82251862D01*
X64584346Y-82216223D01*
X64609983Y-82184983D01*
X64641223Y-82159346D01*
X64676862Y-82140296D01*
X64715532Y-82128565D01*
X64761888Y-82124000D01*
X65838112Y-82124000D01*
X65884468Y-82128565D01*
X65884468Y-82128565D01*
G37*
G36*
X62584468Y-82116065D02*
G01*
X62623138Y-82127796D01*
X62658777Y-82146846D01*
X62690017Y-82172483D01*
X62715654Y-82203723D01*
X62734704Y-82239362D01*
X62746435Y-82278032D01*
X62751000Y-82324388D01*
X62751000Y-82975612D01*
X62746435Y-83021968D01*
X62734704Y-83060638D01*
X62715654Y-83096277D01*
X62690017Y-83127517D01*
X62658777Y-83153154D01*
X62623138Y-83172204D01*
X62584468Y-83183935D01*
X62538112Y-83188500D01*
X61461888Y-83188500D01*
X61415532Y-83183935D01*
X61376862Y-83172204D01*
X61341223Y-83153154D01*
X61309983Y-83127517D01*
X61284346Y-83096277D01*
X61265296Y-83060638D01*
X61253565Y-83021968D01*
X61249000Y-82975612D01*
X61249000Y-82324388D01*
X61253565Y-82278032D01*
X61265296Y-82239362D01*
X61284346Y-82203723D01*
X61309983Y-82172483D01*
X61341223Y-82146846D01*
X61376862Y-82127796D01*
X61415532Y-82116065D01*
X61461888Y-82111500D01*
X62538112Y-82111500D01*
X62584468Y-82116065D01*
X62584468Y-82116065D01*
G37*
G36*
X117071474Y-79108684D02*
G01*
X117289474Y-79198983D01*
X117443623Y-79262833D01*
X117778548Y-79486623D01*
X118063377Y-79771452D01*
X118287167Y-80106377D01*
X118319562Y-80184586D01*
X118441316Y-80478526D01*
X118519900Y-80873594D01*
X118519900Y-81276406D01*
X118441316Y-81671474D01*
X118390451Y-81794272D01*
X118287167Y-82043623D01*
X118063377Y-82378548D01*
X117778548Y-82663377D01*
X117443623Y-82887167D01*
X117289474Y-82951017D01*
X117071474Y-83041316D01*
X116676406Y-83119900D01*
X116273594Y-83119900D01*
X115878526Y-83041316D01*
X115660526Y-82951017D01*
X115506377Y-82887167D01*
X115171452Y-82663377D01*
X114886623Y-82378548D01*
X114662833Y-82043623D01*
X114559549Y-81794272D01*
X114508684Y-81671474D01*
X114430100Y-81276406D01*
X114430100Y-80873594D01*
X114508684Y-80478526D01*
X114630438Y-80184586D01*
X114662833Y-80106377D01*
X114886623Y-79771452D01*
X115171452Y-79486623D01*
X115506377Y-79262833D01*
X115660526Y-79198983D01*
X115878526Y-79108684D01*
X116273594Y-79030100D01*
X116676406Y-79030100D01*
X117071474Y-79108684D01*
X117071474Y-79108684D01*
G37*
G36*
X97973724Y-79091434D02*
G01*
X98191724Y-79181733D01*
X98345873Y-79245583D01*
X98680798Y-79469373D01*
X98965627Y-79754202D01*
X99189417Y-80089127D01*
X99221812Y-80167336D01*
X99343566Y-80461276D01*
X99422150Y-80856344D01*
X99422150Y-81259156D01*
X99343566Y-81654224D01*
X99285556Y-81794272D01*
X99189417Y-82026373D01*
X98965627Y-82361298D01*
X98680798Y-82646127D01*
X98345873Y-82869917D01*
X98226772Y-82919250D01*
X97973724Y-83024066D01*
X97578656Y-83102650D01*
X97175844Y-83102650D01*
X96780776Y-83024066D01*
X96527728Y-82919250D01*
X96408627Y-82869917D01*
X96073702Y-82646127D01*
X95788873Y-82361298D01*
X95565083Y-82026373D01*
X95468944Y-81794272D01*
X95410934Y-81654224D01*
X95332350Y-81259156D01*
X95332350Y-80856344D01*
X95410934Y-80461276D01*
X95532688Y-80167336D01*
X95565083Y-80089127D01*
X95788873Y-79754202D01*
X96073702Y-79469373D01*
X96408627Y-79245583D01*
X96562776Y-79181733D01*
X96780776Y-79091434D01*
X97175844Y-79012850D01*
X97578656Y-79012850D01*
X97973724Y-79091434D01*
X97973724Y-79091434D01*
G37*
G36*
X111665104Y-80184585D02*
G01*
X111833626Y-80254389D01*
X111985291Y-80355728D01*
X112114272Y-80484709D01*
X112215611Y-80636374D01*
X112285415Y-80804896D01*
X112321000Y-80983797D01*
X112321000Y-81166203D01*
X112285415Y-81345104D01*
X112215611Y-81513626D01*
X112114272Y-81665291D01*
X111985291Y-81794272D01*
X111833626Y-81895611D01*
X111665104Y-81965415D01*
X111486203Y-82001000D01*
X111303797Y-82001000D01*
X111124896Y-81965415D01*
X110956374Y-81895611D01*
X110804709Y-81794272D01*
X110675728Y-81665291D01*
X110574389Y-81513626D01*
X110504585Y-81345104D01*
X110469000Y-81166203D01*
X110469000Y-80983797D01*
X110504585Y-80804896D01*
X110574389Y-80636374D01*
X110675728Y-80484709D01*
X110804709Y-80355728D01*
X110956374Y-80254389D01*
X111124896Y-80184585D01*
X111303797Y-80149000D01*
X111486203Y-80149000D01*
X111665104Y-80184585D01*
X111665104Y-80184585D01*
G37*
G36*
X121825104Y-80184585D02*
G01*
X121993626Y-80254389D01*
X122145291Y-80355728D01*
X122274272Y-80484709D01*
X122375611Y-80636374D01*
X122445415Y-80804896D01*
X122481000Y-80983797D01*
X122481000Y-81166203D01*
X122445415Y-81345104D01*
X122375611Y-81513626D01*
X122274272Y-81665291D01*
X122145291Y-81794272D01*
X121993626Y-81895611D01*
X121825104Y-81965415D01*
X121646203Y-82001000D01*
X121463797Y-82001000D01*
X121284896Y-81965415D01*
X121116374Y-81895611D01*
X120964709Y-81794272D01*
X120835728Y-81665291D01*
X120734389Y-81513626D01*
X120664585Y-81345104D01*
X120629000Y-81166203D01*
X120629000Y-80983797D01*
X120664585Y-80804896D01*
X120734389Y-80636374D01*
X120835728Y-80484709D01*
X120964709Y-80355728D01*
X121116374Y-80254389D01*
X121284896Y-80184585D01*
X121463797Y-80149000D01*
X121646203Y-80149000D01*
X121825104Y-80184585D01*
X121825104Y-80184585D01*
G37*
G36*
X92567354Y-80167335D02*
G01*
X92735876Y-80237139D01*
X92887541Y-80338478D01*
X93016522Y-80467459D01*
X93117861Y-80619124D01*
X93187665Y-80787646D01*
X93223250Y-80966547D01*
X93223250Y-81148953D01*
X93187665Y-81327854D01*
X93117861Y-81496376D01*
X93016522Y-81648041D01*
X92887541Y-81777022D01*
X92735876Y-81878361D01*
X92567354Y-81948165D01*
X92388453Y-81983750D01*
X92206047Y-81983750D01*
X92027146Y-81948165D01*
X91858624Y-81878361D01*
X91706959Y-81777022D01*
X91577978Y-81648041D01*
X91476639Y-81496376D01*
X91406835Y-81327854D01*
X91371250Y-81148953D01*
X91371250Y-80966547D01*
X91406835Y-80787646D01*
X91476639Y-80619124D01*
X91577978Y-80467459D01*
X91706959Y-80338478D01*
X91858624Y-80237139D01*
X92027146Y-80167335D01*
X92206047Y-80131750D01*
X92388453Y-80131750D01*
X92567354Y-80167335D01*
X92567354Y-80167335D01*
G37*
G36*
X102727354Y-80167335D02*
G01*
X102895876Y-80237139D01*
X103047541Y-80338478D01*
X103176522Y-80467459D01*
X103277861Y-80619124D01*
X103347665Y-80787646D01*
X103383250Y-80966547D01*
X103383250Y-81148953D01*
X103347665Y-81327854D01*
X103277861Y-81496376D01*
X103176522Y-81648041D01*
X103047541Y-81777022D01*
X102895876Y-81878361D01*
X102727354Y-81948165D01*
X102548453Y-81983750D01*
X102366047Y-81983750D01*
X102187146Y-81948165D01*
X102018624Y-81878361D01*
X101866959Y-81777022D01*
X101737978Y-81648041D01*
X101636639Y-81496376D01*
X101566835Y-81327854D01*
X101531250Y-81148953D01*
X101531250Y-80966547D01*
X101566835Y-80787646D01*
X101636639Y-80619124D01*
X101737978Y-80467459D01*
X101866959Y-80338478D01*
X102018624Y-80237139D01*
X102187146Y-80167335D01*
X102366047Y-80131750D01*
X102548453Y-80131750D01*
X102727354Y-80167335D01*
X102727354Y-80167335D01*
G37*
G36*
X65884468Y-80253565D02*
G01*
X65923138Y-80265296D01*
X65958777Y-80284346D01*
X65990017Y-80309983D01*
X66015654Y-80341223D01*
X66034704Y-80376862D01*
X66046435Y-80415532D01*
X66051000Y-80461888D01*
X66051000Y-81113112D01*
X66046435Y-81159468D01*
X66034704Y-81198138D01*
X66015654Y-81233777D01*
X65990017Y-81265017D01*
X65958777Y-81290654D01*
X65923138Y-81309704D01*
X65884468Y-81321435D01*
X65838112Y-81326000D01*
X64761888Y-81326000D01*
X64715532Y-81321435D01*
X64676862Y-81309704D01*
X64641223Y-81290654D01*
X64609983Y-81265017D01*
X64584346Y-81233777D01*
X64565296Y-81198138D01*
X64553565Y-81159468D01*
X64549000Y-81113112D01*
X64549000Y-80461888D01*
X64553565Y-80415532D01*
X64565296Y-80376862D01*
X64584346Y-80341223D01*
X64609983Y-80309983D01*
X64641223Y-80284346D01*
X64676862Y-80265296D01*
X64715532Y-80253565D01*
X64761888Y-80249000D01*
X65838112Y-80249000D01*
X65884468Y-80253565D01*
X65884468Y-80253565D01*
G37*
G36*
X62584468Y-80241065D02*
G01*
X62623138Y-80252796D01*
X62658777Y-80271846D01*
X62690017Y-80297483D01*
X62715654Y-80328723D01*
X62734704Y-80364362D01*
X62746435Y-80403032D01*
X62751000Y-80449388D01*
X62751000Y-81100612D01*
X62746435Y-81146968D01*
X62734704Y-81185638D01*
X62715654Y-81221277D01*
X62690017Y-81252517D01*
X62658777Y-81278154D01*
X62623138Y-81297204D01*
X62584468Y-81308935D01*
X62538112Y-81313500D01*
X61461888Y-81313500D01*
X61415532Y-81308935D01*
X61376862Y-81297204D01*
X61341223Y-81278154D01*
X61309983Y-81252517D01*
X61284346Y-81221277D01*
X61265296Y-81185638D01*
X61253565Y-81146968D01*
X61249000Y-81100612D01*
X61249000Y-80449388D01*
X61253565Y-80403032D01*
X61265296Y-80364362D01*
X61284346Y-80328723D01*
X61309983Y-80297483D01*
X61341223Y-80271846D01*
X61376862Y-80252796D01*
X61415532Y-80241065D01*
X61461888Y-80236500D01*
X62538112Y-80236500D01*
X62584468Y-80241065D01*
X62584468Y-80241065D01*
G37*
G36*
X77893000Y-80915000D02*
G01*
X76391000Y-80915000D01*
X76391000Y-79613000D01*
X77893000Y-79613000D01*
X77893000Y-80915000D01*
X77893000Y-80915000D01*
G37*
G36*
X75693000Y-80915000D02*
G01*
X74191000Y-80915000D01*
X74191000Y-79613000D01*
X75693000Y-79613000D01*
X75693000Y-80915000D01*
X75693000Y-80915000D01*
G37*
G36*
X80559468Y-79641065D02*
G01*
X80598138Y-79652796D01*
X80633777Y-79671846D01*
X80665017Y-79697483D01*
X80690654Y-79728723D01*
X80709704Y-79764362D01*
X80721435Y-79803032D01*
X80726000Y-79849388D01*
X80726000Y-80500612D01*
X80721435Y-80546968D01*
X80709704Y-80585638D01*
X80690654Y-80621277D01*
X80665017Y-80652517D01*
X80633777Y-80678154D01*
X80598138Y-80697204D01*
X80559468Y-80708935D01*
X80513112Y-80713500D01*
X79436888Y-80713500D01*
X79390532Y-80708935D01*
X79351862Y-80697204D01*
X79316223Y-80678154D01*
X79284983Y-80652517D01*
X79259346Y-80621277D01*
X79240296Y-80585638D01*
X79228565Y-80546968D01*
X79224000Y-80500612D01*
X79224000Y-79849388D01*
X79228565Y-79803032D01*
X79240296Y-79764362D01*
X79259346Y-79728723D01*
X79284983Y-79697483D01*
X79316223Y-79671846D01*
X79351862Y-79652796D01*
X79390532Y-79641065D01*
X79436888Y-79636500D01*
X80513112Y-79636500D01*
X80559468Y-79641065D01*
X80559468Y-79641065D01*
G37*
G36*
X72959468Y-79641065D02*
G01*
X72998138Y-79652796D01*
X73033777Y-79671846D01*
X73065017Y-79697483D01*
X73090654Y-79728723D01*
X73109704Y-79764362D01*
X73121435Y-79803032D01*
X73126000Y-79849388D01*
X73126000Y-80500612D01*
X73121435Y-80546968D01*
X73109704Y-80585638D01*
X73090654Y-80621277D01*
X73065017Y-80652517D01*
X73033777Y-80678154D01*
X72998138Y-80697204D01*
X72959468Y-80708935D01*
X72913112Y-80713500D01*
X71836888Y-80713500D01*
X71790532Y-80708935D01*
X71751862Y-80697204D01*
X71716223Y-80678154D01*
X71684983Y-80652517D01*
X71659346Y-80621277D01*
X71640296Y-80585638D01*
X71628565Y-80546968D01*
X71624000Y-80500612D01*
X71624000Y-79849388D01*
X71628565Y-79803032D01*
X71640296Y-79764362D01*
X71659346Y-79728723D01*
X71684983Y-79697483D01*
X71716223Y-79671846D01*
X71751862Y-79652796D01*
X71790532Y-79641065D01*
X71836888Y-79636500D01*
X72913112Y-79636500D01*
X72959468Y-79641065D01*
X72959468Y-79641065D01*
G37*
G36*
X106061000Y-80385000D02*
G01*
X104759000Y-80385000D01*
X104759000Y-79383000D01*
X106061000Y-79383000D01*
X106061000Y-80385000D01*
X106061000Y-80385000D01*
G37*
G36*
X125111000Y-80131000D02*
G01*
X123809000Y-80131000D01*
X123809000Y-79129000D01*
X125111000Y-79129000D01*
X125111000Y-80131000D01*
X125111000Y-80131000D01*
G37*
G36*
X113998205Y-75898881D02*
G01*
X114003645Y-75899000D01*
X114090828Y-75899000D01*
X114107097Y-75902236D01*
X114125956Y-75904515D01*
X114142532Y-75905246D01*
X114227223Y-75926010D01*
X114232518Y-75927184D01*
X114318027Y-75944193D01*
X114333362Y-75950545D01*
X114351401Y-75956455D01*
X114367521Y-75960407D01*
X114446504Y-75997280D01*
X114451494Y-75999477D01*
X114532045Y-76032842D01*
X114545841Y-76042060D01*
X114562393Y-76051382D01*
X114577426Y-76058400D01*
X114647694Y-76109971D01*
X114652192Y-76113122D01*
X114724656Y-76161541D01*
X114736383Y-76173268D01*
X114750809Y-76185648D01*
X114764179Y-76195461D01*
X114810589Y-76246153D01*
X114823021Y-76259733D01*
X114826829Y-76263714D01*
X114888459Y-76325344D01*
X114897674Y-76339135D01*
X114909396Y-76354078D01*
X114920605Y-76366321D01*
X114965799Y-76440874D01*
X114968746Y-76445501D01*
X114994659Y-76484283D01*
X115017158Y-76517955D01*
X115023505Y-76533277D01*
X115032092Y-76550231D01*
X115040691Y-76564417D01*
X115070478Y-76646368D01*
X115072452Y-76651448D01*
X115103915Y-76727406D01*
X115105807Y-76731974D01*
X115109041Y-76748233D01*
X115114158Y-76766542D01*
X115119825Y-76782134D01*
X115133055Y-76868345D01*
X115134001Y-76873713D01*
X115151000Y-76959173D01*
X115151000Y-76975752D01*
X115152444Y-76994692D01*
X115154963Y-77011104D01*
X115151120Y-77098249D01*
X115151000Y-77103689D01*
X115151000Y-77190825D01*
X115147766Y-77207083D01*
X115145488Y-77225941D01*
X115144756Y-77242531D01*
X115123988Y-77327237D01*
X115122812Y-77332537D01*
X115105807Y-77418027D01*
X115099457Y-77433357D01*
X115093549Y-77451393D01*
X115089595Y-77467520D01*
X115052711Y-77546526D01*
X115050511Y-77551523D01*
X115017158Y-77632045D01*
X115007944Y-77645835D01*
X114998622Y-77662387D01*
X114991602Y-77677424D01*
X114940011Y-77747720D01*
X114936866Y-77752210D01*
X114888461Y-77824654D01*
X114831460Y-77881655D01*
X114826811Y-77886563D01*
X114470040Y-78284185D01*
X113501723Y-79363376D01*
X113373679Y-79480602D01*
X113285016Y-79534350D01*
X113175583Y-79600689D01*
X112957866Y-79679823D01*
X112728895Y-79714961D01*
X112497470Y-79704754D01*
X112272481Y-79649593D01*
X112167727Y-79600689D01*
X112062579Y-79551602D01*
X111950538Y-79469373D01*
X111875823Y-79414539D01*
X111801394Y-79333241D01*
X111719398Y-79243679D01*
X111637564Y-79108685D01*
X111599311Y-79045583D01*
X111520177Y-78827866D01*
X111485039Y-78598895D01*
X111495246Y-78367470D01*
X111550407Y-78142481D01*
X111621374Y-77990467D01*
X111648398Y-77932580D01*
X111651736Y-77928032D01*
X111751114Y-77792622D01*
X112514413Y-76941924D01*
X113037787Y-76358621D01*
X113048681Y-76344589D01*
X113061539Y-76325346D01*
X113118573Y-76268312D01*
X113123223Y-76263403D01*
X113138278Y-76246624D01*
X113159701Y-76227011D01*
X113163682Y-76223203D01*
X113225346Y-76161539D01*
X113239143Y-76152320D01*
X113254102Y-76140585D01*
X113266321Y-76129398D01*
X113298385Y-76109961D01*
X113340830Y-76084231D01*
X113345421Y-76081308D01*
X113417955Y-76032842D01*
X113433300Y-76026486D01*
X113450248Y-76017901D01*
X113464416Y-76009312D01*
X113464417Y-76009312D01*
X113464418Y-76009311D01*
X113546312Y-75979545D01*
X113551410Y-75977563D01*
X113631973Y-75944193D01*
X113648252Y-75940955D01*
X113666542Y-75935844D01*
X113682135Y-75930177D01*
X113768300Y-75916954D01*
X113773663Y-75916009D01*
X113859173Y-75899000D01*
X113875766Y-75899000D01*
X113894709Y-75897555D01*
X113911106Y-75895039D01*
X113998205Y-75898881D01*
X113998205Y-75898881D01*
G37*
G36*
X94900455Y-75881631D02*
G01*
X94905895Y-75881750D01*
X94993078Y-75881750D01*
X95009347Y-75884986D01*
X95028206Y-75887265D01*
X95044782Y-75887996D01*
X95129473Y-75908760D01*
X95134768Y-75909934D01*
X95220277Y-75926943D01*
X95235612Y-75933295D01*
X95253651Y-75939205D01*
X95269771Y-75943157D01*
X95348754Y-75980030D01*
X95353744Y-75982227D01*
X95434295Y-76015592D01*
X95448091Y-76024810D01*
X95464643Y-76034132D01*
X95479676Y-76041150D01*
X95549944Y-76092721D01*
X95554442Y-76095872D01*
X95626906Y-76144291D01*
X95638633Y-76156018D01*
X95653059Y-76168398D01*
X95666429Y-76178211D01*
X95666430Y-76178212D01*
X95725271Y-76242483D01*
X95729079Y-76246464D01*
X95790709Y-76308094D01*
X95799924Y-76321885D01*
X95811646Y-76336828D01*
X95822855Y-76349071D01*
X95868049Y-76423624D01*
X95870996Y-76428251D01*
X95882522Y-76445501D01*
X95919408Y-76500705D01*
X95925755Y-76516027D01*
X95934342Y-76532981D01*
X95942941Y-76547167D01*
X95972728Y-76629118D01*
X95974702Y-76634198D01*
X96008057Y-76714723D01*
X96010151Y-76725249D01*
X96011291Y-76730983D01*
X96016408Y-76749292D01*
X96022075Y-76764884D01*
X96035305Y-76851095D01*
X96036251Y-76856463D01*
X96053250Y-76941923D01*
X96053250Y-76958502D01*
X96054694Y-76977442D01*
X96057213Y-76993854D01*
X96053370Y-77080999D01*
X96053250Y-77086439D01*
X96053250Y-77173575D01*
X96050016Y-77189833D01*
X96047738Y-77208691D01*
X96047006Y-77225281D01*
X96026238Y-77309987D01*
X96025062Y-77315287D01*
X96008057Y-77400777D01*
X96001707Y-77416107D01*
X95995799Y-77434143D01*
X95991845Y-77450270D01*
X95954961Y-77529276D01*
X95952761Y-77534273D01*
X95919408Y-77614795D01*
X95910194Y-77628585D01*
X95900872Y-77645137D01*
X95893852Y-77660174D01*
X95842261Y-77730470D01*
X95839116Y-77734960D01*
X95790711Y-77807404D01*
X95733710Y-77864405D01*
X95729061Y-77869313D01*
X95386588Y-78251000D01*
X94403973Y-79346126D01*
X94275929Y-79463352D01*
X94176881Y-79523395D01*
X94077833Y-79583439D01*
X93860116Y-79662573D01*
X93631145Y-79697711D01*
X93399720Y-79687504D01*
X93174731Y-79632343D01*
X93069977Y-79583439D01*
X92964829Y-79534352D01*
X92868088Y-79463352D01*
X92778073Y-79397289D01*
X92654977Y-79262833D01*
X92621648Y-79226429D01*
X92539814Y-79091435D01*
X92501561Y-79028333D01*
X92422427Y-78810616D01*
X92387289Y-78581645D01*
X92397496Y-78350220D01*
X92452657Y-78125231D01*
X92515571Y-77990467D01*
X92550648Y-77915330D01*
X92569706Y-77889362D01*
X92653364Y-77775372D01*
X93331213Y-77019908D01*
X93940037Y-76341371D01*
X93950931Y-76327339D01*
X93963789Y-76308096D01*
X94020823Y-76251062D01*
X94025473Y-76246153D01*
X94040528Y-76229374D01*
X94061951Y-76209761D01*
X94065932Y-76205953D01*
X94127596Y-76144289D01*
X94141393Y-76135070D01*
X94156352Y-76123335D01*
X94168571Y-76112148D01*
X94200635Y-76092711D01*
X94243080Y-76066981D01*
X94247671Y-76064058D01*
X94320205Y-76015592D01*
X94335550Y-76009236D01*
X94352498Y-76000651D01*
X94366666Y-75992062D01*
X94366667Y-75992062D01*
X94366668Y-75992061D01*
X94448562Y-75962295D01*
X94453660Y-75960313D01*
X94534223Y-75926943D01*
X94550502Y-75923705D01*
X94568792Y-75918594D01*
X94584385Y-75912927D01*
X94670550Y-75899704D01*
X94675913Y-75898759D01*
X94761423Y-75881750D01*
X94778016Y-75881750D01*
X94796959Y-75880305D01*
X94813356Y-75877789D01*
X94900455Y-75881631D01*
X94900455Y-75881631D01*
G37*
G36*
X75693000Y-79215000D02*
G01*
X74191000Y-79215000D01*
X74191000Y-77913000D01*
X75693000Y-77913000D01*
X75693000Y-79215000D01*
X75693000Y-79215000D01*
G37*
G36*
X77893000Y-79215000D02*
G01*
X76391000Y-79215000D01*
X76391000Y-77913000D01*
X77893000Y-77913000D01*
X77893000Y-79215000D01*
X77893000Y-79215000D01*
G37*
G36*
X80559468Y-77766065D02*
G01*
X80598138Y-77777796D01*
X80633777Y-77796846D01*
X80665017Y-77822483D01*
X80690654Y-77853723D01*
X80709704Y-77889362D01*
X80721435Y-77928032D01*
X80726000Y-77974388D01*
X80726000Y-78625612D01*
X80721435Y-78671968D01*
X80709704Y-78710638D01*
X80690654Y-78746277D01*
X80665017Y-78777517D01*
X80633777Y-78803154D01*
X80598138Y-78822204D01*
X80559468Y-78833935D01*
X80513112Y-78838500D01*
X79436888Y-78838500D01*
X79390532Y-78833935D01*
X79351862Y-78822204D01*
X79316223Y-78803154D01*
X79284983Y-78777517D01*
X79259346Y-78746277D01*
X79240296Y-78710638D01*
X79228565Y-78671968D01*
X79224000Y-78625612D01*
X79224000Y-77974388D01*
X79228565Y-77928032D01*
X79240296Y-77889362D01*
X79259346Y-77853723D01*
X79284983Y-77822483D01*
X79316223Y-77796846D01*
X79351862Y-77777796D01*
X79390532Y-77766065D01*
X79436888Y-77761500D01*
X80513112Y-77761500D01*
X80559468Y-77766065D01*
X80559468Y-77766065D01*
G37*
G36*
X72959468Y-77766065D02*
G01*
X72998138Y-77777796D01*
X73033777Y-77796846D01*
X73065017Y-77822483D01*
X73090654Y-77853723D01*
X73109704Y-77889362D01*
X73121435Y-77928032D01*
X73126000Y-77974388D01*
X73126000Y-78625612D01*
X73121435Y-78671968D01*
X73109704Y-78710638D01*
X73090654Y-78746277D01*
X73065017Y-78777517D01*
X73033777Y-78803154D01*
X72998138Y-78822204D01*
X72959468Y-78833935D01*
X72913112Y-78838500D01*
X71836888Y-78838500D01*
X71790532Y-78833935D01*
X71751862Y-78822204D01*
X71716223Y-78803154D01*
X71684983Y-78777517D01*
X71659346Y-78746277D01*
X71640296Y-78710638D01*
X71628565Y-78671968D01*
X71624000Y-78625612D01*
X71624000Y-77974388D01*
X71628565Y-77928032D01*
X71640296Y-77889362D01*
X71659346Y-77853723D01*
X71684983Y-77822483D01*
X71716223Y-77796846D01*
X71751862Y-77777796D01*
X71790532Y-77766065D01*
X71836888Y-77761500D01*
X72913112Y-77761500D01*
X72959468Y-77766065D01*
X72959468Y-77766065D01*
G37*
G36*
X50476627Y-75756037D02*
G01*
X50646466Y-75807557D01*
X50802991Y-75891222D01*
X50838729Y-75920552D01*
X50940186Y-76003814D01*
X51015735Y-76095872D01*
X51052778Y-76141009D01*
X51136443Y-76297534D01*
X51187963Y-76467373D01*
X51201000Y-76599742D01*
X51201000Y-77688258D01*
X51187963Y-77820627D01*
X51136443Y-77990466D01*
X51052778Y-78146991D01*
X51023448Y-78182729D01*
X50940186Y-78284186D01*
X50802989Y-78396779D01*
X50646467Y-78480442D01*
X50646465Y-78480443D01*
X50476626Y-78531963D01*
X50300000Y-78549359D01*
X50123373Y-78531963D01*
X49953534Y-78480443D01*
X49797009Y-78396778D01*
X49761271Y-78367448D01*
X49659814Y-78284186D01*
X49547221Y-78146989D01*
X49463558Y-77990467D01*
X49463557Y-77990465D01*
X49412037Y-77820626D01*
X49399000Y-77688257D01*
X49399001Y-76599742D01*
X49412038Y-76467373D01*
X49463558Y-76297534D01*
X49547223Y-76141009D01*
X49584266Y-76095872D01*
X49659815Y-76003814D01*
X49761272Y-75920552D01*
X49797010Y-75891222D01*
X49953535Y-75807557D01*
X50123374Y-75756037D01*
X50300000Y-75738641D01*
X50476627Y-75756037D01*
X50476627Y-75756037D01*
G37*
G36*
X57776627Y-75756037D02*
G01*
X57946466Y-75807557D01*
X58102991Y-75891222D01*
X58138729Y-75920552D01*
X58240186Y-76003814D01*
X58315735Y-76095872D01*
X58352778Y-76141009D01*
X58436443Y-76297534D01*
X58487963Y-76467373D01*
X58501000Y-76599742D01*
X58501000Y-77688258D01*
X58487963Y-77820627D01*
X58436443Y-77990466D01*
X58352778Y-78146991D01*
X58323448Y-78182729D01*
X58240186Y-78284186D01*
X58102989Y-78396779D01*
X57946467Y-78480442D01*
X57946465Y-78480443D01*
X57776626Y-78531963D01*
X57600000Y-78549359D01*
X57423373Y-78531963D01*
X57253534Y-78480443D01*
X57097009Y-78396778D01*
X57061271Y-78367448D01*
X56959814Y-78284186D01*
X56847221Y-78146989D01*
X56763558Y-77990467D01*
X56763557Y-77990465D01*
X56712037Y-77820626D01*
X56699000Y-77688257D01*
X56699001Y-76599742D01*
X56712038Y-76467373D01*
X56763558Y-76297534D01*
X56847223Y-76141009D01*
X56884266Y-76095872D01*
X56959815Y-76003814D01*
X57061272Y-75920552D01*
X57097010Y-75891222D01*
X57253535Y-75807557D01*
X57423374Y-75756037D01*
X57600000Y-75738641D01*
X57776627Y-75756037D01*
X57776627Y-75756037D01*
G37*
G36*
X55851000Y-78320000D02*
G01*
X52049000Y-78320000D01*
X52049000Y-75968000D01*
X55851000Y-75968000D01*
X55851000Y-78320000D01*
X55851000Y-78320000D01*
G37*
G36*
X119103127Y-74817261D02*
G01*
X119123900Y-74819000D01*
X119130827Y-74819000D01*
X119225754Y-74837882D01*
X119229348Y-74838542D01*
X119324730Y-74854624D01*
X119331203Y-74857085D01*
X119351228Y-74862841D01*
X119358027Y-74864193D01*
X119405797Y-74883980D01*
X119447443Y-74901230D01*
X119450844Y-74902581D01*
X119541255Y-74936961D01*
X119547127Y-74940640D01*
X119565636Y-74950187D01*
X119572045Y-74952842D01*
X119652563Y-75006642D01*
X119655554Y-75008578D01*
X119737557Y-75059959D01*
X119742584Y-75064700D01*
X119758896Y-75077691D01*
X119764652Y-75081537D01*
X119833110Y-75149995D01*
X119835689Y-75152499D01*
X119906090Y-75218889D01*
X119910095Y-75224519D01*
X119923559Y-75240444D01*
X119928459Y-75245344D01*
X119982244Y-75325839D01*
X119984291Y-75328807D01*
X120040380Y-75407645D01*
X120043214Y-75413958D01*
X120053308Y-75432193D01*
X120057158Y-75437955D01*
X120094220Y-75527430D01*
X120095624Y-75530685D01*
X120135265Y-75618973D01*
X120136815Y-75625725D01*
X120143152Y-75645562D01*
X120145807Y-75651973D01*
X120161261Y-75729667D01*
X120164692Y-75746917D01*
X120165438Y-75750401D01*
X120187098Y-75844751D01*
X120187098Y-75844754D01*
X120187300Y-75851654D01*
X120189647Y-75872370D01*
X120191000Y-75879174D01*
X120191000Y-75975986D01*
X120191053Y-75979584D01*
X120192188Y-76018277D01*
X120191295Y-76031225D01*
X120191000Y-76039797D01*
X120191000Y-76110826D01*
X120184996Y-76141011D01*
X120184604Y-76142979D01*
X120182500Y-76158750D01*
X120144238Y-76713545D01*
X120115376Y-76884730D01*
X120033038Y-77101255D01*
X119910041Y-77297557D01*
X119751111Y-77466090D01*
X119562355Y-77600380D01*
X119351027Y-77695265D01*
X119125249Y-77747098D01*
X118893698Y-77753889D01*
X118893697Y-77753889D01*
X118848012Y-77746186D01*
X118665270Y-77715376D01*
X118448745Y-77633038D01*
X118252443Y-77510041D01*
X118083910Y-77351111D01*
X117949620Y-77162355D01*
X117854735Y-76951027D01*
X117802902Y-76725249D01*
X117797812Y-76551723D01*
X117838704Y-75958794D01*
X117839000Y-75950196D01*
X117839000Y-75879175D01*
X117839275Y-75877790D01*
X117857888Y-75784219D01*
X117858544Y-75780645D01*
X117860845Y-75767000D01*
X117874624Y-75685270D01*
X117877085Y-75678799D01*
X117882842Y-75658767D01*
X117884193Y-75651974D01*
X117886843Y-75645576D01*
X117921264Y-75562476D01*
X117922553Y-75559230D01*
X117956962Y-75468745D01*
X117960636Y-75462881D01*
X117970187Y-75444365D01*
X117972842Y-75437955D01*
X118026657Y-75357415D01*
X118028577Y-75354449D01*
X118079959Y-75272443D01*
X118084711Y-75267404D01*
X118097689Y-75251107D01*
X118101537Y-75245348D01*
X118169993Y-75176892D01*
X118172546Y-75174262D01*
X118193023Y-75152548D01*
X118238889Y-75103910D01*
X118244521Y-75099903D01*
X118260447Y-75086438D01*
X118265346Y-75081539D01*
X118345824Y-75027766D01*
X118348806Y-75025710D01*
X118427645Y-74969620D01*
X118433955Y-74966787D01*
X118452194Y-74956691D01*
X118457951Y-74952844D01*
X118457954Y-74952843D01*
X118457955Y-74952842D01*
X118547429Y-74915781D01*
X118550687Y-74914375D01*
X118638973Y-74874735D01*
X118645725Y-74873185D01*
X118665562Y-74866848D01*
X118671973Y-74864193D01*
X118758695Y-74846943D01*
X118766899Y-74845311D01*
X118770446Y-74844551D01*
X118864751Y-74822901D01*
X118867130Y-74822831D01*
X118871665Y-74822698D01*
X118892381Y-74820351D01*
X118899174Y-74819000D01*
X118995959Y-74819000D01*
X118999584Y-74818947D01*
X119096302Y-74816110D01*
X119103127Y-74817261D01*
X119103127Y-74817261D01*
G37*
G36*
X100005377Y-74800011D02*
G01*
X100026150Y-74801750D01*
X100033077Y-74801750D01*
X100128004Y-74820632D01*
X100131598Y-74821292D01*
X100226980Y-74837374D01*
X100233453Y-74839835D01*
X100253478Y-74845591D01*
X100260277Y-74846943D01*
X100308322Y-74866844D01*
X100349693Y-74883980D01*
X100353094Y-74885331D01*
X100443505Y-74919711D01*
X100449377Y-74923390D01*
X100467886Y-74932937D01*
X100474295Y-74935592D01*
X100554813Y-74989392D01*
X100557804Y-74991328D01*
X100639807Y-75042709D01*
X100644834Y-75047450D01*
X100661146Y-75060441D01*
X100666902Y-75064287D01*
X100735360Y-75132745D01*
X100737939Y-75135249D01*
X100808340Y-75201639D01*
X100812345Y-75207269D01*
X100825809Y-75223194D01*
X100830709Y-75228094D01*
X100884494Y-75308589D01*
X100886541Y-75311557D01*
X100942630Y-75390395D01*
X100945464Y-75396708D01*
X100955558Y-75414943D01*
X100959408Y-75420705D01*
X100996470Y-75510180D01*
X100997874Y-75513435D01*
X101037515Y-75601723D01*
X101039065Y-75608475D01*
X101045402Y-75628312D01*
X101048057Y-75634723D01*
X101066942Y-75729667D01*
X101067688Y-75733151D01*
X101089348Y-75827501D01*
X101089348Y-75827504D01*
X101089550Y-75834404D01*
X101091897Y-75855120D01*
X101093250Y-75861924D01*
X101093250Y-75958736D01*
X101093303Y-75962334D01*
X101094438Y-76001027D01*
X101093545Y-76013975D01*
X101093250Y-76022547D01*
X101093250Y-76093576D01*
X101087331Y-76123335D01*
X101086854Y-76125729D01*
X101084750Y-76141500D01*
X101046488Y-76696295D01*
X101017626Y-76867480D01*
X100935288Y-77084005D01*
X100812291Y-77280307D01*
X100653361Y-77448840D01*
X100464605Y-77583130D01*
X100253277Y-77678015D01*
X100027499Y-77729848D01*
X99795948Y-77736639D01*
X99795947Y-77736639D01*
X99750262Y-77728936D01*
X99567520Y-77698126D01*
X99350995Y-77615788D01*
X99154693Y-77492791D01*
X98986160Y-77333861D01*
X98851870Y-77145105D01*
X98756985Y-76933777D01*
X98705152Y-76707999D01*
X98700062Y-76534473D01*
X98740954Y-75941544D01*
X98741250Y-75932946D01*
X98741250Y-75861925D01*
X98743293Y-75851654D01*
X98760138Y-75766969D01*
X98760794Y-75763395D01*
X98762035Y-75756037D01*
X98776874Y-75668020D01*
X98779335Y-75661549D01*
X98785092Y-75641517D01*
X98786443Y-75634724D01*
X98792967Y-75618973D01*
X98823514Y-75545226D01*
X98824803Y-75541980D01*
X98859212Y-75451495D01*
X98862886Y-75445631D01*
X98872437Y-75427115D01*
X98875092Y-75420705D01*
X98928907Y-75340165D01*
X98930827Y-75337199D01*
X98982209Y-75255193D01*
X98986961Y-75250154D01*
X98999939Y-75233857D01*
X99003787Y-75228098D01*
X99072243Y-75159642D01*
X99074796Y-75157012D01*
X99079006Y-75152548D01*
X99141139Y-75086660D01*
X99146771Y-75082653D01*
X99162697Y-75069188D01*
X99167596Y-75064289D01*
X99248074Y-75010516D01*
X99251056Y-75008460D01*
X99329895Y-74952370D01*
X99336205Y-74949537D01*
X99354444Y-74939441D01*
X99360201Y-74935594D01*
X99360204Y-74935593D01*
X99360205Y-74935592D01*
X99449679Y-74898531D01*
X99452937Y-74897125D01*
X99541223Y-74857485D01*
X99547975Y-74855935D01*
X99567812Y-74849598D01*
X99574223Y-74846943D01*
X99669149Y-74828061D01*
X99672696Y-74827301D01*
X99767001Y-74805651D01*
X99769380Y-74805581D01*
X99773915Y-74805448D01*
X99794631Y-74803101D01*
X99801424Y-74801750D01*
X99898209Y-74801750D01*
X99901834Y-74801697D01*
X99998552Y-74798860D01*
X100005377Y-74800011D01*
X100005377Y-74800011D01*
G37*
G36*
X57776627Y-71256037D02*
G01*
X57946466Y-71307557D01*
X58102991Y-71391222D01*
X58138729Y-71420552D01*
X58240186Y-71503814D01*
X58323448Y-71605271D01*
X58352778Y-71641009D01*
X58436443Y-71797534D01*
X58487963Y-71967373D01*
X58501000Y-72099742D01*
X58501000Y-73188258D01*
X58487963Y-73320627D01*
X58436443Y-73490466D01*
X58352778Y-73646991D01*
X58323448Y-73682729D01*
X58240186Y-73784186D01*
X58102989Y-73896779D01*
X57946467Y-73980442D01*
X57946465Y-73980443D01*
X57776626Y-74031963D01*
X57600000Y-74049359D01*
X57423373Y-74031963D01*
X57253534Y-73980443D01*
X57097009Y-73896778D01*
X57061271Y-73867448D01*
X56959814Y-73784186D01*
X56847221Y-73646989D01*
X56763558Y-73490467D01*
X56763557Y-73490465D01*
X56712037Y-73320626D01*
X56699000Y-73188257D01*
X56699001Y-72099742D01*
X56712038Y-71967373D01*
X56763558Y-71797534D01*
X56847223Y-71641009D01*
X56876553Y-71605271D01*
X56959815Y-71503814D01*
X57061272Y-71420552D01*
X57097010Y-71391222D01*
X57253535Y-71307557D01*
X57423374Y-71256037D01*
X57600000Y-71238641D01*
X57776627Y-71256037D01*
X57776627Y-71256037D01*
G37*
G36*
X50476627Y-71256037D02*
G01*
X50646466Y-71307557D01*
X50802991Y-71391222D01*
X50838729Y-71420552D01*
X50940186Y-71503814D01*
X51023448Y-71605271D01*
X51052778Y-71641009D01*
X51136443Y-71797534D01*
X51187963Y-71967373D01*
X51201000Y-72099742D01*
X51201000Y-73188258D01*
X51187963Y-73320627D01*
X51136443Y-73490466D01*
X51052778Y-73646991D01*
X51023448Y-73682729D01*
X50940186Y-73784186D01*
X50802989Y-73896779D01*
X50646467Y-73980442D01*
X50646465Y-73980443D01*
X50476626Y-74031963D01*
X50300000Y-74049359D01*
X50123373Y-74031963D01*
X49953534Y-73980443D01*
X49797009Y-73896778D01*
X49761271Y-73867448D01*
X49659814Y-73784186D01*
X49547221Y-73646989D01*
X49463558Y-73490467D01*
X49463557Y-73490465D01*
X49412037Y-73320626D01*
X49399000Y-73188257D01*
X49399001Y-72099742D01*
X49412038Y-71967373D01*
X49463558Y-71797534D01*
X49547223Y-71641009D01*
X49576553Y-71605271D01*
X49659815Y-71503814D01*
X49761272Y-71420552D01*
X49797010Y-71391222D01*
X49953535Y-71307557D01*
X50123374Y-71256037D01*
X50300000Y-71238641D01*
X50476627Y-71256037D01*
X50476627Y-71256037D01*
G37*
M02*
