G04 #@! TF.GenerationSoftware,KiCad,Pcbnew,(5.1.2)-1*
G04 #@! TF.CreationDate,2019-05-27T11:12:31-07:00*
G04 #@! TF.ProjectId,Aidan PCB,41696461-6e20-4504-9342-2e6b69636164,rev?*
G04 #@! TF.SameCoordinates,Original*
G04 #@! TF.FileFunction,Legend,Bot*
G04 #@! TF.FilePolarity,Positive*
%FSLAX46Y46*%
G04 Gerber Fmt 4.6, Leading zero omitted, Abs format (unit mm)*
G04 Created by KiCad (PCBNEW (5.1.2)-1) date 2019-05-27 11:12:31*
%MOMM*%
%LPD*%
G04 APERTURE LIST*
%ADD10C,0.120000*%
%ADD11C,0.150000*%
%ADD12C,2.352000*%
%ADD13C,2.352000*%
%ADD14C,4.089800*%
%ADD15C,2.007000*%
%ADD16R,2.007000X2.007000*%
%ADD17C,1.852000*%
%ADD18C,0.100000*%
%ADD19C,1.077000*%
%ADD20R,1.302000X1.002000*%
%ADD21C,1.352000*%
%ADD22R,1.902000X1.202000*%
%ADD23R,1.602000X0.652000*%
%ADD24R,0.652000X1.602000*%
%ADD25R,0.602000X2.352000*%
%ADD26O,1.802000X2.802000*%
%ADD27R,1.502000X1.302000*%
G04 APERTURE END LIST*
D10*
X66010000Y-81466422D02*
X66010000Y-81983578D01*
X64590000Y-81466422D02*
X64590000Y-81983578D01*
X64315000Y-99378922D02*
X64315000Y-99896078D01*
X65735000Y-99378922D02*
X65735000Y-99896078D01*
X79265000Y-79496078D02*
X79265000Y-78978922D01*
X80685000Y-79496078D02*
X80685000Y-78978922D01*
X71665000Y-78978922D02*
X71665000Y-79496078D01*
X73085000Y-78978922D02*
X73085000Y-79496078D01*
X86260000Y-89608578D02*
X86260000Y-89091422D01*
X84840000Y-89608578D02*
X84840000Y-89091422D01*
X65321078Y-90565000D02*
X64803922Y-90565000D01*
X65321078Y-91985000D02*
X64803922Y-91985000D01*
X82321078Y-103535000D02*
X81803922Y-103535000D01*
X82321078Y-102115000D02*
X81803922Y-102115000D01*
X106410000Y-83784000D02*
X104410000Y-83784000D01*
X104410000Y-83784000D02*
X104410000Y-79884000D01*
X106410000Y-83784000D02*
X106410000Y-79884000D01*
X125460000Y-83530000D02*
X125460000Y-79630000D01*
X123460000Y-83530000D02*
X123460000Y-79630000D01*
X125460000Y-83530000D02*
X123460000Y-83530000D01*
X104410000Y-97318000D02*
X106410000Y-97318000D01*
X106410000Y-97318000D02*
X106410000Y-101218000D01*
X104410000Y-97318000D02*
X104410000Y-101218000D01*
X123460000Y-97826000D02*
X123460000Y-101726000D01*
X125460000Y-97826000D02*
X125460000Y-101726000D01*
X123460000Y-97826000D02*
X125460000Y-97826000D01*
X48040000Y-91292064D02*
X48040000Y-90087936D01*
X46220000Y-91292064D02*
X46220000Y-90087936D01*
X51290000Y-85046078D02*
X51290000Y-84528922D01*
X52710000Y-85046078D02*
X52710000Y-84528922D01*
X55760000Y-85158578D02*
X55760000Y-84641422D01*
X54340000Y-85158578D02*
X54340000Y-84641422D01*
X62710000Y-81453922D02*
X62710000Y-81971078D01*
X61290000Y-81453922D02*
X61290000Y-81971078D01*
X86910000Y-99646078D02*
X86910000Y-99128922D01*
X85490000Y-99646078D02*
X85490000Y-99128922D01*
D11*
X54500000Y-101225000D02*
G75*
G03X54500000Y-101225000I-1000000J0D01*
G01*
X56100000Y-103825000D02*
X56100000Y-98625000D01*
X50900000Y-103825000D02*
X56100000Y-103825000D01*
X50900000Y-98625000D02*
X50900000Y-103825000D01*
X56100000Y-98625000D02*
X50900000Y-98625000D01*
X71149000Y-98531500D02*
X71149000Y-97956500D01*
X81499000Y-98531500D02*
X81499000Y-97856500D01*
X81499000Y-88181500D02*
X81499000Y-88856500D01*
X71149000Y-88181500D02*
X71149000Y-88856500D01*
X71149000Y-98531500D02*
X71824000Y-98531500D01*
X71149000Y-88181500D02*
X71824000Y-88181500D01*
X81499000Y-88181500D02*
X80824000Y-88181500D01*
X81499000Y-98531500D02*
X80824000Y-98531500D01*
X71149000Y-97956500D02*
X69874000Y-97956500D01*
X50100000Y-78094000D02*
X57800000Y-78094000D01*
X57800000Y-72644000D02*
X57800000Y-78094000D01*
X50100000Y-72644000D02*
X50100000Y-78094000D01*
D10*
X78042000Y-77764000D02*
X78042000Y-81064000D01*
X78042000Y-81064000D02*
X74042000Y-81064000D01*
D11*
X64007142Y-81558333D02*
X64054761Y-81510714D01*
X64102380Y-81367857D01*
X64102380Y-81272619D01*
X64054761Y-81129761D01*
X63959523Y-81034523D01*
X63864285Y-80986904D01*
X63673809Y-80939285D01*
X63530952Y-80939285D01*
X63340476Y-80986904D01*
X63245238Y-81034523D01*
X63150000Y-81129761D01*
X63102380Y-81272619D01*
X63102380Y-81367857D01*
X63150000Y-81510714D01*
X63197619Y-81558333D01*
X63197619Y-81939285D02*
X63150000Y-81986904D01*
X63102380Y-82082142D01*
X63102380Y-82320238D01*
X63150000Y-82415476D01*
X63197619Y-82463095D01*
X63292857Y-82510714D01*
X63388095Y-82510714D01*
X63530952Y-82463095D01*
X64102380Y-81891666D01*
X64102380Y-82510714D01*
X63732142Y-99470833D02*
X63779761Y-99423214D01*
X63827380Y-99280357D01*
X63827380Y-99185119D01*
X63779761Y-99042261D01*
X63684523Y-98947023D01*
X63589285Y-98899404D01*
X63398809Y-98851785D01*
X63255952Y-98851785D01*
X63065476Y-98899404D01*
X62970238Y-98947023D01*
X62875000Y-99042261D01*
X62827380Y-99185119D01*
X62827380Y-99280357D01*
X62875000Y-99423214D01*
X62922619Y-99470833D01*
X63827380Y-100423214D02*
X63827380Y-99851785D01*
X63827380Y-100137500D02*
X62827380Y-100137500D01*
X62970238Y-100042261D01*
X63065476Y-99947023D01*
X63113095Y-99851785D01*
X81982142Y-79070833D02*
X82029761Y-79023214D01*
X82077380Y-78880357D01*
X82077380Y-78785119D01*
X82029761Y-78642261D01*
X81934523Y-78547023D01*
X81839285Y-78499404D01*
X81648809Y-78451785D01*
X81505952Y-78451785D01*
X81315476Y-78499404D01*
X81220238Y-78547023D01*
X81125000Y-78642261D01*
X81077380Y-78785119D01*
X81077380Y-78880357D01*
X81125000Y-79023214D01*
X81172619Y-79070833D01*
X81077380Y-79404166D02*
X81077380Y-80023214D01*
X81458333Y-79689880D01*
X81458333Y-79832738D01*
X81505952Y-79927976D01*
X81553571Y-79975595D01*
X81648809Y-80023214D01*
X81886904Y-80023214D01*
X81982142Y-79975595D01*
X82029761Y-79927976D01*
X82077380Y-79832738D01*
X82077380Y-79547023D01*
X82029761Y-79451785D01*
X81982142Y-79404166D01*
X71082142Y-79070833D02*
X71129761Y-79023214D01*
X71177380Y-78880357D01*
X71177380Y-78785119D01*
X71129761Y-78642261D01*
X71034523Y-78547023D01*
X70939285Y-78499404D01*
X70748809Y-78451785D01*
X70605952Y-78451785D01*
X70415476Y-78499404D01*
X70320238Y-78547023D01*
X70225000Y-78642261D01*
X70177380Y-78785119D01*
X70177380Y-78880357D01*
X70225000Y-79023214D01*
X70272619Y-79070833D01*
X70510714Y-79927976D02*
X71177380Y-79927976D01*
X70129761Y-79689880D02*
X70844047Y-79451785D01*
X70844047Y-80070833D01*
X87557142Y-89183333D02*
X87604761Y-89135714D01*
X87652380Y-88992857D01*
X87652380Y-88897619D01*
X87604761Y-88754761D01*
X87509523Y-88659523D01*
X87414285Y-88611904D01*
X87223809Y-88564285D01*
X87080952Y-88564285D01*
X86890476Y-88611904D01*
X86795238Y-88659523D01*
X86700000Y-88754761D01*
X86652380Y-88897619D01*
X86652380Y-88992857D01*
X86700000Y-89135714D01*
X86747619Y-89183333D01*
X86652380Y-90088095D02*
X86652380Y-89611904D01*
X87128571Y-89564285D01*
X87080952Y-89611904D01*
X87033333Y-89707142D01*
X87033333Y-89945238D01*
X87080952Y-90040476D01*
X87128571Y-90088095D01*
X87223809Y-90135714D01*
X87461904Y-90135714D01*
X87557142Y-90088095D01*
X87604761Y-90040476D01*
X87652380Y-89945238D01*
X87652380Y-89707142D01*
X87604761Y-89611904D01*
X87557142Y-89564285D01*
X65229166Y-89982142D02*
X65276785Y-90029761D01*
X65419642Y-90077380D01*
X65514880Y-90077380D01*
X65657738Y-90029761D01*
X65752976Y-89934523D01*
X65800595Y-89839285D01*
X65848214Y-89648809D01*
X65848214Y-89505952D01*
X65800595Y-89315476D01*
X65752976Y-89220238D01*
X65657738Y-89125000D01*
X65514880Y-89077380D01*
X65419642Y-89077380D01*
X65276785Y-89125000D01*
X65229166Y-89172619D01*
X64372023Y-89077380D02*
X64562500Y-89077380D01*
X64657738Y-89125000D01*
X64705357Y-89172619D01*
X64800595Y-89315476D01*
X64848214Y-89505952D01*
X64848214Y-89886904D01*
X64800595Y-89982142D01*
X64752976Y-90029761D01*
X64657738Y-90077380D01*
X64467261Y-90077380D01*
X64372023Y-90029761D01*
X64324404Y-89982142D01*
X64276785Y-89886904D01*
X64276785Y-89648809D01*
X64324404Y-89553571D01*
X64372023Y-89505952D01*
X64467261Y-89458333D01*
X64657738Y-89458333D01*
X64752976Y-89505952D01*
X64800595Y-89553571D01*
X64848214Y-89648809D01*
X82229166Y-101532142D02*
X82276785Y-101579761D01*
X82419642Y-101627380D01*
X82514880Y-101627380D01*
X82657738Y-101579761D01*
X82752976Y-101484523D01*
X82800595Y-101389285D01*
X82848214Y-101198809D01*
X82848214Y-101055952D01*
X82800595Y-100865476D01*
X82752976Y-100770238D01*
X82657738Y-100675000D01*
X82514880Y-100627380D01*
X82419642Y-100627380D01*
X82276785Y-100675000D01*
X82229166Y-100722619D01*
X81895833Y-100627380D02*
X81229166Y-100627380D01*
X81657738Y-101627380D01*
X107862380Y-80795904D02*
X106862380Y-80795904D01*
X106862380Y-81034000D01*
X106910000Y-81176857D01*
X107005238Y-81272095D01*
X107100476Y-81319714D01*
X107290952Y-81367333D01*
X107433809Y-81367333D01*
X107624285Y-81319714D01*
X107719523Y-81272095D01*
X107814761Y-81176857D01*
X107862380Y-81034000D01*
X107862380Y-80795904D01*
X107862380Y-82319714D02*
X107862380Y-81748285D01*
X107862380Y-82034000D02*
X106862380Y-82034000D01*
X107005238Y-81938761D01*
X107100476Y-81843523D01*
X107148095Y-81748285D01*
X126912380Y-80541904D02*
X125912380Y-80541904D01*
X125912380Y-80780000D01*
X125960000Y-80922857D01*
X126055238Y-81018095D01*
X126150476Y-81065714D01*
X126340952Y-81113333D01*
X126483809Y-81113333D01*
X126674285Y-81065714D01*
X126769523Y-81018095D01*
X126864761Y-80922857D01*
X126912380Y-80780000D01*
X126912380Y-80541904D01*
X126007619Y-81494285D02*
X125960000Y-81541904D01*
X125912380Y-81637142D01*
X125912380Y-81875238D01*
X125960000Y-81970476D01*
X126007619Y-82018095D01*
X126102857Y-82065714D01*
X126198095Y-82065714D01*
X126340952Y-82018095D01*
X126912380Y-81446666D01*
X126912380Y-82065714D01*
X103862380Y-98829904D02*
X102862380Y-98829904D01*
X102862380Y-99068000D01*
X102910000Y-99210857D01*
X103005238Y-99306095D01*
X103100476Y-99353714D01*
X103290952Y-99401333D01*
X103433809Y-99401333D01*
X103624285Y-99353714D01*
X103719523Y-99306095D01*
X103814761Y-99210857D01*
X103862380Y-99068000D01*
X103862380Y-98829904D01*
X102862380Y-99734666D02*
X102862380Y-100353714D01*
X103243333Y-100020380D01*
X103243333Y-100163238D01*
X103290952Y-100258476D01*
X103338571Y-100306095D01*
X103433809Y-100353714D01*
X103671904Y-100353714D01*
X103767142Y-100306095D01*
X103814761Y-100258476D01*
X103862380Y-100163238D01*
X103862380Y-99877523D01*
X103814761Y-99782285D01*
X103767142Y-99734666D01*
X122912380Y-99337904D02*
X121912380Y-99337904D01*
X121912380Y-99576000D01*
X121960000Y-99718857D01*
X122055238Y-99814095D01*
X122150476Y-99861714D01*
X122340952Y-99909333D01*
X122483809Y-99909333D01*
X122674285Y-99861714D01*
X122769523Y-99814095D01*
X122864761Y-99718857D01*
X122912380Y-99576000D01*
X122912380Y-99337904D01*
X122245714Y-100766476D02*
X122912380Y-100766476D01*
X121864761Y-100528380D02*
X122579047Y-100290285D01*
X122579047Y-100909333D01*
X48878571Y-90356666D02*
X48878571Y-90023333D01*
X49402380Y-90023333D02*
X48402380Y-90023333D01*
X48402380Y-90499523D01*
X49402380Y-91404285D02*
X49402380Y-90832857D01*
X49402380Y-91118571D02*
X48402380Y-91118571D01*
X48545238Y-91023333D01*
X48640476Y-90928095D01*
X48688095Y-90832857D01*
X54102380Y-84620833D02*
X53626190Y-84287500D01*
X54102380Y-84049404D02*
X53102380Y-84049404D01*
X53102380Y-84430357D01*
X53150000Y-84525595D01*
X53197619Y-84573214D01*
X53292857Y-84620833D01*
X53435714Y-84620833D01*
X53530952Y-84573214D01*
X53578571Y-84525595D01*
X53626190Y-84430357D01*
X53626190Y-84049404D01*
X54102380Y-85573214D02*
X54102380Y-85001785D01*
X54102380Y-85287500D02*
X53102380Y-85287500D01*
X53245238Y-85192261D01*
X53340476Y-85097023D01*
X53388095Y-85001785D01*
X57152380Y-84733333D02*
X56676190Y-84400000D01*
X57152380Y-84161904D02*
X56152380Y-84161904D01*
X56152380Y-84542857D01*
X56200000Y-84638095D01*
X56247619Y-84685714D01*
X56342857Y-84733333D01*
X56485714Y-84733333D01*
X56580952Y-84685714D01*
X56628571Y-84638095D01*
X56676190Y-84542857D01*
X56676190Y-84161904D01*
X56247619Y-85114285D02*
X56200000Y-85161904D01*
X56152380Y-85257142D01*
X56152380Y-85495238D01*
X56200000Y-85590476D01*
X56247619Y-85638095D01*
X56342857Y-85685714D01*
X56438095Y-85685714D01*
X56580952Y-85638095D01*
X57152380Y-85066666D01*
X57152380Y-85685714D01*
X60802380Y-81545833D02*
X60326190Y-81212500D01*
X60802380Y-80974404D02*
X59802380Y-80974404D01*
X59802380Y-81355357D01*
X59850000Y-81450595D01*
X59897619Y-81498214D01*
X59992857Y-81545833D01*
X60135714Y-81545833D01*
X60230952Y-81498214D01*
X60278571Y-81450595D01*
X60326190Y-81355357D01*
X60326190Y-80974404D01*
X59802380Y-81879166D02*
X59802380Y-82498214D01*
X60183333Y-82164880D01*
X60183333Y-82307738D01*
X60230952Y-82402976D01*
X60278571Y-82450595D01*
X60373809Y-82498214D01*
X60611904Y-82498214D01*
X60707142Y-82450595D01*
X60754761Y-82402976D01*
X60802380Y-82307738D01*
X60802380Y-82022023D01*
X60754761Y-81926785D01*
X60707142Y-81879166D01*
X88302380Y-99220833D02*
X87826190Y-98887500D01*
X88302380Y-98649404D02*
X87302380Y-98649404D01*
X87302380Y-99030357D01*
X87350000Y-99125595D01*
X87397619Y-99173214D01*
X87492857Y-99220833D01*
X87635714Y-99220833D01*
X87730952Y-99173214D01*
X87778571Y-99125595D01*
X87826190Y-99030357D01*
X87826190Y-98649404D01*
X87635714Y-100077976D02*
X88302380Y-100077976D01*
X87254761Y-99839880D02*
X87969047Y-99601785D01*
X87969047Y-100220833D01*
X54833333Y-105693761D02*
X54690476Y-105741380D01*
X54452380Y-105741380D01*
X54357142Y-105693761D01*
X54309523Y-105646142D01*
X54261904Y-105550904D01*
X54261904Y-105455666D01*
X54309523Y-105360428D01*
X54357142Y-105312809D01*
X54452380Y-105265190D01*
X54642857Y-105217571D01*
X54738095Y-105169952D01*
X54785714Y-105122333D01*
X54833333Y-105027095D01*
X54833333Y-104931857D01*
X54785714Y-104836619D01*
X54738095Y-104789000D01*
X54642857Y-104741380D01*
X54404761Y-104741380D01*
X54261904Y-104789000D01*
X53928571Y-104741380D02*
X53690476Y-105741380D01*
X53500000Y-105027095D01*
X53309523Y-105741380D01*
X53071428Y-104741380D01*
X52166666Y-105741380D02*
X52738095Y-105741380D01*
X52452380Y-105741380D02*
X52452380Y-104741380D01*
X52547619Y-104884238D01*
X52642857Y-104979476D01*
X52738095Y-105027095D01*
X77085904Y-100258880D02*
X77085904Y-101068404D01*
X77038285Y-101163642D01*
X76990666Y-101211261D01*
X76895428Y-101258880D01*
X76704952Y-101258880D01*
X76609714Y-101211261D01*
X76562095Y-101163642D01*
X76514476Y-101068404D01*
X76514476Y-100258880D01*
X75514476Y-101258880D02*
X76085904Y-101258880D01*
X75800190Y-101258880D02*
X75800190Y-100258880D01*
X75895428Y-100401738D01*
X75990666Y-100496976D01*
X76085904Y-100544595D01*
X55688095Y-74128380D02*
X55688095Y-74937904D01*
X55640476Y-75033142D01*
X55592857Y-75080761D01*
X55497619Y-75128380D01*
X55307142Y-75128380D01*
X55211904Y-75080761D01*
X55164285Y-75033142D01*
X55116666Y-74937904D01*
X55116666Y-74128380D01*
X54688095Y-75080761D02*
X54545238Y-75128380D01*
X54307142Y-75128380D01*
X54211904Y-75080761D01*
X54164285Y-75033142D01*
X54116666Y-74937904D01*
X54116666Y-74842666D01*
X54164285Y-74747428D01*
X54211904Y-74699809D01*
X54307142Y-74652190D01*
X54497619Y-74604571D01*
X54592857Y-74556952D01*
X54640476Y-74509333D01*
X54688095Y-74414095D01*
X54688095Y-74318857D01*
X54640476Y-74223619D01*
X54592857Y-74176000D01*
X54497619Y-74128380D01*
X54259523Y-74128380D01*
X54116666Y-74176000D01*
X53354761Y-74604571D02*
X53211904Y-74652190D01*
X53164285Y-74699809D01*
X53116666Y-74795047D01*
X53116666Y-74937904D01*
X53164285Y-75033142D01*
X53211904Y-75080761D01*
X53307142Y-75128380D01*
X53688095Y-75128380D01*
X53688095Y-74128380D01*
X53354761Y-74128380D01*
X53259523Y-74176000D01*
X53211904Y-74223619D01*
X53164285Y-74318857D01*
X53164285Y-74414095D01*
X53211904Y-74509333D01*
X53259523Y-74556952D01*
X53354761Y-74604571D01*
X53688095Y-74604571D01*
X52164285Y-75128380D02*
X52735714Y-75128380D01*
X52450000Y-75128380D02*
X52450000Y-74128380D01*
X52545238Y-74271238D01*
X52640476Y-74366476D01*
X52735714Y-74414095D01*
X76518190Y-76940190D02*
X76518190Y-77416380D01*
X76851523Y-76416380D02*
X76518190Y-76940190D01*
X76184857Y-76416380D01*
X75327714Y-77416380D02*
X75899142Y-77416380D01*
X75613428Y-77416380D02*
X75613428Y-76416380D01*
X75708666Y-76559238D01*
X75803904Y-76654476D01*
X75899142Y-76702095D01*
%LPC*%
D12*
X119020000Y-95400000D03*
D13*
X119000000Y-95690000D02*
X119040000Y-95110000D01*
D12*
X119040000Y-95110000D03*
X113345001Y-96920000D03*
D13*
X112690000Y-97650000D02*
X114000002Y-96190000D01*
D14*
X116500000Y-100190000D03*
D12*
X114000000Y-96190000D03*
D15*
X115230000Y-105270000D03*
D16*
X117770000Y-105270000D03*
D17*
X111420000Y-100190000D03*
X121580000Y-100190000D03*
D18*
G36*
X65808141Y-82125297D02*
G01*
X65834278Y-82129174D01*
X65859909Y-82135594D01*
X65884788Y-82144495D01*
X65908674Y-82155793D01*
X65931337Y-82169377D01*
X65952560Y-82185117D01*
X65972139Y-82202861D01*
X65989883Y-82222440D01*
X66005623Y-82243663D01*
X66019207Y-82266326D01*
X66030505Y-82290212D01*
X66039406Y-82315091D01*
X66045826Y-82340722D01*
X66049703Y-82366859D01*
X66051000Y-82393250D01*
X66051000Y-82931750D01*
X66049703Y-82958141D01*
X66045826Y-82984278D01*
X66039406Y-83009909D01*
X66030505Y-83034788D01*
X66019207Y-83058674D01*
X66005623Y-83081337D01*
X65989883Y-83102560D01*
X65972139Y-83122139D01*
X65952560Y-83139883D01*
X65931337Y-83155623D01*
X65908674Y-83169207D01*
X65884788Y-83180505D01*
X65859909Y-83189406D01*
X65834278Y-83195826D01*
X65808141Y-83199703D01*
X65781750Y-83201000D01*
X64818250Y-83201000D01*
X64791859Y-83199703D01*
X64765722Y-83195826D01*
X64740091Y-83189406D01*
X64715212Y-83180505D01*
X64691326Y-83169207D01*
X64668663Y-83155623D01*
X64647440Y-83139883D01*
X64627861Y-83122139D01*
X64610117Y-83102560D01*
X64594377Y-83081337D01*
X64580793Y-83058674D01*
X64569495Y-83034788D01*
X64560594Y-83009909D01*
X64554174Y-82984278D01*
X64550297Y-82958141D01*
X64549000Y-82931750D01*
X64549000Y-82393250D01*
X64550297Y-82366859D01*
X64554174Y-82340722D01*
X64560594Y-82315091D01*
X64569495Y-82290212D01*
X64580793Y-82266326D01*
X64594377Y-82243663D01*
X64610117Y-82222440D01*
X64627861Y-82202861D01*
X64647440Y-82185117D01*
X64668663Y-82169377D01*
X64691326Y-82155793D01*
X64715212Y-82144495D01*
X64740091Y-82135594D01*
X64765722Y-82129174D01*
X64791859Y-82125297D01*
X64818250Y-82124000D01*
X65781750Y-82124000D01*
X65808141Y-82125297D01*
X65808141Y-82125297D01*
G37*
D19*
X65300000Y-82662500D03*
D18*
G36*
X65808141Y-80250297D02*
G01*
X65834278Y-80254174D01*
X65859909Y-80260594D01*
X65884788Y-80269495D01*
X65908674Y-80280793D01*
X65931337Y-80294377D01*
X65952560Y-80310117D01*
X65972139Y-80327861D01*
X65989883Y-80347440D01*
X66005623Y-80368663D01*
X66019207Y-80391326D01*
X66030505Y-80415212D01*
X66039406Y-80440091D01*
X66045826Y-80465722D01*
X66049703Y-80491859D01*
X66051000Y-80518250D01*
X66051000Y-81056750D01*
X66049703Y-81083141D01*
X66045826Y-81109278D01*
X66039406Y-81134909D01*
X66030505Y-81159788D01*
X66019207Y-81183674D01*
X66005623Y-81206337D01*
X65989883Y-81227560D01*
X65972139Y-81247139D01*
X65952560Y-81264883D01*
X65931337Y-81280623D01*
X65908674Y-81294207D01*
X65884788Y-81305505D01*
X65859909Y-81314406D01*
X65834278Y-81320826D01*
X65808141Y-81324703D01*
X65781750Y-81326000D01*
X64818250Y-81326000D01*
X64791859Y-81324703D01*
X64765722Y-81320826D01*
X64740091Y-81314406D01*
X64715212Y-81305505D01*
X64691326Y-81294207D01*
X64668663Y-81280623D01*
X64647440Y-81264883D01*
X64627861Y-81247139D01*
X64610117Y-81227560D01*
X64594377Y-81206337D01*
X64580793Y-81183674D01*
X64569495Y-81159788D01*
X64560594Y-81134909D01*
X64554174Y-81109278D01*
X64550297Y-81083141D01*
X64549000Y-81056750D01*
X64549000Y-80518250D01*
X64550297Y-80491859D01*
X64554174Y-80465722D01*
X64560594Y-80440091D01*
X64569495Y-80415212D01*
X64580793Y-80391326D01*
X64594377Y-80368663D01*
X64610117Y-80347440D01*
X64627861Y-80327861D01*
X64647440Y-80310117D01*
X64668663Y-80294377D01*
X64691326Y-80280793D01*
X64715212Y-80269495D01*
X64740091Y-80260594D01*
X64765722Y-80254174D01*
X64791859Y-80250297D01*
X64818250Y-80249000D01*
X65781750Y-80249000D01*
X65808141Y-80250297D01*
X65808141Y-80250297D01*
G37*
D19*
X65300000Y-80787500D03*
D18*
G36*
X65533141Y-98162797D02*
G01*
X65559278Y-98166674D01*
X65584909Y-98173094D01*
X65609788Y-98181995D01*
X65633674Y-98193293D01*
X65656337Y-98206877D01*
X65677560Y-98222617D01*
X65697139Y-98240361D01*
X65714883Y-98259940D01*
X65730623Y-98281163D01*
X65744207Y-98303826D01*
X65755505Y-98327712D01*
X65764406Y-98352591D01*
X65770826Y-98378222D01*
X65774703Y-98404359D01*
X65776000Y-98430750D01*
X65776000Y-98969250D01*
X65774703Y-98995641D01*
X65770826Y-99021778D01*
X65764406Y-99047409D01*
X65755505Y-99072288D01*
X65744207Y-99096174D01*
X65730623Y-99118837D01*
X65714883Y-99140060D01*
X65697139Y-99159639D01*
X65677560Y-99177383D01*
X65656337Y-99193123D01*
X65633674Y-99206707D01*
X65609788Y-99218005D01*
X65584909Y-99226906D01*
X65559278Y-99233326D01*
X65533141Y-99237203D01*
X65506750Y-99238500D01*
X64543250Y-99238500D01*
X64516859Y-99237203D01*
X64490722Y-99233326D01*
X64465091Y-99226906D01*
X64440212Y-99218005D01*
X64416326Y-99206707D01*
X64393663Y-99193123D01*
X64372440Y-99177383D01*
X64352861Y-99159639D01*
X64335117Y-99140060D01*
X64319377Y-99118837D01*
X64305793Y-99096174D01*
X64294495Y-99072288D01*
X64285594Y-99047409D01*
X64279174Y-99021778D01*
X64275297Y-98995641D01*
X64274000Y-98969250D01*
X64274000Y-98430750D01*
X64275297Y-98404359D01*
X64279174Y-98378222D01*
X64285594Y-98352591D01*
X64294495Y-98327712D01*
X64305793Y-98303826D01*
X64319377Y-98281163D01*
X64335117Y-98259940D01*
X64352861Y-98240361D01*
X64372440Y-98222617D01*
X64393663Y-98206877D01*
X64416326Y-98193293D01*
X64440212Y-98181995D01*
X64465091Y-98173094D01*
X64490722Y-98166674D01*
X64516859Y-98162797D01*
X64543250Y-98161500D01*
X65506750Y-98161500D01*
X65533141Y-98162797D01*
X65533141Y-98162797D01*
G37*
D19*
X65025000Y-98700000D03*
D18*
G36*
X65533141Y-100037797D02*
G01*
X65559278Y-100041674D01*
X65584909Y-100048094D01*
X65609788Y-100056995D01*
X65633674Y-100068293D01*
X65656337Y-100081877D01*
X65677560Y-100097617D01*
X65697139Y-100115361D01*
X65714883Y-100134940D01*
X65730623Y-100156163D01*
X65744207Y-100178826D01*
X65755505Y-100202712D01*
X65764406Y-100227591D01*
X65770826Y-100253222D01*
X65774703Y-100279359D01*
X65776000Y-100305750D01*
X65776000Y-100844250D01*
X65774703Y-100870641D01*
X65770826Y-100896778D01*
X65764406Y-100922409D01*
X65755505Y-100947288D01*
X65744207Y-100971174D01*
X65730623Y-100993837D01*
X65714883Y-101015060D01*
X65697139Y-101034639D01*
X65677560Y-101052383D01*
X65656337Y-101068123D01*
X65633674Y-101081707D01*
X65609788Y-101093005D01*
X65584909Y-101101906D01*
X65559278Y-101108326D01*
X65533141Y-101112203D01*
X65506750Y-101113500D01*
X64543250Y-101113500D01*
X64516859Y-101112203D01*
X64490722Y-101108326D01*
X64465091Y-101101906D01*
X64440212Y-101093005D01*
X64416326Y-101081707D01*
X64393663Y-101068123D01*
X64372440Y-101052383D01*
X64352861Y-101034639D01*
X64335117Y-101015060D01*
X64319377Y-100993837D01*
X64305793Y-100971174D01*
X64294495Y-100947288D01*
X64285594Y-100922409D01*
X64279174Y-100896778D01*
X64275297Y-100870641D01*
X64274000Y-100844250D01*
X64274000Y-100305750D01*
X64275297Y-100279359D01*
X64279174Y-100253222D01*
X64285594Y-100227591D01*
X64294495Y-100202712D01*
X64305793Y-100178826D01*
X64319377Y-100156163D01*
X64335117Y-100134940D01*
X64352861Y-100115361D01*
X64372440Y-100097617D01*
X64393663Y-100081877D01*
X64416326Y-100068293D01*
X64440212Y-100056995D01*
X64465091Y-100048094D01*
X64490722Y-100041674D01*
X64516859Y-100037797D01*
X64543250Y-100036500D01*
X65506750Y-100036500D01*
X65533141Y-100037797D01*
X65533141Y-100037797D01*
G37*
D19*
X65025000Y-100575000D03*
D18*
G36*
X80483141Y-77762797D02*
G01*
X80509278Y-77766674D01*
X80534909Y-77773094D01*
X80559788Y-77781995D01*
X80583674Y-77793293D01*
X80606337Y-77806877D01*
X80627560Y-77822617D01*
X80647139Y-77840361D01*
X80664883Y-77859940D01*
X80680623Y-77881163D01*
X80694207Y-77903826D01*
X80705505Y-77927712D01*
X80714406Y-77952591D01*
X80720826Y-77978222D01*
X80724703Y-78004359D01*
X80726000Y-78030750D01*
X80726000Y-78569250D01*
X80724703Y-78595641D01*
X80720826Y-78621778D01*
X80714406Y-78647409D01*
X80705505Y-78672288D01*
X80694207Y-78696174D01*
X80680623Y-78718837D01*
X80664883Y-78740060D01*
X80647139Y-78759639D01*
X80627560Y-78777383D01*
X80606337Y-78793123D01*
X80583674Y-78806707D01*
X80559788Y-78818005D01*
X80534909Y-78826906D01*
X80509278Y-78833326D01*
X80483141Y-78837203D01*
X80456750Y-78838500D01*
X79493250Y-78838500D01*
X79466859Y-78837203D01*
X79440722Y-78833326D01*
X79415091Y-78826906D01*
X79390212Y-78818005D01*
X79366326Y-78806707D01*
X79343663Y-78793123D01*
X79322440Y-78777383D01*
X79302861Y-78759639D01*
X79285117Y-78740060D01*
X79269377Y-78718837D01*
X79255793Y-78696174D01*
X79244495Y-78672288D01*
X79235594Y-78647409D01*
X79229174Y-78621778D01*
X79225297Y-78595641D01*
X79224000Y-78569250D01*
X79224000Y-78030750D01*
X79225297Y-78004359D01*
X79229174Y-77978222D01*
X79235594Y-77952591D01*
X79244495Y-77927712D01*
X79255793Y-77903826D01*
X79269377Y-77881163D01*
X79285117Y-77859940D01*
X79302861Y-77840361D01*
X79322440Y-77822617D01*
X79343663Y-77806877D01*
X79366326Y-77793293D01*
X79390212Y-77781995D01*
X79415091Y-77773094D01*
X79440722Y-77766674D01*
X79466859Y-77762797D01*
X79493250Y-77761500D01*
X80456750Y-77761500D01*
X80483141Y-77762797D01*
X80483141Y-77762797D01*
G37*
D19*
X79975000Y-78300000D03*
D18*
G36*
X80483141Y-79637797D02*
G01*
X80509278Y-79641674D01*
X80534909Y-79648094D01*
X80559788Y-79656995D01*
X80583674Y-79668293D01*
X80606337Y-79681877D01*
X80627560Y-79697617D01*
X80647139Y-79715361D01*
X80664883Y-79734940D01*
X80680623Y-79756163D01*
X80694207Y-79778826D01*
X80705505Y-79802712D01*
X80714406Y-79827591D01*
X80720826Y-79853222D01*
X80724703Y-79879359D01*
X80726000Y-79905750D01*
X80726000Y-80444250D01*
X80724703Y-80470641D01*
X80720826Y-80496778D01*
X80714406Y-80522409D01*
X80705505Y-80547288D01*
X80694207Y-80571174D01*
X80680623Y-80593837D01*
X80664883Y-80615060D01*
X80647139Y-80634639D01*
X80627560Y-80652383D01*
X80606337Y-80668123D01*
X80583674Y-80681707D01*
X80559788Y-80693005D01*
X80534909Y-80701906D01*
X80509278Y-80708326D01*
X80483141Y-80712203D01*
X80456750Y-80713500D01*
X79493250Y-80713500D01*
X79466859Y-80712203D01*
X79440722Y-80708326D01*
X79415091Y-80701906D01*
X79390212Y-80693005D01*
X79366326Y-80681707D01*
X79343663Y-80668123D01*
X79322440Y-80652383D01*
X79302861Y-80634639D01*
X79285117Y-80615060D01*
X79269377Y-80593837D01*
X79255793Y-80571174D01*
X79244495Y-80547288D01*
X79235594Y-80522409D01*
X79229174Y-80496778D01*
X79225297Y-80470641D01*
X79224000Y-80444250D01*
X79224000Y-79905750D01*
X79225297Y-79879359D01*
X79229174Y-79853222D01*
X79235594Y-79827591D01*
X79244495Y-79802712D01*
X79255793Y-79778826D01*
X79269377Y-79756163D01*
X79285117Y-79734940D01*
X79302861Y-79715361D01*
X79322440Y-79697617D01*
X79343663Y-79681877D01*
X79366326Y-79668293D01*
X79390212Y-79656995D01*
X79415091Y-79648094D01*
X79440722Y-79641674D01*
X79466859Y-79637797D01*
X79493250Y-79636500D01*
X80456750Y-79636500D01*
X80483141Y-79637797D01*
X80483141Y-79637797D01*
G37*
D19*
X79975000Y-80175000D03*
D18*
G36*
X72883141Y-77762797D02*
G01*
X72909278Y-77766674D01*
X72934909Y-77773094D01*
X72959788Y-77781995D01*
X72983674Y-77793293D01*
X73006337Y-77806877D01*
X73027560Y-77822617D01*
X73047139Y-77840361D01*
X73064883Y-77859940D01*
X73080623Y-77881163D01*
X73094207Y-77903826D01*
X73105505Y-77927712D01*
X73114406Y-77952591D01*
X73120826Y-77978222D01*
X73124703Y-78004359D01*
X73126000Y-78030750D01*
X73126000Y-78569250D01*
X73124703Y-78595641D01*
X73120826Y-78621778D01*
X73114406Y-78647409D01*
X73105505Y-78672288D01*
X73094207Y-78696174D01*
X73080623Y-78718837D01*
X73064883Y-78740060D01*
X73047139Y-78759639D01*
X73027560Y-78777383D01*
X73006337Y-78793123D01*
X72983674Y-78806707D01*
X72959788Y-78818005D01*
X72934909Y-78826906D01*
X72909278Y-78833326D01*
X72883141Y-78837203D01*
X72856750Y-78838500D01*
X71893250Y-78838500D01*
X71866859Y-78837203D01*
X71840722Y-78833326D01*
X71815091Y-78826906D01*
X71790212Y-78818005D01*
X71766326Y-78806707D01*
X71743663Y-78793123D01*
X71722440Y-78777383D01*
X71702861Y-78759639D01*
X71685117Y-78740060D01*
X71669377Y-78718837D01*
X71655793Y-78696174D01*
X71644495Y-78672288D01*
X71635594Y-78647409D01*
X71629174Y-78621778D01*
X71625297Y-78595641D01*
X71624000Y-78569250D01*
X71624000Y-78030750D01*
X71625297Y-78004359D01*
X71629174Y-77978222D01*
X71635594Y-77952591D01*
X71644495Y-77927712D01*
X71655793Y-77903826D01*
X71669377Y-77881163D01*
X71685117Y-77859940D01*
X71702861Y-77840361D01*
X71722440Y-77822617D01*
X71743663Y-77806877D01*
X71766326Y-77793293D01*
X71790212Y-77781995D01*
X71815091Y-77773094D01*
X71840722Y-77766674D01*
X71866859Y-77762797D01*
X71893250Y-77761500D01*
X72856750Y-77761500D01*
X72883141Y-77762797D01*
X72883141Y-77762797D01*
G37*
D19*
X72375000Y-78300000D03*
D18*
G36*
X72883141Y-79637797D02*
G01*
X72909278Y-79641674D01*
X72934909Y-79648094D01*
X72959788Y-79656995D01*
X72983674Y-79668293D01*
X73006337Y-79681877D01*
X73027560Y-79697617D01*
X73047139Y-79715361D01*
X73064883Y-79734940D01*
X73080623Y-79756163D01*
X73094207Y-79778826D01*
X73105505Y-79802712D01*
X73114406Y-79827591D01*
X73120826Y-79853222D01*
X73124703Y-79879359D01*
X73126000Y-79905750D01*
X73126000Y-80444250D01*
X73124703Y-80470641D01*
X73120826Y-80496778D01*
X73114406Y-80522409D01*
X73105505Y-80547288D01*
X73094207Y-80571174D01*
X73080623Y-80593837D01*
X73064883Y-80615060D01*
X73047139Y-80634639D01*
X73027560Y-80652383D01*
X73006337Y-80668123D01*
X72983674Y-80681707D01*
X72959788Y-80693005D01*
X72934909Y-80701906D01*
X72909278Y-80708326D01*
X72883141Y-80712203D01*
X72856750Y-80713500D01*
X71893250Y-80713500D01*
X71866859Y-80712203D01*
X71840722Y-80708326D01*
X71815091Y-80701906D01*
X71790212Y-80693005D01*
X71766326Y-80681707D01*
X71743663Y-80668123D01*
X71722440Y-80652383D01*
X71702861Y-80634639D01*
X71685117Y-80615060D01*
X71669377Y-80593837D01*
X71655793Y-80571174D01*
X71644495Y-80547288D01*
X71635594Y-80522409D01*
X71629174Y-80496778D01*
X71625297Y-80470641D01*
X71624000Y-80444250D01*
X71624000Y-79905750D01*
X71625297Y-79879359D01*
X71629174Y-79853222D01*
X71635594Y-79827591D01*
X71644495Y-79802712D01*
X71655793Y-79778826D01*
X71669377Y-79756163D01*
X71685117Y-79734940D01*
X71702861Y-79715361D01*
X71722440Y-79697617D01*
X71743663Y-79681877D01*
X71766326Y-79668293D01*
X71790212Y-79656995D01*
X71815091Y-79648094D01*
X71840722Y-79641674D01*
X71866859Y-79637797D01*
X71893250Y-79636500D01*
X72856750Y-79636500D01*
X72883141Y-79637797D01*
X72883141Y-79637797D01*
G37*
D19*
X72375000Y-80175000D03*
D18*
G36*
X86058141Y-89750297D02*
G01*
X86084278Y-89754174D01*
X86109909Y-89760594D01*
X86134788Y-89769495D01*
X86158674Y-89780793D01*
X86181337Y-89794377D01*
X86202560Y-89810117D01*
X86222139Y-89827861D01*
X86239883Y-89847440D01*
X86255623Y-89868663D01*
X86269207Y-89891326D01*
X86280505Y-89915212D01*
X86289406Y-89940091D01*
X86295826Y-89965722D01*
X86299703Y-89991859D01*
X86301000Y-90018250D01*
X86301000Y-90556750D01*
X86299703Y-90583141D01*
X86295826Y-90609278D01*
X86289406Y-90634909D01*
X86280505Y-90659788D01*
X86269207Y-90683674D01*
X86255623Y-90706337D01*
X86239883Y-90727560D01*
X86222139Y-90747139D01*
X86202560Y-90764883D01*
X86181337Y-90780623D01*
X86158674Y-90794207D01*
X86134788Y-90805505D01*
X86109909Y-90814406D01*
X86084278Y-90820826D01*
X86058141Y-90824703D01*
X86031750Y-90826000D01*
X85068250Y-90826000D01*
X85041859Y-90824703D01*
X85015722Y-90820826D01*
X84990091Y-90814406D01*
X84965212Y-90805505D01*
X84941326Y-90794207D01*
X84918663Y-90780623D01*
X84897440Y-90764883D01*
X84877861Y-90747139D01*
X84860117Y-90727560D01*
X84844377Y-90706337D01*
X84830793Y-90683674D01*
X84819495Y-90659788D01*
X84810594Y-90634909D01*
X84804174Y-90609278D01*
X84800297Y-90583141D01*
X84799000Y-90556750D01*
X84799000Y-90018250D01*
X84800297Y-89991859D01*
X84804174Y-89965722D01*
X84810594Y-89940091D01*
X84819495Y-89915212D01*
X84830793Y-89891326D01*
X84844377Y-89868663D01*
X84860117Y-89847440D01*
X84877861Y-89827861D01*
X84897440Y-89810117D01*
X84918663Y-89794377D01*
X84941326Y-89780793D01*
X84965212Y-89769495D01*
X84990091Y-89760594D01*
X85015722Y-89754174D01*
X85041859Y-89750297D01*
X85068250Y-89749000D01*
X86031750Y-89749000D01*
X86058141Y-89750297D01*
X86058141Y-89750297D01*
G37*
D19*
X85550000Y-90287500D03*
D18*
G36*
X86058141Y-87875297D02*
G01*
X86084278Y-87879174D01*
X86109909Y-87885594D01*
X86134788Y-87894495D01*
X86158674Y-87905793D01*
X86181337Y-87919377D01*
X86202560Y-87935117D01*
X86222139Y-87952861D01*
X86239883Y-87972440D01*
X86255623Y-87993663D01*
X86269207Y-88016326D01*
X86280505Y-88040212D01*
X86289406Y-88065091D01*
X86295826Y-88090722D01*
X86299703Y-88116859D01*
X86301000Y-88143250D01*
X86301000Y-88681750D01*
X86299703Y-88708141D01*
X86295826Y-88734278D01*
X86289406Y-88759909D01*
X86280505Y-88784788D01*
X86269207Y-88808674D01*
X86255623Y-88831337D01*
X86239883Y-88852560D01*
X86222139Y-88872139D01*
X86202560Y-88889883D01*
X86181337Y-88905623D01*
X86158674Y-88919207D01*
X86134788Y-88930505D01*
X86109909Y-88939406D01*
X86084278Y-88945826D01*
X86058141Y-88949703D01*
X86031750Y-88951000D01*
X85068250Y-88951000D01*
X85041859Y-88949703D01*
X85015722Y-88945826D01*
X84990091Y-88939406D01*
X84965212Y-88930505D01*
X84941326Y-88919207D01*
X84918663Y-88905623D01*
X84897440Y-88889883D01*
X84877861Y-88872139D01*
X84860117Y-88852560D01*
X84844377Y-88831337D01*
X84830793Y-88808674D01*
X84819495Y-88784788D01*
X84810594Y-88759909D01*
X84804174Y-88734278D01*
X84800297Y-88708141D01*
X84799000Y-88681750D01*
X84799000Y-88143250D01*
X84800297Y-88116859D01*
X84804174Y-88090722D01*
X84810594Y-88065091D01*
X84819495Y-88040212D01*
X84830793Y-88016326D01*
X84844377Y-87993663D01*
X84860117Y-87972440D01*
X84877861Y-87952861D01*
X84897440Y-87935117D01*
X84918663Y-87919377D01*
X84941326Y-87905793D01*
X84965212Y-87894495D01*
X84990091Y-87885594D01*
X85015722Y-87879174D01*
X85041859Y-87875297D01*
X85068250Y-87874000D01*
X86031750Y-87874000D01*
X86058141Y-87875297D01*
X86058141Y-87875297D01*
G37*
D19*
X85550000Y-88412500D03*
D18*
G36*
X66295641Y-90525297D02*
G01*
X66321778Y-90529174D01*
X66347409Y-90535594D01*
X66372288Y-90544495D01*
X66396174Y-90555793D01*
X66418837Y-90569377D01*
X66440060Y-90585117D01*
X66459639Y-90602861D01*
X66477383Y-90622440D01*
X66493123Y-90643663D01*
X66506707Y-90666326D01*
X66518005Y-90690212D01*
X66526906Y-90715091D01*
X66533326Y-90740722D01*
X66537203Y-90766859D01*
X66538500Y-90793250D01*
X66538500Y-91756750D01*
X66537203Y-91783141D01*
X66533326Y-91809278D01*
X66526906Y-91834909D01*
X66518005Y-91859788D01*
X66506707Y-91883674D01*
X66493123Y-91906337D01*
X66477383Y-91927560D01*
X66459639Y-91947139D01*
X66440060Y-91964883D01*
X66418837Y-91980623D01*
X66396174Y-91994207D01*
X66372288Y-92005505D01*
X66347409Y-92014406D01*
X66321778Y-92020826D01*
X66295641Y-92024703D01*
X66269250Y-92026000D01*
X65730750Y-92026000D01*
X65704359Y-92024703D01*
X65678222Y-92020826D01*
X65652591Y-92014406D01*
X65627712Y-92005505D01*
X65603826Y-91994207D01*
X65581163Y-91980623D01*
X65559940Y-91964883D01*
X65540361Y-91947139D01*
X65522617Y-91927560D01*
X65506877Y-91906337D01*
X65493293Y-91883674D01*
X65481995Y-91859788D01*
X65473094Y-91834909D01*
X65466674Y-91809278D01*
X65462797Y-91783141D01*
X65461500Y-91756750D01*
X65461500Y-90793250D01*
X65462797Y-90766859D01*
X65466674Y-90740722D01*
X65473094Y-90715091D01*
X65481995Y-90690212D01*
X65493293Y-90666326D01*
X65506877Y-90643663D01*
X65522617Y-90622440D01*
X65540361Y-90602861D01*
X65559940Y-90585117D01*
X65581163Y-90569377D01*
X65603826Y-90555793D01*
X65627712Y-90544495D01*
X65652591Y-90535594D01*
X65678222Y-90529174D01*
X65704359Y-90525297D01*
X65730750Y-90524000D01*
X66269250Y-90524000D01*
X66295641Y-90525297D01*
X66295641Y-90525297D01*
G37*
D19*
X66000000Y-91275000D03*
D18*
G36*
X64420641Y-90525297D02*
G01*
X64446778Y-90529174D01*
X64472409Y-90535594D01*
X64497288Y-90544495D01*
X64521174Y-90555793D01*
X64543837Y-90569377D01*
X64565060Y-90585117D01*
X64584639Y-90602861D01*
X64602383Y-90622440D01*
X64618123Y-90643663D01*
X64631707Y-90666326D01*
X64643005Y-90690212D01*
X64651906Y-90715091D01*
X64658326Y-90740722D01*
X64662203Y-90766859D01*
X64663500Y-90793250D01*
X64663500Y-91756750D01*
X64662203Y-91783141D01*
X64658326Y-91809278D01*
X64651906Y-91834909D01*
X64643005Y-91859788D01*
X64631707Y-91883674D01*
X64618123Y-91906337D01*
X64602383Y-91927560D01*
X64584639Y-91947139D01*
X64565060Y-91964883D01*
X64543837Y-91980623D01*
X64521174Y-91994207D01*
X64497288Y-92005505D01*
X64472409Y-92014406D01*
X64446778Y-92020826D01*
X64420641Y-92024703D01*
X64394250Y-92026000D01*
X63855750Y-92026000D01*
X63829359Y-92024703D01*
X63803222Y-92020826D01*
X63777591Y-92014406D01*
X63752712Y-92005505D01*
X63728826Y-91994207D01*
X63706163Y-91980623D01*
X63684940Y-91964883D01*
X63665361Y-91947139D01*
X63647617Y-91927560D01*
X63631877Y-91906337D01*
X63618293Y-91883674D01*
X63606995Y-91859788D01*
X63598094Y-91834909D01*
X63591674Y-91809278D01*
X63587797Y-91783141D01*
X63586500Y-91756750D01*
X63586500Y-90793250D01*
X63587797Y-90766859D01*
X63591674Y-90740722D01*
X63598094Y-90715091D01*
X63606995Y-90690212D01*
X63618293Y-90666326D01*
X63631877Y-90643663D01*
X63647617Y-90622440D01*
X63665361Y-90602861D01*
X63684940Y-90585117D01*
X63706163Y-90569377D01*
X63728826Y-90555793D01*
X63752712Y-90544495D01*
X63777591Y-90535594D01*
X63803222Y-90529174D01*
X63829359Y-90525297D01*
X63855750Y-90524000D01*
X64394250Y-90524000D01*
X64420641Y-90525297D01*
X64420641Y-90525297D01*
G37*
D19*
X64125000Y-91275000D03*
D18*
G36*
X81420641Y-102075297D02*
G01*
X81446778Y-102079174D01*
X81472409Y-102085594D01*
X81497288Y-102094495D01*
X81521174Y-102105793D01*
X81543837Y-102119377D01*
X81565060Y-102135117D01*
X81584639Y-102152861D01*
X81602383Y-102172440D01*
X81618123Y-102193663D01*
X81631707Y-102216326D01*
X81643005Y-102240212D01*
X81651906Y-102265091D01*
X81658326Y-102290722D01*
X81662203Y-102316859D01*
X81663500Y-102343250D01*
X81663500Y-103306750D01*
X81662203Y-103333141D01*
X81658326Y-103359278D01*
X81651906Y-103384909D01*
X81643005Y-103409788D01*
X81631707Y-103433674D01*
X81618123Y-103456337D01*
X81602383Y-103477560D01*
X81584639Y-103497139D01*
X81565060Y-103514883D01*
X81543837Y-103530623D01*
X81521174Y-103544207D01*
X81497288Y-103555505D01*
X81472409Y-103564406D01*
X81446778Y-103570826D01*
X81420641Y-103574703D01*
X81394250Y-103576000D01*
X80855750Y-103576000D01*
X80829359Y-103574703D01*
X80803222Y-103570826D01*
X80777591Y-103564406D01*
X80752712Y-103555505D01*
X80728826Y-103544207D01*
X80706163Y-103530623D01*
X80684940Y-103514883D01*
X80665361Y-103497139D01*
X80647617Y-103477560D01*
X80631877Y-103456337D01*
X80618293Y-103433674D01*
X80606995Y-103409788D01*
X80598094Y-103384909D01*
X80591674Y-103359278D01*
X80587797Y-103333141D01*
X80586500Y-103306750D01*
X80586500Y-102343250D01*
X80587797Y-102316859D01*
X80591674Y-102290722D01*
X80598094Y-102265091D01*
X80606995Y-102240212D01*
X80618293Y-102216326D01*
X80631877Y-102193663D01*
X80647617Y-102172440D01*
X80665361Y-102152861D01*
X80684940Y-102135117D01*
X80706163Y-102119377D01*
X80728826Y-102105793D01*
X80752712Y-102094495D01*
X80777591Y-102085594D01*
X80803222Y-102079174D01*
X80829359Y-102075297D01*
X80855750Y-102074000D01*
X81394250Y-102074000D01*
X81420641Y-102075297D01*
X81420641Y-102075297D01*
G37*
D19*
X81125000Y-102825000D03*
D18*
G36*
X83295641Y-102075297D02*
G01*
X83321778Y-102079174D01*
X83347409Y-102085594D01*
X83372288Y-102094495D01*
X83396174Y-102105793D01*
X83418837Y-102119377D01*
X83440060Y-102135117D01*
X83459639Y-102152861D01*
X83477383Y-102172440D01*
X83493123Y-102193663D01*
X83506707Y-102216326D01*
X83518005Y-102240212D01*
X83526906Y-102265091D01*
X83533326Y-102290722D01*
X83537203Y-102316859D01*
X83538500Y-102343250D01*
X83538500Y-103306750D01*
X83537203Y-103333141D01*
X83533326Y-103359278D01*
X83526906Y-103384909D01*
X83518005Y-103409788D01*
X83506707Y-103433674D01*
X83493123Y-103456337D01*
X83477383Y-103477560D01*
X83459639Y-103497139D01*
X83440060Y-103514883D01*
X83418837Y-103530623D01*
X83396174Y-103544207D01*
X83372288Y-103555505D01*
X83347409Y-103564406D01*
X83321778Y-103570826D01*
X83295641Y-103574703D01*
X83269250Y-103576000D01*
X82730750Y-103576000D01*
X82704359Y-103574703D01*
X82678222Y-103570826D01*
X82652591Y-103564406D01*
X82627712Y-103555505D01*
X82603826Y-103544207D01*
X82581163Y-103530623D01*
X82559940Y-103514883D01*
X82540361Y-103497139D01*
X82522617Y-103477560D01*
X82506877Y-103456337D01*
X82493293Y-103433674D01*
X82481995Y-103409788D01*
X82473094Y-103384909D01*
X82466674Y-103359278D01*
X82462797Y-103333141D01*
X82461500Y-103306750D01*
X82461500Y-102343250D01*
X82462797Y-102316859D01*
X82466674Y-102290722D01*
X82473094Y-102265091D01*
X82481995Y-102240212D01*
X82493293Y-102216326D01*
X82506877Y-102193663D01*
X82522617Y-102172440D01*
X82540361Y-102152861D01*
X82559940Y-102135117D01*
X82581163Y-102119377D01*
X82603826Y-102105793D01*
X82627712Y-102094495D01*
X82652591Y-102085594D01*
X82678222Y-102079174D01*
X82704359Y-102075297D01*
X82730750Y-102074000D01*
X83269250Y-102074000D01*
X83295641Y-102075297D01*
X83295641Y-102075297D01*
G37*
D19*
X83000000Y-102825000D03*
D20*
X105410000Y-83184000D03*
X105410000Y-79884000D03*
X124460000Y-79630000D03*
X124460000Y-82930000D03*
X105410000Y-97918000D03*
X105410000Y-101218000D03*
X124460000Y-101726000D03*
X124460000Y-98426000D03*
D18*
G36*
X47812104Y-91415302D02*
G01*
X47838352Y-91419196D01*
X47864093Y-91425643D01*
X47889078Y-91434583D01*
X47913066Y-91445928D01*
X47935826Y-91459571D01*
X47957140Y-91475378D01*
X47976802Y-91493198D01*
X47994622Y-91512860D01*
X48010429Y-91534174D01*
X48024072Y-91556934D01*
X48035417Y-91580922D01*
X48044357Y-91605907D01*
X48050804Y-91631648D01*
X48054698Y-91657896D01*
X48056000Y-91684400D01*
X48056000Y-92495600D01*
X48054698Y-92522104D01*
X48050804Y-92548352D01*
X48044357Y-92574093D01*
X48035417Y-92599078D01*
X48024072Y-92623066D01*
X48010429Y-92645826D01*
X47994622Y-92667140D01*
X47976802Y-92686802D01*
X47957140Y-92704622D01*
X47935826Y-92720429D01*
X47913066Y-92734072D01*
X47889078Y-92745417D01*
X47864093Y-92754357D01*
X47838352Y-92760804D01*
X47812104Y-92764698D01*
X47785600Y-92766000D01*
X46474400Y-92766000D01*
X46447896Y-92764698D01*
X46421648Y-92760804D01*
X46395907Y-92754357D01*
X46370922Y-92745417D01*
X46346934Y-92734072D01*
X46324174Y-92720429D01*
X46302860Y-92704622D01*
X46283198Y-92686802D01*
X46265378Y-92667140D01*
X46249571Y-92645826D01*
X46235928Y-92623066D01*
X46224583Y-92599078D01*
X46215643Y-92574093D01*
X46209196Y-92548352D01*
X46205302Y-92522104D01*
X46204000Y-92495600D01*
X46204000Y-91684400D01*
X46205302Y-91657896D01*
X46209196Y-91631648D01*
X46215643Y-91605907D01*
X46224583Y-91580922D01*
X46235928Y-91556934D01*
X46249571Y-91534174D01*
X46265378Y-91512860D01*
X46283198Y-91493198D01*
X46302860Y-91475378D01*
X46324174Y-91459571D01*
X46346934Y-91445928D01*
X46370922Y-91434583D01*
X46395907Y-91425643D01*
X46421648Y-91419196D01*
X46447896Y-91415302D01*
X46474400Y-91414000D01*
X47785600Y-91414000D01*
X47812104Y-91415302D01*
X47812104Y-91415302D01*
G37*
D21*
X47130000Y-92090000D03*
D18*
G36*
X47812104Y-88615302D02*
G01*
X47838352Y-88619196D01*
X47864093Y-88625643D01*
X47889078Y-88634583D01*
X47913066Y-88645928D01*
X47935826Y-88659571D01*
X47957140Y-88675378D01*
X47976802Y-88693198D01*
X47994622Y-88712860D01*
X48010429Y-88734174D01*
X48024072Y-88756934D01*
X48035417Y-88780922D01*
X48044357Y-88805907D01*
X48050804Y-88831648D01*
X48054698Y-88857896D01*
X48056000Y-88884400D01*
X48056000Y-89695600D01*
X48054698Y-89722104D01*
X48050804Y-89748352D01*
X48044357Y-89774093D01*
X48035417Y-89799078D01*
X48024072Y-89823066D01*
X48010429Y-89845826D01*
X47994622Y-89867140D01*
X47976802Y-89886802D01*
X47957140Y-89904622D01*
X47935826Y-89920429D01*
X47913066Y-89934072D01*
X47889078Y-89945417D01*
X47864093Y-89954357D01*
X47838352Y-89960804D01*
X47812104Y-89964698D01*
X47785600Y-89966000D01*
X46474400Y-89966000D01*
X46447896Y-89964698D01*
X46421648Y-89960804D01*
X46395907Y-89954357D01*
X46370922Y-89945417D01*
X46346934Y-89934072D01*
X46324174Y-89920429D01*
X46302860Y-89904622D01*
X46283198Y-89886802D01*
X46265378Y-89867140D01*
X46249571Y-89845826D01*
X46235928Y-89823066D01*
X46224583Y-89799078D01*
X46215643Y-89774093D01*
X46209196Y-89748352D01*
X46205302Y-89722104D01*
X46204000Y-89695600D01*
X46204000Y-88884400D01*
X46205302Y-88857896D01*
X46209196Y-88831648D01*
X46215643Y-88805907D01*
X46224583Y-88780922D01*
X46235928Y-88756934D01*
X46249571Y-88734174D01*
X46265378Y-88712860D01*
X46283198Y-88693198D01*
X46302860Y-88675378D01*
X46324174Y-88659571D01*
X46346934Y-88645928D01*
X46370922Y-88634583D01*
X46395907Y-88625643D01*
X46421648Y-88619196D01*
X46447896Y-88615302D01*
X46474400Y-88614000D01*
X47785600Y-88614000D01*
X47812104Y-88615302D01*
X47812104Y-88615302D01*
G37*
D21*
X47130000Y-89290000D03*
D17*
X102457250Y-81057750D03*
X92297250Y-81057750D03*
D16*
X98647250Y-86137750D03*
D15*
X96107250Y-86137750D03*
D12*
X94877250Y-77057750D03*
D14*
X97377250Y-81057750D03*
D12*
X94222251Y-77787750D03*
D13*
X93567250Y-78517750D02*
X94877252Y-77057750D01*
D12*
X99917250Y-75977750D03*
X99897250Y-76267750D03*
D13*
X99877250Y-76557750D02*
X99917250Y-75977750D01*
D17*
X121555000Y-81075000D03*
X111395000Y-81075000D03*
D16*
X117745000Y-86155000D03*
D15*
X115205000Y-86155000D03*
D12*
X113975000Y-77075000D03*
D14*
X116475000Y-81075000D03*
D12*
X113320001Y-77805000D03*
D13*
X112665000Y-78535000D02*
X113975002Y-77075000D01*
D12*
X119015000Y-75995000D03*
X118995000Y-76285000D03*
D13*
X118975000Y-76575000D02*
X119015000Y-75995000D01*
D12*
X99895000Y-95317750D03*
D13*
X99875000Y-95607750D02*
X99915000Y-95027750D01*
D12*
X99915000Y-95027750D03*
X94220001Y-96837750D03*
D13*
X93565000Y-97567750D02*
X94875002Y-96107750D01*
D14*
X97375000Y-100107750D03*
D12*
X94875000Y-96107750D03*
D15*
X96105000Y-105187750D03*
D16*
X98645000Y-105187750D03*
D17*
X92295000Y-100107750D03*
X102455000Y-100107750D03*
D18*
G36*
X52508141Y-83312797D02*
G01*
X52534278Y-83316674D01*
X52559909Y-83323094D01*
X52584788Y-83331995D01*
X52608674Y-83343293D01*
X52631337Y-83356877D01*
X52652560Y-83372617D01*
X52672139Y-83390361D01*
X52689883Y-83409940D01*
X52705623Y-83431163D01*
X52719207Y-83453826D01*
X52730505Y-83477712D01*
X52739406Y-83502591D01*
X52745826Y-83528222D01*
X52749703Y-83554359D01*
X52751000Y-83580750D01*
X52751000Y-84119250D01*
X52749703Y-84145641D01*
X52745826Y-84171778D01*
X52739406Y-84197409D01*
X52730505Y-84222288D01*
X52719207Y-84246174D01*
X52705623Y-84268837D01*
X52689883Y-84290060D01*
X52672139Y-84309639D01*
X52652560Y-84327383D01*
X52631337Y-84343123D01*
X52608674Y-84356707D01*
X52584788Y-84368005D01*
X52559909Y-84376906D01*
X52534278Y-84383326D01*
X52508141Y-84387203D01*
X52481750Y-84388500D01*
X51518250Y-84388500D01*
X51491859Y-84387203D01*
X51465722Y-84383326D01*
X51440091Y-84376906D01*
X51415212Y-84368005D01*
X51391326Y-84356707D01*
X51368663Y-84343123D01*
X51347440Y-84327383D01*
X51327861Y-84309639D01*
X51310117Y-84290060D01*
X51294377Y-84268837D01*
X51280793Y-84246174D01*
X51269495Y-84222288D01*
X51260594Y-84197409D01*
X51254174Y-84171778D01*
X51250297Y-84145641D01*
X51249000Y-84119250D01*
X51249000Y-83580750D01*
X51250297Y-83554359D01*
X51254174Y-83528222D01*
X51260594Y-83502591D01*
X51269495Y-83477712D01*
X51280793Y-83453826D01*
X51294377Y-83431163D01*
X51310117Y-83409940D01*
X51327861Y-83390361D01*
X51347440Y-83372617D01*
X51368663Y-83356877D01*
X51391326Y-83343293D01*
X51415212Y-83331995D01*
X51440091Y-83323094D01*
X51465722Y-83316674D01*
X51491859Y-83312797D01*
X51518250Y-83311500D01*
X52481750Y-83311500D01*
X52508141Y-83312797D01*
X52508141Y-83312797D01*
G37*
D19*
X52000000Y-83850000D03*
D18*
G36*
X52508141Y-85187797D02*
G01*
X52534278Y-85191674D01*
X52559909Y-85198094D01*
X52584788Y-85206995D01*
X52608674Y-85218293D01*
X52631337Y-85231877D01*
X52652560Y-85247617D01*
X52672139Y-85265361D01*
X52689883Y-85284940D01*
X52705623Y-85306163D01*
X52719207Y-85328826D01*
X52730505Y-85352712D01*
X52739406Y-85377591D01*
X52745826Y-85403222D01*
X52749703Y-85429359D01*
X52751000Y-85455750D01*
X52751000Y-85994250D01*
X52749703Y-86020641D01*
X52745826Y-86046778D01*
X52739406Y-86072409D01*
X52730505Y-86097288D01*
X52719207Y-86121174D01*
X52705623Y-86143837D01*
X52689883Y-86165060D01*
X52672139Y-86184639D01*
X52652560Y-86202383D01*
X52631337Y-86218123D01*
X52608674Y-86231707D01*
X52584788Y-86243005D01*
X52559909Y-86251906D01*
X52534278Y-86258326D01*
X52508141Y-86262203D01*
X52481750Y-86263500D01*
X51518250Y-86263500D01*
X51491859Y-86262203D01*
X51465722Y-86258326D01*
X51440091Y-86251906D01*
X51415212Y-86243005D01*
X51391326Y-86231707D01*
X51368663Y-86218123D01*
X51347440Y-86202383D01*
X51327861Y-86184639D01*
X51310117Y-86165060D01*
X51294377Y-86143837D01*
X51280793Y-86121174D01*
X51269495Y-86097288D01*
X51260594Y-86072409D01*
X51254174Y-86046778D01*
X51250297Y-86020641D01*
X51249000Y-85994250D01*
X51249000Y-85455750D01*
X51250297Y-85429359D01*
X51254174Y-85403222D01*
X51260594Y-85377591D01*
X51269495Y-85352712D01*
X51280793Y-85328826D01*
X51294377Y-85306163D01*
X51310117Y-85284940D01*
X51327861Y-85265361D01*
X51347440Y-85247617D01*
X51368663Y-85231877D01*
X51391326Y-85218293D01*
X51415212Y-85206995D01*
X51440091Y-85198094D01*
X51465722Y-85191674D01*
X51491859Y-85187797D01*
X51518250Y-85186500D01*
X52481750Y-85186500D01*
X52508141Y-85187797D01*
X52508141Y-85187797D01*
G37*
D19*
X52000000Y-85725000D03*
D18*
G36*
X55558141Y-85300297D02*
G01*
X55584278Y-85304174D01*
X55609909Y-85310594D01*
X55634788Y-85319495D01*
X55658674Y-85330793D01*
X55681337Y-85344377D01*
X55702560Y-85360117D01*
X55722139Y-85377861D01*
X55739883Y-85397440D01*
X55755623Y-85418663D01*
X55769207Y-85441326D01*
X55780505Y-85465212D01*
X55789406Y-85490091D01*
X55795826Y-85515722D01*
X55799703Y-85541859D01*
X55801000Y-85568250D01*
X55801000Y-86106750D01*
X55799703Y-86133141D01*
X55795826Y-86159278D01*
X55789406Y-86184909D01*
X55780505Y-86209788D01*
X55769207Y-86233674D01*
X55755623Y-86256337D01*
X55739883Y-86277560D01*
X55722139Y-86297139D01*
X55702560Y-86314883D01*
X55681337Y-86330623D01*
X55658674Y-86344207D01*
X55634788Y-86355505D01*
X55609909Y-86364406D01*
X55584278Y-86370826D01*
X55558141Y-86374703D01*
X55531750Y-86376000D01*
X54568250Y-86376000D01*
X54541859Y-86374703D01*
X54515722Y-86370826D01*
X54490091Y-86364406D01*
X54465212Y-86355505D01*
X54441326Y-86344207D01*
X54418663Y-86330623D01*
X54397440Y-86314883D01*
X54377861Y-86297139D01*
X54360117Y-86277560D01*
X54344377Y-86256337D01*
X54330793Y-86233674D01*
X54319495Y-86209788D01*
X54310594Y-86184909D01*
X54304174Y-86159278D01*
X54300297Y-86133141D01*
X54299000Y-86106750D01*
X54299000Y-85568250D01*
X54300297Y-85541859D01*
X54304174Y-85515722D01*
X54310594Y-85490091D01*
X54319495Y-85465212D01*
X54330793Y-85441326D01*
X54344377Y-85418663D01*
X54360117Y-85397440D01*
X54377861Y-85377861D01*
X54397440Y-85360117D01*
X54418663Y-85344377D01*
X54441326Y-85330793D01*
X54465212Y-85319495D01*
X54490091Y-85310594D01*
X54515722Y-85304174D01*
X54541859Y-85300297D01*
X54568250Y-85299000D01*
X55531750Y-85299000D01*
X55558141Y-85300297D01*
X55558141Y-85300297D01*
G37*
D19*
X55050000Y-85837500D03*
D18*
G36*
X55558141Y-83425297D02*
G01*
X55584278Y-83429174D01*
X55609909Y-83435594D01*
X55634788Y-83444495D01*
X55658674Y-83455793D01*
X55681337Y-83469377D01*
X55702560Y-83485117D01*
X55722139Y-83502861D01*
X55739883Y-83522440D01*
X55755623Y-83543663D01*
X55769207Y-83566326D01*
X55780505Y-83590212D01*
X55789406Y-83615091D01*
X55795826Y-83640722D01*
X55799703Y-83666859D01*
X55801000Y-83693250D01*
X55801000Y-84231750D01*
X55799703Y-84258141D01*
X55795826Y-84284278D01*
X55789406Y-84309909D01*
X55780505Y-84334788D01*
X55769207Y-84358674D01*
X55755623Y-84381337D01*
X55739883Y-84402560D01*
X55722139Y-84422139D01*
X55702560Y-84439883D01*
X55681337Y-84455623D01*
X55658674Y-84469207D01*
X55634788Y-84480505D01*
X55609909Y-84489406D01*
X55584278Y-84495826D01*
X55558141Y-84499703D01*
X55531750Y-84501000D01*
X54568250Y-84501000D01*
X54541859Y-84499703D01*
X54515722Y-84495826D01*
X54490091Y-84489406D01*
X54465212Y-84480505D01*
X54441326Y-84469207D01*
X54418663Y-84455623D01*
X54397440Y-84439883D01*
X54377861Y-84422139D01*
X54360117Y-84402560D01*
X54344377Y-84381337D01*
X54330793Y-84358674D01*
X54319495Y-84334788D01*
X54310594Y-84309909D01*
X54304174Y-84284278D01*
X54300297Y-84258141D01*
X54299000Y-84231750D01*
X54299000Y-83693250D01*
X54300297Y-83666859D01*
X54304174Y-83640722D01*
X54310594Y-83615091D01*
X54319495Y-83590212D01*
X54330793Y-83566326D01*
X54344377Y-83543663D01*
X54360117Y-83522440D01*
X54377861Y-83502861D01*
X54397440Y-83485117D01*
X54418663Y-83469377D01*
X54441326Y-83455793D01*
X54465212Y-83444495D01*
X54490091Y-83435594D01*
X54515722Y-83429174D01*
X54541859Y-83425297D01*
X54568250Y-83424000D01*
X55531750Y-83424000D01*
X55558141Y-83425297D01*
X55558141Y-83425297D01*
G37*
D19*
X55050000Y-83962500D03*
D18*
G36*
X62508141Y-82112797D02*
G01*
X62534278Y-82116674D01*
X62559909Y-82123094D01*
X62584788Y-82131995D01*
X62608674Y-82143293D01*
X62631337Y-82156877D01*
X62652560Y-82172617D01*
X62672139Y-82190361D01*
X62689883Y-82209940D01*
X62705623Y-82231163D01*
X62719207Y-82253826D01*
X62730505Y-82277712D01*
X62739406Y-82302591D01*
X62745826Y-82328222D01*
X62749703Y-82354359D01*
X62751000Y-82380750D01*
X62751000Y-82919250D01*
X62749703Y-82945641D01*
X62745826Y-82971778D01*
X62739406Y-82997409D01*
X62730505Y-83022288D01*
X62719207Y-83046174D01*
X62705623Y-83068837D01*
X62689883Y-83090060D01*
X62672139Y-83109639D01*
X62652560Y-83127383D01*
X62631337Y-83143123D01*
X62608674Y-83156707D01*
X62584788Y-83168005D01*
X62559909Y-83176906D01*
X62534278Y-83183326D01*
X62508141Y-83187203D01*
X62481750Y-83188500D01*
X61518250Y-83188500D01*
X61491859Y-83187203D01*
X61465722Y-83183326D01*
X61440091Y-83176906D01*
X61415212Y-83168005D01*
X61391326Y-83156707D01*
X61368663Y-83143123D01*
X61347440Y-83127383D01*
X61327861Y-83109639D01*
X61310117Y-83090060D01*
X61294377Y-83068837D01*
X61280793Y-83046174D01*
X61269495Y-83022288D01*
X61260594Y-82997409D01*
X61254174Y-82971778D01*
X61250297Y-82945641D01*
X61249000Y-82919250D01*
X61249000Y-82380750D01*
X61250297Y-82354359D01*
X61254174Y-82328222D01*
X61260594Y-82302591D01*
X61269495Y-82277712D01*
X61280793Y-82253826D01*
X61294377Y-82231163D01*
X61310117Y-82209940D01*
X61327861Y-82190361D01*
X61347440Y-82172617D01*
X61368663Y-82156877D01*
X61391326Y-82143293D01*
X61415212Y-82131995D01*
X61440091Y-82123094D01*
X61465722Y-82116674D01*
X61491859Y-82112797D01*
X61518250Y-82111500D01*
X62481750Y-82111500D01*
X62508141Y-82112797D01*
X62508141Y-82112797D01*
G37*
D19*
X62000000Y-82650000D03*
D18*
G36*
X62508141Y-80237797D02*
G01*
X62534278Y-80241674D01*
X62559909Y-80248094D01*
X62584788Y-80256995D01*
X62608674Y-80268293D01*
X62631337Y-80281877D01*
X62652560Y-80297617D01*
X62672139Y-80315361D01*
X62689883Y-80334940D01*
X62705623Y-80356163D01*
X62719207Y-80378826D01*
X62730505Y-80402712D01*
X62739406Y-80427591D01*
X62745826Y-80453222D01*
X62749703Y-80479359D01*
X62751000Y-80505750D01*
X62751000Y-81044250D01*
X62749703Y-81070641D01*
X62745826Y-81096778D01*
X62739406Y-81122409D01*
X62730505Y-81147288D01*
X62719207Y-81171174D01*
X62705623Y-81193837D01*
X62689883Y-81215060D01*
X62672139Y-81234639D01*
X62652560Y-81252383D01*
X62631337Y-81268123D01*
X62608674Y-81281707D01*
X62584788Y-81293005D01*
X62559909Y-81301906D01*
X62534278Y-81308326D01*
X62508141Y-81312203D01*
X62481750Y-81313500D01*
X61518250Y-81313500D01*
X61491859Y-81312203D01*
X61465722Y-81308326D01*
X61440091Y-81301906D01*
X61415212Y-81293005D01*
X61391326Y-81281707D01*
X61368663Y-81268123D01*
X61347440Y-81252383D01*
X61327861Y-81234639D01*
X61310117Y-81215060D01*
X61294377Y-81193837D01*
X61280793Y-81171174D01*
X61269495Y-81147288D01*
X61260594Y-81122409D01*
X61254174Y-81096778D01*
X61250297Y-81070641D01*
X61249000Y-81044250D01*
X61249000Y-80505750D01*
X61250297Y-80479359D01*
X61254174Y-80453222D01*
X61260594Y-80427591D01*
X61269495Y-80402712D01*
X61280793Y-80378826D01*
X61294377Y-80356163D01*
X61310117Y-80334940D01*
X61327861Y-80315361D01*
X61347440Y-80297617D01*
X61368663Y-80281877D01*
X61391326Y-80268293D01*
X61415212Y-80256995D01*
X61440091Y-80248094D01*
X61465722Y-80241674D01*
X61491859Y-80237797D01*
X61518250Y-80236500D01*
X62481750Y-80236500D01*
X62508141Y-80237797D01*
X62508141Y-80237797D01*
G37*
D19*
X62000000Y-80775000D03*
D18*
G36*
X86708141Y-99787797D02*
G01*
X86734278Y-99791674D01*
X86759909Y-99798094D01*
X86784788Y-99806995D01*
X86808674Y-99818293D01*
X86831337Y-99831877D01*
X86852560Y-99847617D01*
X86872139Y-99865361D01*
X86889883Y-99884940D01*
X86905623Y-99906163D01*
X86919207Y-99928826D01*
X86930505Y-99952712D01*
X86939406Y-99977591D01*
X86945826Y-100003222D01*
X86949703Y-100029359D01*
X86951000Y-100055750D01*
X86951000Y-100594250D01*
X86949703Y-100620641D01*
X86945826Y-100646778D01*
X86939406Y-100672409D01*
X86930505Y-100697288D01*
X86919207Y-100721174D01*
X86905623Y-100743837D01*
X86889883Y-100765060D01*
X86872139Y-100784639D01*
X86852560Y-100802383D01*
X86831337Y-100818123D01*
X86808674Y-100831707D01*
X86784788Y-100843005D01*
X86759909Y-100851906D01*
X86734278Y-100858326D01*
X86708141Y-100862203D01*
X86681750Y-100863500D01*
X85718250Y-100863500D01*
X85691859Y-100862203D01*
X85665722Y-100858326D01*
X85640091Y-100851906D01*
X85615212Y-100843005D01*
X85591326Y-100831707D01*
X85568663Y-100818123D01*
X85547440Y-100802383D01*
X85527861Y-100784639D01*
X85510117Y-100765060D01*
X85494377Y-100743837D01*
X85480793Y-100721174D01*
X85469495Y-100697288D01*
X85460594Y-100672409D01*
X85454174Y-100646778D01*
X85450297Y-100620641D01*
X85449000Y-100594250D01*
X85449000Y-100055750D01*
X85450297Y-100029359D01*
X85454174Y-100003222D01*
X85460594Y-99977591D01*
X85469495Y-99952712D01*
X85480793Y-99928826D01*
X85494377Y-99906163D01*
X85510117Y-99884940D01*
X85527861Y-99865361D01*
X85547440Y-99847617D01*
X85568663Y-99831877D01*
X85591326Y-99818293D01*
X85615212Y-99806995D01*
X85640091Y-99798094D01*
X85665722Y-99791674D01*
X85691859Y-99787797D01*
X85718250Y-99786500D01*
X86681750Y-99786500D01*
X86708141Y-99787797D01*
X86708141Y-99787797D01*
G37*
D19*
X86200000Y-100325000D03*
D18*
G36*
X86708141Y-97912797D02*
G01*
X86734278Y-97916674D01*
X86759909Y-97923094D01*
X86784788Y-97931995D01*
X86808674Y-97943293D01*
X86831337Y-97956877D01*
X86852560Y-97972617D01*
X86872139Y-97990361D01*
X86889883Y-98009940D01*
X86905623Y-98031163D01*
X86919207Y-98053826D01*
X86930505Y-98077712D01*
X86939406Y-98102591D01*
X86945826Y-98128222D01*
X86949703Y-98154359D01*
X86951000Y-98180750D01*
X86951000Y-98719250D01*
X86949703Y-98745641D01*
X86945826Y-98771778D01*
X86939406Y-98797409D01*
X86930505Y-98822288D01*
X86919207Y-98846174D01*
X86905623Y-98868837D01*
X86889883Y-98890060D01*
X86872139Y-98909639D01*
X86852560Y-98927383D01*
X86831337Y-98943123D01*
X86808674Y-98956707D01*
X86784788Y-98968005D01*
X86759909Y-98976906D01*
X86734278Y-98983326D01*
X86708141Y-98987203D01*
X86681750Y-98988500D01*
X85718250Y-98988500D01*
X85691859Y-98987203D01*
X85665722Y-98983326D01*
X85640091Y-98976906D01*
X85615212Y-98968005D01*
X85591326Y-98956707D01*
X85568663Y-98943123D01*
X85547440Y-98927383D01*
X85527861Y-98909639D01*
X85510117Y-98890060D01*
X85494377Y-98868837D01*
X85480793Y-98846174D01*
X85469495Y-98822288D01*
X85460594Y-98797409D01*
X85454174Y-98771778D01*
X85450297Y-98745641D01*
X85449000Y-98719250D01*
X85449000Y-98180750D01*
X85450297Y-98154359D01*
X85454174Y-98128222D01*
X85460594Y-98102591D01*
X85469495Y-98077712D01*
X85480793Y-98053826D01*
X85494377Y-98031163D01*
X85510117Y-98009940D01*
X85527861Y-97990361D01*
X85547440Y-97972617D01*
X85568663Y-97956877D01*
X85591326Y-97943293D01*
X85615212Y-97931995D01*
X85640091Y-97923094D01*
X85665722Y-97916674D01*
X85691859Y-97912797D01*
X85718250Y-97911500D01*
X86681750Y-97911500D01*
X86708141Y-97912797D01*
X86708141Y-97912797D01*
G37*
D19*
X86200000Y-98450000D03*
D22*
X50400000Y-103075000D03*
X56600000Y-99375000D03*
X50400000Y-99375000D03*
X56600000Y-103075000D03*
D23*
X70624000Y-97356500D03*
X70624000Y-96556500D03*
X70624000Y-95756500D03*
X70624000Y-94956500D03*
X70624000Y-94156500D03*
X70624000Y-93356500D03*
X70624000Y-92556500D03*
X70624000Y-91756500D03*
X70624000Y-90956500D03*
X70624000Y-90156500D03*
X70624000Y-89356500D03*
D24*
X72324000Y-87656500D03*
X73124000Y-87656500D03*
X73924000Y-87656500D03*
X74724000Y-87656500D03*
X75524000Y-87656500D03*
X76324000Y-87656500D03*
X77124000Y-87656500D03*
X77924000Y-87656500D03*
X78724000Y-87656500D03*
X79524000Y-87656500D03*
X80324000Y-87656500D03*
D23*
X82024000Y-89356500D03*
X82024000Y-90156500D03*
X82024000Y-90956500D03*
X82024000Y-91756500D03*
X82024000Y-92556500D03*
X82024000Y-93356500D03*
X82024000Y-94156500D03*
X82024000Y-94956500D03*
X82024000Y-95756500D03*
X82024000Y-96556500D03*
X82024000Y-97356500D03*
D24*
X80324000Y-99056500D03*
X79524000Y-99056500D03*
X78724000Y-99056500D03*
X77924000Y-99056500D03*
X77124000Y-99056500D03*
X76324000Y-99056500D03*
X75524000Y-99056500D03*
X74724000Y-99056500D03*
X73924000Y-99056500D03*
X73124000Y-99056500D03*
X72324000Y-99056500D03*
D25*
X55550000Y-77144000D03*
X54750000Y-77144000D03*
X53950000Y-77144000D03*
X53150000Y-77144000D03*
X52350000Y-77144000D03*
D26*
X50300000Y-77144000D03*
X57600000Y-77144000D03*
X57600000Y-72644000D03*
X50300000Y-72644000D03*
D27*
X77142000Y-80264000D03*
X74942000Y-80264000D03*
X74942000Y-78564000D03*
X77142000Y-78564000D03*
M02*
