G04 #@! TF.GenerationSoftware,KiCad,Pcbnew,(5.1.2)-1*
G04 #@! TF.CreationDate,2019-05-27T11:12:31-07:00*
G04 #@! TF.ProjectId,Aidan PCB,41696461-6e20-4504-9342-2e6b69636164,rev?*
G04 #@! TF.SameCoordinates,Original*
G04 #@! TF.FileFunction,Copper,L2,Bot*
G04 #@! TF.FilePolarity,Positive*
%FSLAX46Y46*%
G04 Gerber Fmt 4.6, Leading zero omitted, Abs format (unit mm)*
G04 Created by KiCad (PCBNEW (5.1.2)-1) date 2019-05-27 11:12:31*
%MOMM*%
%LPD*%
G04 APERTURE LIST*
%ADD10C,2.250000*%
%ADD11C,2.250000*%
%ADD12C,1.905000*%
%ADD13R,1.905000X1.905000*%
%ADD14C,0.100000*%
%ADD15C,0.975000*%
%ADD16R,1.200000X0.900000*%
%ADD17C,1.250000*%
%ADD18R,1.800000X1.100000*%
%ADD19R,1.500000X0.550000*%
%ADD20R,0.550000X1.500000*%
%ADD21R,0.500000X2.250000*%
%ADD22O,1.700000X2.700000*%
%ADD23R,1.400000X1.200000*%
%ADD24C,0.800000*%
%ADD25C,0.203200*%
%ADD26C,0.254000*%
G04 APERTURE END LIST*
D10*
X119020000Y-95400000D03*
D11*
X119000000Y-95690000D02*
X119040000Y-95110000D01*
D10*
X119040000Y-95110000D03*
X113345001Y-96920000D03*
D11*
X112690000Y-97650000D02*
X114000002Y-96190000D01*
D10*
X114000000Y-96190000D03*
D12*
X115230000Y-105270000D03*
D13*
X117770000Y-105270000D03*
D14*
G36*
X65780142Y-82176174D02*
G01*
X65803803Y-82179684D01*
X65827007Y-82185496D01*
X65849529Y-82193554D01*
X65871153Y-82203782D01*
X65891670Y-82216079D01*
X65910883Y-82230329D01*
X65928607Y-82246393D01*
X65944671Y-82264117D01*
X65958921Y-82283330D01*
X65971218Y-82303847D01*
X65981446Y-82325471D01*
X65989504Y-82347993D01*
X65995316Y-82371197D01*
X65998826Y-82394858D01*
X66000000Y-82418750D01*
X66000000Y-82906250D01*
X65998826Y-82930142D01*
X65995316Y-82953803D01*
X65989504Y-82977007D01*
X65981446Y-82999529D01*
X65971218Y-83021153D01*
X65958921Y-83041670D01*
X65944671Y-83060883D01*
X65928607Y-83078607D01*
X65910883Y-83094671D01*
X65891670Y-83108921D01*
X65871153Y-83121218D01*
X65849529Y-83131446D01*
X65827007Y-83139504D01*
X65803803Y-83145316D01*
X65780142Y-83148826D01*
X65756250Y-83150000D01*
X64843750Y-83150000D01*
X64819858Y-83148826D01*
X64796197Y-83145316D01*
X64772993Y-83139504D01*
X64750471Y-83131446D01*
X64728847Y-83121218D01*
X64708330Y-83108921D01*
X64689117Y-83094671D01*
X64671393Y-83078607D01*
X64655329Y-83060883D01*
X64641079Y-83041670D01*
X64628782Y-83021153D01*
X64618554Y-82999529D01*
X64610496Y-82977007D01*
X64604684Y-82953803D01*
X64601174Y-82930142D01*
X64600000Y-82906250D01*
X64600000Y-82418750D01*
X64601174Y-82394858D01*
X64604684Y-82371197D01*
X64610496Y-82347993D01*
X64618554Y-82325471D01*
X64628782Y-82303847D01*
X64641079Y-82283330D01*
X64655329Y-82264117D01*
X64671393Y-82246393D01*
X64689117Y-82230329D01*
X64708330Y-82216079D01*
X64728847Y-82203782D01*
X64750471Y-82193554D01*
X64772993Y-82185496D01*
X64796197Y-82179684D01*
X64819858Y-82176174D01*
X64843750Y-82175000D01*
X65756250Y-82175000D01*
X65780142Y-82176174D01*
X65780142Y-82176174D01*
G37*
D15*
X65300000Y-82662500D03*
D14*
G36*
X65780142Y-80301174D02*
G01*
X65803803Y-80304684D01*
X65827007Y-80310496D01*
X65849529Y-80318554D01*
X65871153Y-80328782D01*
X65891670Y-80341079D01*
X65910883Y-80355329D01*
X65928607Y-80371393D01*
X65944671Y-80389117D01*
X65958921Y-80408330D01*
X65971218Y-80428847D01*
X65981446Y-80450471D01*
X65989504Y-80472993D01*
X65995316Y-80496197D01*
X65998826Y-80519858D01*
X66000000Y-80543750D01*
X66000000Y-81031250D01*
X65998826Y-81055142D01*
X65995316Y-81078803D01*
X65989504Y-81102007D01*
X65981446Y-81124529D01*
X65971218Y-81146153D01*
X65958921Y-81166670D01*
X65944671Y-81185883D01*
X65928607Y-81203607D01*
X65910883Y-81219671D01*
X65891670Y-81233921D01*
X65871153Y-81246218D01*
X65849529Y-81256446D01*
X65827007Y-81264504D01*
X65803803Y-81270316D01*
X65780142Y-81273826D01*
X65756250Y-81275000D01*
X64843750Y-81275000D01*
X64819858Y-81273826D01*
X64796197Y-81270316D01*
X64772993Y-81264504D01*
X64750471Y-81256446D01*
X64728847Y-81246218D01*
X64708330Y-81233921D01*
X64689117Y-81219671D01*
X64671393Y-81203607D01*
X64655329Y-81185883D01*
X64641079Y-81166670D01*
X64628782Y-81146153D01*
X64618554Y-81124529D01*
X64610496Y-81102007D01*
X64604684Y-81078803D01*
X64601174Y-81055142D01*
X64600000Y-81031250D01*
X64600000Y-80543750D01*
X64601174Y-80519858D01*
X64604684Y-80496197D01*
X64610496Y-80472993D01*
X64618554Y-80450471D01*
X64628782Y-80428847D01*
X64641079Y-80408330D01*
X64655329Y-80389117D01*
X64671393Y-80371393D01*
X64689117Y-80355329D01*
X64708330Y-80341079D01*
X64728847Y-80328782D01*
X64750471Y-80318554D01*
X64772993Y-80310496D01*
X64796197Y-80304684D01*
X64819858Y-80301174D01*
X64843750Y-80300000D01*
X65756250Y-80300000D01*
X65780142Y-80301174D01*
X65780142Y-80301174D01*
G37*
D15*
X65300000Y-80787500D03*
D14*
G36*
X65505142Y-98213674D02*
G01*
X65528803Y-98217184D01*
X65552007Y-98222996D01*
X65574529Y-98231054D01*
X65596153Y-98241282D01*
X65616670Y-98253579D01*
X65635883Y-98267829D01*
X65653607Y-98283893D01*
X65669671Y-98301617D01*
X65683921Y-98320830D01*
X65696218Y-98341347D01*
X65706446Y-98362971D01*
X65714504Y-98385493D01*
X65720316Y-98408697D01*
X65723826Y-98432358D01*
X65725000Y-98456250D01*
X65725000Y-98943750D01*
X65723826Y-98967642D01*
X65720316Y-98991303D01*
X65714504Y-99014507D01*
X65706446Y-99037029D01*
X65696218Y-99058653D01*
X65683921Y-99079170D01*
X65669671Y-99098383D01*
X65653607Y-99116107D01*
X65635883Y-99132171D01*
X65616670Y-99146421D01*
X65596153Y-99158718D01*
X65574529Y-99168946D01*
X65552007Y-99177004D01*
X65528803Y-99182816D01*
X65505142Y-99186326D01*
X65481250Y-99187500D01*
X64568750Y-99187500D01*
X64544858Y-99186326D01*
X64521197Y-99182816D01*
X64497993Y-99177004D01*
X64475471Y-99168946D01*
X64453847Y-99158718D01*
X64433330Y-99146421D01*
X64414117Y-99132171D01*
X64396393Y-99116107D01*
X64380329Y-99098383D01*
X64366079Y-99079170D01*
X64353782Y-99058653D01*
X64343554Y-99037029D01*
X64335496Y-99014507D01*
X64329684Y-98991303D01*
X64326174Y-98967642D01*
X64325000Y-98943750D01*
X64325000Y-98456250D01*
X64326174Y-98432358D01*
X64329684Y-98408697D01*
X64335496Y-98385493D01*
X64343554Y-98362971D01*
X64353782Y-98341347D01*
X64366079Y-98320830D01*
X64380329Y-98301617D01*
X64396393Y-98283893D01*
X64414117Y-98267829D01*
X64433330Y-98253579D01*
X64453847Y-98241282D01*
X64475471Y-98231054D01*
X64497993Y-98222996D01*
X64521197Y-98217184D01*
X64544858Y-98213674D01*
X64568750Y-98212500D01*
X65481250Y-98212500D01*
X65505142Y-98213674D01*
X65505142Y-98213674D01*
G37*
D15*
X65025000Y-98700000D03*
D14*
G36*
X65505142Y-100088674D02*
G01*
X65528803Y-100092184D01*
X65552007Y-100097996D01*
X65574529Y-100106054D01*
X65596153Y-100116282D01*
X65616670Y-100128579D01*
X65635883Y-100142829D01*
X65653607Y-100158893D01*
X65669671Y-100176617D01*
X65683921Y-100195830D01*
X65696218Y-100216347D01*
X65706446Y-100237971D01*
X65714504Y-100260493D01*
X65720316Y-100283697D01*
X65723826Y-100307358D01*
X65725000Y-100331250D01*
X65725000Y-100818750D01*
X65723826Y-100842642D01*
X65720316Y-100866303D01*
X65714504Y-100889507D01*
X65706446Y-100912029D01*
X65696218Y-100933653D01*
X65683921Y-100954170D01*
X65669671Y-100973383D01*
X65653607Y-100991107D01*
X65635883Y-101007171D01*
X65616670Y-101021421D01*
X65596153Y-101033718D01*
X65574529Y-101043946D01*
X65552007Y-101052004D01*
X65528803Y-101057816D01*
X65505142Y-101061326D01*
X65481250Y-101062500D01*
X64568750Y-101062500D01*
X64544858Y-101061326D01*
X64521197Y-101057816D01*
X64497993Y-101052004D01*
X64475471Y-101043946D01*
X64453847Y-101033718D01*
X64433330Y-101021421D01*
X64414117Y-101007171D01*
X64396393Y-100991107D01*
X64380329Y-100973383D01*
X64366079Y-100954170D01*
X64353782Y-100933653D01*
X64343554Y-100912029D01*
X64335496Y-100889507D01*
X64329684Y-100866303D01*
X64326174Y-100842642D01*
X64325000Y-100818750D01*
X64325000Y-100331250D01*
X64326174Y-100307358D01*
X64329684Y-100283697D01*
X64335496Y-100260493D01*
X64343554Y-100237971D01*
X64353782Y-100216347D01*
X64366079Y-100195830D01*
X64380329Y-100176617D01*
X64396393Y-100158893D01*
X64414117Y-100142829D01*
X64433330Y-100128579D01*
X64453847Y-100116282D01*
X64475471Y-100106054D01*
X64497993Y-100097996D01*
X64521197Y-100092184D01*
X64544858Y-100088674D01*
X64568750Y-100087500D01*
X65481250Y-100087500D01*
X65505142Y-100088674D01*
X65505142Y-100088674D01*
G37*
D15*
X65025000Y-100575000D03*
D14*
G36*
X80455142Y-77813674D02*
G01*
X80478803Y-77817184D01*
X80502007Y-77822996D01*
X80524529Y-77831054D01*
X80546153Y-77841282D01*
X80566670Y-77853579D01*
X80585883Y-77867829D01*
X80603607Y-77883893D01*
X80619671Y-77901617D01*
X80633921Y-77920830D01*
X80646218Y-77941347D01*
X80656446Y-77962971D01*
X80664504Y-77985493D01*
X80670316Y-78008697D01*
X80673826Y-78032358D01*
X80675000Y-78056250D01*
X80675000Y-78543750D01*
X80673826Y-78567642D01*
X80670316Y-78591303D01*
X80664504Y-78614507D01*
X80656446Y-78637029D01*
X80646218Y-78658653D01*
X80633921Y-78679170D01*
X80619671Y-78698383D01*
X80603607Y-78716107D01*
X80585883Y-78732171D01*
X80566670Y-78746421D01*
X80546153Y-78758718D01*
X80524529Y-78768946D01*
X80502007Y-78777004D01*
X80478803Y-78782816D01*
X80455142Y-78786326D01*
X80431250Y-78787500D01*
X79518750Y-78787500D01*
X79494858Y-78786326D01*
X79471197Y-78782816D01*
X79447993Y-78777004D01*
X79425471Y-78768946D01*
X79403847Y-78758718D01*
X79383330Y-78746421D01*
X79364117Y-78732171D01*
X79346393Y-78716107D01*
X79330329Y-78698383D01*
X79316079Y-78679170D01*
X79303782Y-78658653D01*
X79293554Y-78637029D01*
X79285496Y-78614507D01*
X79279684Y-78591303D01*
X79276174Y-78567642D01*
X79275000Y-78543750D01*
X79275000Y-78056250D01*
X79276174Y-78032358D01*
X79279684Y-78008697D01*
X79285496Y-77985493D01*
X79293554Y-77962971D01*
X79303782Y-77941347D01*
X79316079Y-77920830D01*
X79330329Y-77901617D01*
X79346393Y-77883893D01*
X79364117Y-77867829D01*
X79383330Y-77853579D01*
X79403847Y-77841282D01*
X79425471Y-77831054D01*
X79447993Y-77822996D01*
X79471197Y-77817184D01*
X79494858Y-77813674D01*
X79518750Y-77812500D01*
X80431250Y-77812500D01*
X80455142Y-77813674D01*
X80455142Y-77813674D01*
G37*
D15*
X79975000Y-78300000D03*
D14*
G36*
X80455142Y-79688674D02*
G01*
X80478803Y-79692184D01*
X80502007Y-79697996D01*
X80524529Y-79706054D01*
X80546153Y-79716282D01*
X80566670Y-79728579D01*
X80585883Y-79742829D01*
X80603607Y-79758893D01*
X80619671Y-79776617D01*
X80633921Y-79795830D01*
X80646218Y-79816347D01*
X80656446Y-79837971D01*
X80664504Y-79860493D01*
X80670316Y-79883697D01*
X80673826Y-79907358D01*
X80675000Y-79931250D01*
X80675000Y-80418750D01*
X80673826Y-80442642D01*
X80670316Y-80466303D01*
X80664504Y-80489507D01*
X80656446Y-80512029D01*
X80646218Y-80533653D01*
X80633921Y-80554170D01*
X80619671Y-80573383D01*
X80603607Y-80591107D01*
X80585883Y-80607171D01*
X80566670Y-80621421D01*
X80546153Y-80633718D01*
X80524529Y-80643946D01*
X80502007Y-80652004D01*
X80478803Y-80657816D01*
X80455142Y-80661326D01*
X80431250Y-80662500D01*
X79518750Y-80662500D01*
X79494858Y-80661326D01*
X79471197Y-80657816D01*
X79447993Y-80652004D01*
X79425471Y-80643946D01*
X79403847Y-80633718D01*
X79383330Y-80621421D01*
X79364117Y-80607171D01*
X79346393Y-80591107D01*
X79330329Y-80573383D01*
X79316079Y-80554170D01*
X79303782Y-80533653D01*
X79293554Y-80512029D01*
X79285496Y-80489507D01*
X79279684Y-80466303D01*
X79276174Y-80442642D01*
X79275000Y-80418750D01*
X79275000Y-79931250D01*
X79276174Y-79907358D01*
X79279684Y-79883697D01*
X79285496Y-79860493D01*
X79293554Y-79837971D01*
X79303782Y-79816347D01*
X79316079Y-79795830D01*
X79330329Y-79776617D01*
X79346393Y-79758893D01*
X79364117Y-79742829D01*
X79383330Y-79728579D01*
X79403847Y-79716282D01*
X79425471Y-79706054D01*
X79447993Y-79697996D01*
X79471197Y-79692184D01*
X79494858Y-79688674D01*
X79518750Y-79687500D01*
X80431250Y-79687500D01*
X80455142Y-79688674D01*
X80455142Y-79688674D01*
G37*
D15*
X79975000Y-80175000D03*
D14*
G36*
X72855142Y-77813674D02*
G01*
X72878803Y-77817184D01*
X72902007Y-77822996D01*
X72924529Y-77831054D01*
X72946153Y-77841282D01*
X72966670Y-77853579D01*
X72985883Y-77867829D01*
X73003607Y-77883893D01*
X73019671Y-77901617D01*
X73033921Y-77920830D01*
X73046218Y-77941347D01*
X73056446Y-77962971D01*
X73064504Y-77985493D01*
X73070316Y-78008697D01*
X73073826Y-78032358D01*
X73075000Y-78056250D01*
X73075000Y-78543750D01*
X73073826Y-78567642D01*
X73070316Y-78591303D01*
X73064504Y-78614507D01*
X73056446Y-78637029D01*
X73046218Y-78658653D01*
X73033921Y-78679170D01*
X73019671Y-78698383D01*
X73003607Y-78716107D01*
X72985883Y-78732171D01*
X72966670Y-78746421D01*
X72946153Y-78758718D01*
X72924529Y-78768946D01*
X72902007Y-78777004D01*
X72878803Y-78782816D01*
X72855142Y-78786326D01*
X72831250Y-78787500D01*
X71918750Y-78787500D01*
X71894858Y-78786326D01*
X71871197Y-78782816D01*
X71847993Y-78777004D01*
X71825471Y-78768946D01*
X71803847Y-78758718D01*
X71783330Y-78746421D01*
X71764117Y-78732171D01*
X71746393Y-78716107D01*
X71730329Y-78698383D01*
X71716079Y-78679170D01*
X71703782Y-78658653D01*
X71693554Y-78637029D01*
X71685496Y-78614507D01*
X71679684Y-78591303D01*
X71676174Y-78567642D01*
X71675000Y-78543750D01*
X71675000Y-78056250D01*
X71676174Y-78032358D01*
X71679684Y-78008697D01*
X71685496Y-77985493D01*
X71693554Y-77962971D01*
X71703782Y-77941347D01*
X71716079Y-77920830D01*
X71730329Y-77901617D01*
X71746393Y-77883893D01*
X71764117Y-77867829D01*
X71783330Y-77853579D01*
X71803847Y-77841282D01*
X71825471Y-77831054D01*
X71847993Y-77822996D01*
X71871197Y-77817184D01*
X71894858Y-77813674D01*
X71918750Y-77812500D01*
X72831250Y-77812500D01*
X72855142Y-77813674D01*
X72855142Y-77813674D01*
G37*
D15*
X72375000Y-78300000D03*
D14*
G36*
X72855142Y-79688674D02*
G01*
X72878803Y-79692184D01*
X72902007Y-79697996D01*
X72924529Y-79706054D01*
X72946153Y-79716282D01*
X72966670Y-79728579D01*
X72985883Y-79742829D01*
X73003607Y-79758893D01*
X73019671Y-79776617D01*
X73033921Y-79795830D01*
X73046218Y-79816347D01*
X73056446Y-79837971D01*
X73064504Y-79860493D01*
X73070316Y-79883697D01*
X73073826Y-79907358D01*
X73075000Y-79931250D01*
X73075000Y-80418750D01*
X73073826Y-80442642D01*
X73070316Y-80466303D01*
X73064504Y-80489507D01*
X73056446Y-80512029D01*
X73046218Y-80533653D01*
X73033921Y-80554170D01*
X73019671Y-80573383D01*
X73003607Y-80591107D01*
X72985883Y-80607171D01*
X72966670Y-80621421D01*
X72946153Y-80633718D01*
X72924529Y-80643946D01*
X72902007Y-80652004D01*
X72878803Y-80657816D01*
X72855142Y-80661326D01*
X72831250Y-80662500D01*
X71918750Y-80662500D01*
X71894858Y-80661326D01*
X71871197Y-80657816D01*
X71847993Y-80652004D01*
X71825471Y-80643946D01*
X71803847Y-80633718D01*
X71783330Y-80621421D01*
X71764117Y-80607171D01*
X71746393Y-80591107D01*
X71730329Y-80573383D01*
X71716079Y-80554170D01*
X71703782Y-80533653D01*
X71693554Y-80512029D01*
X71685496Y-80489507D01*
X71679684Y-80466303D01*
X71676174Y-80442642D01*
X71675000Y-80418750D01*
X71675000Y-79931250D01*
X71676174Y-79907358D01*
X71679684Y-79883697D01*
X71685496Y-79860493D01*
X71693554Y-79837971D01*
X71703782Y-79816347D01*
X71716079Y-79795830D01*
X71730329Y-79776617D01*
X71746393Y-79758893D01*
X71764117Y-79742829D01*
X71783330Y-79728579D01*
X71803847Y-79716282D01*
X71825471Y-79706054D01*
X71847993Y-79697996D01*
X71871197Y-79692184D01*
X71894858Y-79688674D01*
X71918750Y-79687500D01*
X72831250Y-79687500D01*
X72855142Y-79688674D01*
X72855142Y-79688674D01*
G37*
D15*
X72375000Y-80175000D03*
D14*
G36*
X86030142Y-89801174D02*
G01*
X86053803Y-89804684D01*
X86077007Y-89810496D01*
X86099529Y-89818554D01*
X86121153Y-89828782D01*
X86141670Y-89841079D01*
X86160883Y-89855329D01*
X86178607Y-89871393D01*
X86194671Y-89889117D01*
X86208921Y-89908330D01*
X86221218Y-89928847D01*
X86231446Y-89950471D01*
X86239504Y-89972993D01*
X86245316Y-89996197D01*
X86248826Y-90019858D01*
X86250000Y-90043750D01*
X86250000Y-90531250D01*
X86248826Y-90555142D01*
X86245316Y-90578803D01*
X86239504Y-90602007D01*
X86231446Y-90624529D01*
X86221218Y-90646153D01*
X86208921Y-90666670D01*
X86194671Y-90685883D01*
X86178607Y-90703607D01*
X86160883Y-90719671D01*
X86141670Y-90733921D01*
X86121153Y-90746218D01*
X86099529Y-90756446D01*
X86077007Y-90764504D01*
X86053803Y-90770316D01*
X86030142Y-90773826D01*
X86006250Y-90775000D01*
X85093750Y-90775000D01*
X85069858Y-90773826D01*
X85046197Y-90770316D01*
X85022993Y-90764504D01*
X85000471Y-90756446D01*
X84978847Y-90746218D01*
X84958330Y-90733921D01*
X84939117Y-90719671D01*
X84921393Y-90703607D01*
X84905329Y-90685883D01*
X84891079Y-90666670D01*
X84878782Y-90646153D01*
X84868554Y-90624529D01*
X84860496Y-90602007D01*
X84854684Y-90578803D01*
X84851174Y-90555142D01*
X84850000Y-90531250D01*
X84850000Y-90043750D01*
X84851174Y-90019858D01*
X84854684Y-89996197D01*
X84860496Y-89972993D01*
X84868554Y-89950471D01*
X84878782Y-89928847D01*
X84891079Y-89908330D01*
X84905329Y-89889117D01*
X84921393Y-89871393D01*
X84939117Y-89855329D01*
X84958330Y-89841079D01*
X84978847Y-89828782D01*
X85000471Y-89818554D01*
X85022993Y-89810496D01*
X85046197Y-89804684D01*
X85069858Y-89801174D01*
X85093750Y-89800000D01*
X86006250Y-89800000D01*
X86030142Y-89801174D01*
X86030142Y-89801174D01*
G37*
D15*
X85550000Y-90287500D03*
D14*
G36*
X86030142Y-87926174D02*
G01*
X86053803Y-87929684D01*
X86077007Y-87935496D01*
X86099529Y-87943554D01*
X86121153Y-87953782D01*
X86141670Y-87966079D01*
X86160883Y-87980329D01*
X86178607Y-87996393D01*
X86194671Y-88014117D01*
X86208921Y-88033330D01*
X86221218Y-88053847D01*
X86231446Y-88075471D01*
X86239504Y-88097993D01*
X86245316Y-88121197D01*
X86248826Y-88144858D01*
X86250000Y-88168750D01*
X86250000Y-88656250D01*
X86248826Y-88680142D01*
X86245316Y-88703803D01*
X86239504Y-88727007D01*
X86231446Y-88749529D01*
X86221218Y-88771153D01*
X86208921Y-88791670D01*
X86194671Y-88810883D01*
X86178607Y-88828607D01*
X86160883Y-88844671D01*
X86141670Y-88858921D01*
X86121153Y-88871218D01*
X86099529Y-88881446D01*
X86077007Y-88889504D01*
X86053803Y-88895316D01*
X86030142Y-88898826D01*
X86006250Y-88900000D01*
X85093750Y-88900000D01*
X85069858Y-88898826D01*
X85046197Y-88895316D01*
X85022993Y-88889504D01*
X85000471Y-88881446D01*
X84978847Y-88871218D01*
X84958330Y-88858921D01*
X84939117Y-88844671D01*
X84921393Y-88828607D01*
X84905329Y-88810883D01*
X84891079Y-88791670D01*
X84878782Y-88771153D01*
X84868554Y-88749529D01*
X84860496Y-88727007D01*
X84854684Y-88703803D01*
X84851174Y-88680142D01*
X84850000Y-88656250D01*
X84850000Y-88168750D01*
X84851174Y-88144858D01*
X84854684Y-88121197D01*
X84860496Y-88097993D01*
X84868554Y-88075471D01*
X84878782Y-88053847D01*
X84891079Y-88033330D01*
X84905329Y-88014117D01*
X84921393Y-87996393D01*
X84939117Y-87980329D01*
X84958330Y-87966079D01*
X84978847Y-87953782D01*
X85000471Y-87943554D01*
X85022993Y-87935496D01*
X85046197Y-87929684D01*
X85069858Y-87926174D01*
X85093750Y-87925000D01*
X86006250Y-87925000D01*
X86030142Y-87926174D01*
X86030142Y-87926174D01*
G37*
D15*
X85550000Y-88412500D03*
D14*
G36*
X66267642Y-90576174D02*
G01*
X66291303Y-90579684D01*
X66314507Y-90585496D01*
X66337029Y-90593554D01*
X66358653Y-90603782D01*
X66379170Y-90616079D01*
X66398383Y-90630329D01*
X66416107Y-90646393D01*
X66432171Y-90664117D01*
X66446421Y-90683330D01*
X66458718Y-90703847D01*
X66468946Y-90725471D01*
X66477004Y-90747993D01*
X66482816Y-90771197D01*
X66486326Y-90794858D01*
X66487500Y-90818750D01*
X66487500Y-91731250D01*
X66486326Y-91755142D01*
X66482816Y-91778803D01*
X66477004Y-91802007D01*
X66468946Y-91824529D01*
X66458718Y-91846153D01*
X66446421Y-91866670D01*
X66432171Y-91885883D01*
X66416107Y-91903607D01*
X66398383Y-91919671D01*
X66379170Y-91933921D01*
X66358653Y-91946218D01*
X66337029Y-91956446D01*
X66314507Y-91964504D01*
X66291303Y-91970316D01*
X66267642Y-91973826D01*
X66243750Y-91975000D01*
X65756250Y-91975000D01*
X65732358Y-91973826D01*
X65708697Y-91970316D01*
X65685493Y-91964504D01*
X65662971Y-91956446D01*
X65641347Y-91946218D01*
X65620830Y-91933921D01*
X65601617Y-91919671D01*
X65583893Y-91903607D01*
X65567829Y-91885883D01*
X65553579Y-91866670D01*
X65541282Y-91846153D01*
X65531054Y-91824529D01*
X65522996Y-91802007D01*
X65517184Y-91778803D01*
X65513674Y-91755142D01*
X65512500Y-91731250D01*
X65512500Y-90818750D01*
X65513674Y-90794858D01*
X65517184Y-90771197D01*
X65522996Y-90747993D01*
X65531054Y-90725471D01*
X65541282Y-90703847D01*
X65553579Y-90683330D01*
X65567829Y-90664117D01*
X65583893Y-90646393D01*
X65601617Y-90630329D01*
X65620830Y-90616079D01*
X65641347Y-90603782D01*
X65662971Y-90593554D01*
X65685493Y-90585496D01*
X65708697Y-90579684D01*
X65732358Y-90576174D01*
X65756250Y-90575000D01*
X66243750Y-90575000D01*
X66267642Y-90576174D01*
X66267642Y-90576174D01*
G37*
D15*
X66000000Y-91275000D03*
D14*
G36*
X64392642Y-90576174D02*
G01*
X64416303Y-90579684D01*
X64439507Y-90585496D01*
X64462029Y-90593554D01*
X64483653Y-90603782D01*
X64504170Y-90616079D01*
X64523383Y-90630329D01*
X64541107Y-90646393D01*
X64557171Y-90664117D01*
X64571421Y-90683330D01*
X64583718Y-90703847D01*
X64593946Y-90725471D01*
X64602004Y-90747993D01*
X64607816Y-90771197D01*
X64611326Y-90794858D01*
X64612500Y-90818750D01*
X64612500Y-91731250D01*
X64611326Y-91755142D01*
X64607816Y-91778803D01*
X64602004Y-91802007D01*
X64593946Y-91824529D01*
X64583718Y-91846153D01*
X64571421Y-91866670D01*
X64557171Y-91885883D01*
X64541107Y-91903607D01*
X64523383Y-91919671D01*
X64504170Y-91933921D01*
X64483653Y-91946218D01*
X64462029Y-91956446D01*
X64439507Y-91964504D01*
X64416303Y-91970316D01*
X64392642Y-91973826D01*
X64368750Y-91975000D01*
X63881250Y-91975000D01*
X63857358Y-91973826D01*
X63833697Y-91970316D01*
X63810493Y-91964504D01*
X63787971Y-91956446D01*
X63766347Y-91946218D01*
X63745830Y-91933921D01*
X63726617Y-91919671D01*
X63708893Y-91903607D01*
X63692829Y-91885883D01*
X63678579Y-91866670D01*
X63666282Y-91846153D01*
X63656054Y-91824529D01*
X63647996Y-91802007D01*
X63642184Y-91778803D01*
X63638674Y-91755142D01*
X63637500Y-91731250D01*
X63637500Y-90818750D01*
X63638674Y-90794858D01*
X63642184Y-90771197D01*
X63647996Y-90747993D01*
X63656054Y-90725471D01*
X63666282Y-90703847D01*
X63678579Y-90683330D01*
X63692829Y-90664117D01*
X63708893Y-90646393D01*
X63726617Y-90630329D01*
X63745830Y-90616079D01*
X63766347Y-90603782D01*
X63787971Y-90593554D01*
X63810493Y-90585496D01*
X63833697Y-90579684D01*
X63857358Y-90576174D01*
X63881250Y-90575000D01*
X64368750Y-90575000D01*
X64392642Y-90576174D01*
X64392642Y-90576174D01*
G37*
D15*
X64125000Y-91275000D03*
D14*
G36*
X81392642Y-102126174D02*
G01*
X81416303Y-102129684D01*
X81439507Y-102135496D01*
X81462029Y-102143554D01*
X81483653Y-102153782D01*
X81504170Y-102166079D01*
X81523383Y-102180329D01*
X81541107Y-102196393D01*
X81557171Y-102214117D01*
X81571421Y-102233330D01*
X81583718Y-102253847D01*
X81593946Y-102275471D01*
X81602004Y-102297993D01*
X81607816Y-102321197D01*
X81611326Y-102344858D01*
X81612500Y-102368750D01*
X81612500Y-103281250D01*
X81611326Y-103305142D01*
X81607816Y-103328803D01*
X81602004Y-103352007D01*
X81593946Y-103374529D01*
X81583718Y-103396153D01*
X81571421Y-103416670D01*
X81557171Y-103435883D01*
X81541107Y-103453607D01*
X81523383Y-103469671D01*
X81504170Y-103483921D01*
X81483653Y-103496218D01*
X81462029Y-103506446D01*
X81439507Y-103514504D01*
X81416303Y-103520316D01*
X81392642Y-103523826D01*
X81368750Y-103525000D01*
X80881250Y-103525000D01*
X80857358Y-103523826D01*
X80833697Y-103520316D01*
X80810493Y-103514504D01*
X80787971Y-103506446D01*
X80766347Y-103496218D01*
X80745830Y-103483921D01*
X80726617Y-103469671D01*
X80708893Y-103453607D01*
X80692829Y-103435883D01*
X80678579Y-103416670D01*
X80666282Y-103396153D01*
X80656054Y-103374529D01*
X80647996Y-103352007D01*
X80642184Y-103328803D01*
X80638674Y-103305142D01*
X80637500Y-103281250D01*
X80637500Y-102368750D01*
X80638674Y-102344858D01*
X80642184Y-102321197D01*
X80647996Y-102297993D01*
X80656054Y-102275471D01*
X80666282Y-102253847D01*
X80678579Y-102233330D01*
X80692829Y-102214117D01*
X80708893Y-102196393D01*
X80726617Y-102180329D01*
X80745830Y-102166079D01*
X80766347Y-102153782D01*
X80787971Y-102143554D01*
X80810493Y-102135496D01*
X80833697Y-102129684D01*
X80857358Y-102126174D01*
X80881250Y-102125000D01*
X81368750Y-102125000D01*
X81392642Y-102126174D01*
X81392642Y-102126174D01*
G37*
D15*
X81125000Y-102825000D03*
D14*
G36*
X83267642Y-102126174D02*
G01*
X83291303Y-102129684D01*
X83314507Y-102135496D01*
X83337029Y-102143554D01*
X83358653Y-102153782D01*
X83379170Y-102166079D01*
X83398383Y-102180329D01*
X83416107Y-102196393D01*
X83432171Y-102214117D01*
X83446421Y-102233330D01*
X83458718Y-102253847D01*
X83468946Y-102275471D01*
X83477004Y-102297993D01*
X83482816Y-102321197D01*
X83486326Y-102344858D01*
X83487500Y-102368750D01*
X83487500Y-103281250D01*
X83486326Y-103305142D01*
X83482816Y-103328803D01*
X83477004Y-103352007D01*
X83468946Y-103374529D01*
X83458718Y-103396153D01*
X83446421Y-103416670D01*
X83432171Y-103435883D01*
X83416107Y-103453607D01*
X83398383Y-103469671D01*
X83379170Y-103483921D01*
X83358653Y-103496218D01*
X83337029Y-103506446D01*
X83314507Y-103514504D01*
X83291303Y-103520316D01*
X83267642Y-103523826D01*
X83243750Y-103525000D01*
X82756250Y-103525000D01*
X82732358Y-103523826D01*
X82708697Y-103520316D01*
X82685493Y-103514504D01*
X82662971Y-103506446D01*
X82641347Y-103496218D01*
X82620830Y-103483921D01*
X82601617Y-103469671D01*
X82583893Y-103453607D01*
X82567829Y-103435883D01*
X82553579Y-103416670D01*
X82541282Y-103396153D01*
X82531054Y-103374529D01*
X82522996Y-103352007D01*
X82517184Y-103328803D01*
X82513674Y-103305142D01*
X82512500Y-103281250D01*
X82512500Y-102368750D01*
X82513674Y-102344858D01*
X82517184Y-102321197D01*
X82522996Y-102297993D01*
X82531054Y-102275471D01*
X82541282Y-102253847D01*
X82553579Y-102233330D01*
X82567829Y-102214117D01*
X82583893Y-102196393D01*
X82601617Y-102180329D01*
X82620830Y-102166079D01*
X82641347Y-102153782D01*
X82662971Y-102143554D01*
X82685493Y-102135496D01*
X82708697Y-102129684D01*
X82732358Y-102126174D01*
X82756250Y-102125000D01*
X83243750Y-102125000D01*
X83267642Y-102126174D01*
X83267642Y-102126174D01*
G37*
D15*
X83000000Y-102825000D03*
D16*
X105410000Y-83184000D03*
X105410000Y-79884000D03*
X124460000Y-79630000D03*
X124460000Y-82930000D03*
X105410000Y-97918000D03*
X105410000Y-101218000D03*
X124460000Y-101726000D03*
X124460000Y-98426000D03*
D14*
G36*
X47779504Y-91466204D02*
G01*
X47803773Y-91469804D01*
X47827571Y-91475765D01*
X47850671Y-91484030D01*
X47872849Y-91494520D01*
X47893893Y-91507133D01*
X47913598Y-91521747D01*
X47931777Y-91538223D01*
X47948253Y-91556402D01*
X47962867Y-91576107D01*
X47975480Y-91597151D01*
X47985970Y-91619329D01*
X47994235Y-91642429D01*
X48000196Y-91666227D01*
X48003796Y-91690496D01*
X48005000Y-91715000D01*
X48005000Y-92465000D01*
X48003796Y-92489504D01*
X48000196Y-92513773D01*
X47994235Y-92537571D01*
X47985970Y-92560671D01*
X47975480Y-92582849D01*
X47962867Y-92603893D01*
X47948253Y-92623598D01*
X47931777Y-92641777D01*
X47913598Y-92658253D01*
X47893893Y-92672867D01*
X47872849Y-92685480D01*
X47850671Y-92695970D01*
X47827571Y-92704235D01*
X47803773Y-92710196D01*
X47779504Y-92713796D01*
X47755000Y-92715000D01*
X46505000Y-92715000D01*
X46480496Y-92713796D01*
X46456227Y-92710196D01*
X46432429Y-92704235D01*
X46409329Y-92695970D01*
X46387151Y-92685480D01*
X46366107Y-92672867D01*
X46346402Y-92658253D01*
X46328223Y-92641777D01*
X46311747Y-92623598D01*
X46297133Y-92603893D01*
X46284520Y-92582849D01*
X46274030Y-92560671D01*
X46265765Y-92537571D01*
X46259804Y-92513773D01*
X46256204Y-92489504D01*
X46255000Y-92465000D01*
X46255000Y-91715000D01*
X46256204Y-91690496D01*
X46259804Y-91666227D01*
X46265765Y-91642429D01*
X46274030Y-91619329D01*
X46284520Y-91597151D01*
X46297133Y-91576107D01*
X46311747Y-91556402D01*
X46328223Y-91538223D01*
X46346402Y-91521747D01*
X46366107Y-91507133D01*
X46387151Y-91494520D01*
X46409329Y-91484030D01*
X46432429Y-91475765D01*
X46456227Y-91469804D01*
X46480496Y-91466204D01*
X46505000Y-91465000D01*
X47755000Y-91465000D01*
X47779504Y-91466204D01*
X47779504Y-91466204D01*
G37*
D17*
X47130000Y-92090000D03*
D14*
G36*
X47779504Y-88666204D02*
G01*
X47803773Y-88669804D01*
X47827571Y-88675765D01*
X47850671Y-88684030D01*
X47872849Y-88694520D01*
X47893893Y-88707133D01*
X47913598Y-88721747D01*
X47931777Y-88738223D01*
X47948253Y-88756402D01*
X47962867Y-88776107D01*
X47975480Y-88797151D01*
X47985970Y-88819329D01*
X47994235Y-88842429D01*
X48000196Y-88866227D01*
X48003796Y-88890496D01*
X48005000Y-88915000D01*
X48005000Y-89665000D01*
X48003796Y-89689504D01*
X48000196Y-89713773D01*
X47994235Y-89737571D01*
X47985970Y-89760671D01*
X47975480Y-89782849D01*
X47962867Y-89803893D01*
X47948253Y-89823598D01*
X47931777Y-89841777D01*
X47913598Y-89858253D01*
X47893893Y-89872867D01*
X47872849Y-89885480D01*
X47850671Y-89895970D01*
X47827571Y-89904235D01*
X47803773Y-89910196D01*
X47779504Y-89913796D01*
X47755000Y-89915000D01*
X46505000Y-89915000D01*
X46480496Y-89913796D01*
X46456227Y-89910196D01*
X46432429Y-89904235D01*
X46409329Y-89895970D01*
X46387151Y-89885480D01*
X46366107Y-89872867D01*
X46346402Y-89858253D01*
X46328223Y-89841777D01*
X46311747Y-89823598D01*
X46297133Y-89803893D01*
X46284520Y-89782849D01*
X46274030Y-89760671D01*
X46265765Y-89737571D01*
X46259804Y-89713773D01*
X46256204Y-89689504D01*
X46255000Y-89665000D01*
X46255000Y-88915000D01*
X46256204Y-88890496D01*
X46259804Y-88866227D01*
X46265765Y-88842429D01*
X46274030Y-88819329D01*
X46284520Y-88797151D01*
X46297133Y-88776107D01*
X46311747Y-88756402D01*
X46328223Y-88738223D01*
X46346402Y-88721747D01*
X46366107Y-88707133D01*
X46387151Y-88694520D01*
X46409329Y-88684030D01*
X46432429Y-88675765D01*
X46456227Y-88669804D01*
X46480496Y-88666204D01*
X46505000Y-88665000D01*
X47755000Y-88665000D01*
X47779504Y-88666204D01*
X47779504Y-88666204D01*
G37*
D17*
X47130000Y-89290000D03*
D13*
X98647250Y-86137750D03*
D12*
X96107250Y-86137750D03*
D10*
X94877250Y-77057750D03*
X94222251Y-77787750D03*
D11*
X93567250Y-78517750D02*
X94877252Y-77057750D01*
D10*
X99917250Y-75977750D03*
X99897250Y-76267750D03*
D11*
X99877250Y-76557750D02*
X99917250Y-75977750D01*
D13*
X117745000Y-86155000D03*
D12*
X115205000Y-86155000D03*
D10*
X113975000Y-77075000D03*
X113320001Y-77805000D03*
D11*
X112665000Y-78535000D02*
X113975002Y-77075000D01*
D10*
X119015000Y-75995000D03*
X118995000Y-76285000D03*
D11*
X118975000Y-76575000D02*
X119015000Y-75995000D01*
D10*
X99895000Y-95317750D03*
D11*
X99875000Y-95607750D02*
X99915000Y-95027750D01*
D10*
X99915000Y-95027750D03*
X94220001Y-96837750D03*
D11*
X93565000Y-97567750D02*
X94875002Y-96107750D01*
D10*
X94875000Y-96107750D03*
D12*
X96105000Y-105187750D03*
D13*
X98645000Y-105187750D03*
D14*
G36*
X52480142Y-83363674D02*
G01*
X52503803Y-83367184D01*
X52527007Y-83372996D01*
X52549529Y-83381054D01*
X52571153Y-83391282D01*
X52591670Y-83403579D01*
X52610883Y-83417829D01*
X52628607Y-83433893D01*
X52644671Y-83451617D01*
X52658921Y-83470830D01*
X52671218Y-83491347D01*
X52681446Y-83512971D01*
X52689504Y-83535493D01*
X52695316Y-83558697D01*
X52698826Y-83582358D01*
X52700000Y-83606250D01*
X52700000Y-84093750D01*
X52698826Y-84117642D01*
X52695316Y-84141303D01*
X52689504Y-84164507D01*
X52681446Y-84187029D01*
X52671218Y-84208653D01*
X52658921Y-84229170D01*
X52644671Y-84248383D01*
X52628607Y-84266107D01*
X52610883Y-84282171D01*
X52591670Y-84296421D01*
X52571153Y-84308718D01*
X52549529Y-84318946D01*
X52527007Y-84327004D01*
X52503803Y-84332816D01*
X52480142Y-84336326D01*
X52456250Y-84337500D01*
X51543750Y-84337500D01*
X51519858Y-84336326D01*
X51496197Y-84332816D01*
X51472993Y-84327004D01*
X51450471Y-84318946D01*
X51428847Y-84308718D01*
X51408330Y-84296421D01*
X51389117Y-84282171D01*
X51371393Y-84266107D01*
X51355329Y-84248383D01*
X51341079Y-84229170D01*
X51328782Y-84208653D01*
X51318554Y-84187029D01*
X51310496Y-84164507D01*
X51304684Y-84141303D01*
X51301174Y-84117642D01*
X51300000Y-84093750D01*
X51300000Y-83606250D01*
X51301174Y-83582358D01*
X51304684Y-83558697D01*
X51310496Y-83535493D01*
X51318554Y-83512971D01*
X51328782Y-83491347D01*
X51341079Y-83470830D01*
X51355329Y-83451617D01*
X51371393Y-83433893D01*
X51389117Y-83417829D01*
X51408330Y-83403579D01*
X51428847Y-83391282D01*
X51450471Y-83381054D01*
X51472993Y-83372996D01*
X51496197Y-83367184D01*
X51519858Y-83363674D01*
X51543750Y-83362500D01*
X52456250Y-83362500D01*
X52480142Y-83363674D01*
X52480142Y-83363674D01*
G37*
D15*
X52000000Y-83850000D03*
D14*
G36*
X52480142Y-85238674D02*
G01*
X52503803Y-85242184D01*
X52527007Y-85247996D01*
X52549529Y-85256054D01*
X52571153Y-85266282D01*
X52591670Y-85278579D01*
X52610883Y-85292829D01*
X52628607Y-85308893D01*
X52644671Y-85326617D01*
X52658921Y-85345830D01*
X52671218Y-85366347D01*
X52681446Y-85387971D01*
X52689504Y-85410493D01*
X52695316Y-85433697D01*
X52698826Y-85457358D01*
X52700000Y-85481250D01*
X52700000Y-85968750D01*
X52698826Y-85992642D01*
X52695316Y-86016303D01*
X52689504Y-86039507D01*
X52681446Y-86062029D01*
X52671218Y-86083653D01*
X52658921Y-86104170D01*
X52644671Y-86123383D01*
X52628607Y-86141107D01*
X52610883Y-86157171D01*
X52591670Y-86171421D01*
X52571153Y-86183718D01*
X52549529Y-86193946D01*
X52527007Y-86202004D01*
X52503803Y-86207816D01*
X52480142Y-86211326D01*
X52456250Y-86212500D01*
X51543750Y-86212500D01*
X51519858Y-86211326D01*
X51496197Y-86207816D01*
X51472993Y-86202004D01*
X51450471Y-86193946D01*
X51428847Y-86183718D01*
X51408330Y-86171421D01*
X51389117Y-86157171D01*
X51371393Y-86141107D01*
X51355329Y-86123383D01*
X51341079Y-86104170D01*
X51328782Y-86083653D01*
X51318554Y-86062029D01*
X51310496Y-86039507D01*
X51304684Y-86016303D01*
X51301174Y-85992642D01*
X51300000Y-85968750D01*
X51300000Y-85481250D01*
X51301174Y-85457358D01*
X51304684Y-85433697D01*
X51310496Y-85410493D01*
X51318554Y-85387971D01*
X51328782Y-85366347D01*
X51341079Y-85345830D01*
X51355329Y-85326617D01*
X51371393Y-85308893D01*
X51389117Y-85292829D01*
X51408330Y-85278579D01*
X51428847Y-85266282D01*
X51450471Y-85256054D01*
X51472993Y-85247996D01*
X51496197Y-85242184D01*
X51519858Y-85238674D01*
X51543750Y-85237500D01*
X52456250Y-85237500D01*
X52480142Y-85238674D01*
X52480142Y-85238674D01*
G37*
D15*
X52000000Y-85725000D03*
D14*
G36*
X55530142Y-85351174D02*
G01*
X55553803Y-85354684D01*
X55577007Y-85360496D01*
X55599529Y-85368554D01*
X55621153Y-85378782D01*
X55641670Y-85391079D01*
X55660883Y-85405329D01*
X55678607Y-85421393D01*
X55694671Y-85439117D01*
X55708921Y-85458330D01*
X55721218Y-85478847D01*
X55731446Y-85500471D01*
X55739504Y-85522993D01*
X55745316Y-85546197D01*
X55748826Y-85569858D01*
X55750000Y-85593750D01*
X55750000Y-86081250D01*
X55748826Y-86105142D01*
X55745316Y-86128803D01*
X55739504Y-86152007D01*
X55731446Y-86174529D01*
X55721218Y-86196153D01*
X55708921Y-86216670D01*
X55694671Y-86235883D01*
X55678607Y-86253607D01*
X55660883Y-86269671D01*
X55641670Y-86283921D01*
X55621153Y-86296218D01*
X55599529Y-86306446D01*
X55577007Y-86314504D01*
X55553803Y-86320316D01*
X55530142Y-86323826D01*
X55506250Y-86325000D01*
X54593750Y-86325000D01*
X54569858Y-86323826D01*
X54546197Y-86320316D01*
X54522993Y-86314504D01*
X54500471Y-86306446D01*
X54478847Y-86296218D01*
X54458330Y-86283921D01*
X54439117Y-86269671D01*
X54421393Y-86253607D01*
X54405329Y-86235883D01*
X54391079Y-86216670D01*
X54378782Y-86196153D01*
X54368554Y-86174529D01*
X54360496Y-86152007D01*
X54354684Y-86128803D01*
X54351174Y-86105142D01*
X54350000Y-86081250D01*
X54350000Y-85593750D01*
X54351174Y-85569858D01*
X54354684Y-85546197D01*
X54360496Y-85522993D01*
X54368554Y-85500471D01*
X54378782Y-85478847D01*
X54391079Y-85458330D01*
X54405329Y-85439117D01*
X54421393Y-85421393D01*
X54439117Y-85405329D01*
X54458330Y-85391079D01*
X54478847Y-85378782D01*
X54500471Y-85368554D01*
X54522993Y-85360496D01*
X54546197Y-85354684D01*
X54569858Y-85351174D01*
X54593750Y-85350000D01*
X55506250Y-85350000D01*
X55530142Y-85351174D01*
X55530142Y-85351174D01*
G37*
D15*
X55050000Y-85837500D03*
D14*
G36*
X55530142Y-83476174D02*
G01*
X55553803Y-83479684D01*
X55577007Y-83485496D01*
X55599529Y-83493554D01*
X55621153Y-83503782D01*
X55641670Y-83516079D01*
X55660883Y-83530329D01*
X55678607Y-83546393D01*
X55694671Y-83564117D01*
X55708921Y-83583330D01*
X55721218Y-83603847D01*
X55731446Y-83625471D01*
X55739504Y-83647993D01*
X55745316Y-83671197D01*
X55748826Y-83694858D01*
X55750000Y-83718750D01*
X55750000Y-84206250D01*
X55748826Y-84230142D01*
X55745316Y-84253803D01*
X55739504Y-84277007D01*
X55731446Y-84299529D01*
X55721218Y-84321153D01*
X55708921Y-84341670D01*
X55694671Y-84360883D01*
X55678607Y-84378607D01*
X55660883Y-84394671D01*
X55641670Y-84408921D01*
X55621153Y-84421218D01*
X55599529Y-84431446D01*
X55577007Y-84439504D01*
X55553803Y-84445316D01*
X55530142Y-84448826D01*
X55506250Y-84450000D01*
X54593750Y-84450000D01*
X54569858Y-84448826D01*
X54546197Y-84445316D01*
X54522993Y-84439504D01*
X54500471Y-84431446D01*
X54478847Y-84421218D01*
X54458330Y-84408921D01*
X54439117Y-84394671D01*
X54421393Y-84378607D01*
X54405329Y-84360883D01*
X54391079Y-84341670D01*
X54378782Y-84321153D01*
X54368554Y-84299529D01*
X54360496Y-84277007D01*
X54354684Y-84253803D01*
X54351174Y-84230142D01*
X54350000Y-84206250D01*
X54350000Y-83718750D01*
X54351174Y-83694858D01*
X54354684Y-83671197D01*
X54360496Y-83647993D01*
X54368554Y-83625471D01*
X54378782Y-83603847D01*
X54391079Y-83583330D01*
X54405329Y-83564117D01*
X54421393Y-83546393D01*
X54439117Y-83530329D01*
X54458330Y-83516079D01*
X54478847Y-83503782D01*
X54500471Y-83493554D01*
X54522993Y-83485496D01*
X54546197Y-83479684D01*
X54569858Y-83476174D01*
X54593750Y-83475000D01*
X55506250Y-83475000D01*
X55530142Y-83476174D01*
X55530142Y-83476174D01*
G37*
D15*
X55050000Y-83962500D03*
D14*
G36*
X62480142Y-82163674D02*
G01*
X62503803Y-82167184D01*
X62527007Y-82172996D01*
X62549529Y-82181054D01*
X62571153Y-82191282D01*
X62591670Y-82203579D01*
X62610883Y-82217829D01*
X62628607Y-82233893D01*
X62644671Y-82251617D01*
X62658921Y-82270830D01*
X62671218Y-82291347D01*
X62681446Y-82312971D01*
X62689504Y-82335493D01*
X62695316Y-82358697D01*
X62698826Y-82382358D01*
X62700000Y-82406250D01*
X62700000Y-82893750D01*
X62698826Y-82917642D01*
X62695316Y-82941303D01*
X62689504Y-82964507D01*
X62681446Y-82987029D01*
X62671218Y-83008653D01*
X62658921Y-83029170D01*
X62644671Y-83048383D01*
X62628607Y-83066107D01*
X62610883Y-83082171D01*
X62591670Y-83096421D01*
X62571153Y-83108718D01*
X62549529Y-83118946D01*
X62527007Y-83127004D01*
X62503803Y-83132816D01*
X62480142Y-83136326D01*
X62456250Y-83137500D01*
X61543750Y-83137500D01*
X61519858Y-83136326D01*
X61496197Y-83132816D01*
X61472993Y-83127004D01*
X61450471Y-83118946D01*
X61428847Y-83108718D01*
X61408330Y-83096421D01*
X61389117Y-83082171D01*
X61371393Y-83066107D01*
X61355329Y-83048383D01*
X61341079Y-83029170D01*
X61328782Y-83008653D01*
X61318554Y-82987029D01*
X61310496Y-82964507D01*
X61304684Y-82941303D01*
X61301174Y-82917642D01*
X61300000Y-82893750D01*
X61300000Y-82406250D01*
X61301174Y-82382358D01*
X61304684Y-82358697D01*
X61310496Y-82335493D01*
X61318554Y-82312971D01*
X61328782Y-82291347D01*
X61341079Y-82270830D01*
X61355329Y-82251617D01*
X61371393Y-82233893D01*
X61389117Y-82217829D01*
X61408330Y-82203579D01*
X61428847Y-82191282D01*
X61450471Y-82181054D01*
X61472993Y-82172996D01*
X61496197Y-82167184D01*
X61519858Y-82163674D01*
X61543750Y-82162500D01*
X62456250Y-82162500D01*
X62480142Y-82163674D01*
X62480142Y-82163674D01*
G37*
D15*
X62000000Y-82650000D03*
D14*
G36*
X62480142Y-80288674D02*
G01*
X62503803Y-80292184D01*
X62527007Y-80297996D01*
X62549529Y-80306054D01*
X62571153Y-80316282D01*
X62591670Y-80328579D01*
X62610883Y-80342829D01*
X62628607Y-80358893D01*
X62644671Y-80376617D01*
X62658921Y-80395830D01*
X62671218Y-80416347D01*
X62681446Y-80437971D01*
X62689504Y-80460493D01*
X62695316Y-80483697D01*
X62698826Y-80507358D01*
X62700000Y-80531250D01*
X62700000Y-81018750D01*
X62698826Y-81042642D01*
X62695316Y-81066303D01*
X62689504Y-81089507D01*
X62681446Y-81112029D01*
X62671218Y-81133653D01*
X62658921Y-81154170D01*
X62644671Y-81173383D01*
X62628607Y-81191107D01*
X62610883Y-81207171D01*
X62591670Y-81221421D01*
X62571153Y-81233718D01*
X62549529Y-81243946D01*
X62527007Y-81252004D01*
X62503803Y-81257816D01*
X62480142Y-81261326D01*
X62456250Y-81262500D01*
X61543750Y-81262500D01*
X61519858Y-81261326D01*
X61496197Y-81257816D01*
X61472993Y-81252004D01*
X61450471Y-81243946D01*
X61428847Y-81233718D01*
X61408330Y-81221421D01*
X61389117Y-81207171D01*
X61371393Y-81191107D01*
X61355329Y-81173383D01*
X61341079Y-81154170D01*
X61328782Y-81133653D01*
X61318554Y-81112029D01*
X61310496Y-81089507D01*
X61304684Y-81066303D01*
X61301174Y-81042642D01*
X61300000Y-81018750D01*
X61300000Y-80531250D01*
X61301174Y-80507358D01*
X61304684Y-80483697D01*
X61310496Y-80460493D01*
X61318554Y-80437971D01*
X61328782Y-80416347D01*
X61341079Y-80395830D01*
X61355329Y-80376617D01*
X61371393Y-80358893D01*
X61389117Y-80342829D01*
X61408330Y-80328579D01*
X61428847Y-80316282D01*
X61450471Y-80306054D01*
X61472993Y-80297996D01*
X61496197Y-80292184D01*
X61519858Y-80288674D01*
X61543750Y-80287500D01*
X62456250Y-80287500D01*
X62480142Y-80288674D01*
X62480142Y-80288674D01*
G37*
D15*
X62000000Y-80775000D03*
D14*
G36*
X86680142Y-99838674D02*
G01*
X86703803Y-99842184D01*
X86727007Y-99847996D01*
X86749529Y-99856054D01*
X86771153Y-99866282D01*
X86791670Y-99878579D01*
X86810883Y-99892829D01*
X86828607Y-99908893D01*
X86844671Y-99926617D01*
X86858921Y-99945830D01*
X86871218Y-99966347D01*
X86881446Y-99987971D01*
X86889504Y-100010493D01*
X86895316Y-100033697D01*
X86898826Y-100057358D01*
X86900000Y-100081250D01*
X86900000Y-100568750D01*
X86898826Y-100592642D01*
X86895316Y-100616303D01*
X86889504Y-100639507D01*
X86881446Y-100662029D01*
X86871218Y-100683653D01*
X86858921Y-100704170D01*
X86844671Y-100723383D01*
X86828607Y-100741107D01*
X86810883Y-100757171D01*
X86791670Y-100771421D01*
X86771153Y-100783718D01*
X86749529Y-100793946D01*
X86727007Y-100802004D01*
X86703803Y-100807816D01*
X86680142Y-100811326D01*
X86656250Y-100812500D01*
X85743750Y-100812500D01*
X85719858Y-100811326D01*
X85696197Y-100807816D01*
X85672993Y-100802004D01*
X85650471Y-100793946D01*
X85628847Y-100783718D01*
X85608330Y-100771421D01*
X85589117Y-100757171D01*
X85571393Y-100741107D01*
X85555329Y-100723383D01*
X85541079Y-100704170D01*
X85528782Y-100683653D01*
X85518554Y-100662029D01*
X85510496Y-100639507D01*
X85504684Y-100616303D01*
X85501174Y-100592642D01*
X85500000Y-100568750D01*
X85500000Y-100081250D01*
X85501174Y-100057358D01*
X85504684Y-100033697D01*
X85510496Y-100010493D01*
X85518554Y-99987971D01*
X85528782Y-99966347D01*
X85541079Y-99945830D01*
X85555329Y-99926617D01*
X85571393Y-99908893D01*
X85589117Y-99892829D01*
X85608330Y-99878579D01*
X85628847Y-99866282D01*
X85650471Y-99856054D01*
X85672993Y-99847996D01*
X85696197Y-99842184D01*
X85719858Y-99838674D01*
X85743750Y-99837500D01*
X86656250Y-99837500D01*
X86680142Y-99838674D01*
X86680142Y-99838674D01*
G37*
D15*
X86200000Y-100325000D03*
D14*
G36*
X86680142Y-97963674D02*
G01*
X86703803Y-97967184D01*
X86727007Y-97972996D01*
X86749529Y-97981054D01*
X86771153Y-97991282D01*
X86791670Y-98003579D01*
X86810883Y-98017829D01*
X86828607Y-98033893D01*
X86844671Y-98051617D01*
X86858921Y-98070830D01*
X86871218Y-98091347D01*
X86881446Y-98112971D01*
X86889504Y-98135493D01*
X86895316Y-98158697D01*
X86898826Y-98182358D01*
X86900000Y-98206250D01*
X86900000Y-98693750D01*
X86898826Y-98717642D01*
X86895316Y-98741303D01*
X86889504Y-98764507D01*
X86881446Y-98787029D01*
X86871218Y-98808653D01*
X86858921Y-98829170D01*
X86844671Y-98848383D01*
X86828607Y-98866107D01*
X86810883Y-98882171D01*
X86791670Y-98896421D01*
X86771153Y-98908718D01*
X86749529Y-98918946D01*
X86727007Y-98927004D01*
X86703803Y-98932816D01*
X86680142Y-98936326D01*
X86656250Y-98937500D01*
X85743750Y-98937500D01*
X85719858Y-98936326D01*
X85696197Y-98932816D01*
X85672993Y-98927004D01*
X85650471Y-98918946D01*
X85628847Y-98908718D01*
X85608330Y-98896421D01*
X85589117Y-98882171D01*
X85571393Y-98866107D01*
X85555329Y-98848383D01*
X85541079Y-98829170D01*
X85528782Y-98808653D01*
X85518554Y-98787029D01*
X85510496Y-98764507D01*
X85504684Y-98741303D01*
X85501174Y-98717642D01*
X85500000Y-98693750D01*
X85500000Y-98206250D01*
X85501174Y-98182358D01*
X85504684Y-98158697D01*
X85510496Y-98135493D01*
X85518554Y-98112971D01*
X85528782Y-98091347D01*
X85541079Y-98070830D01*
X85555329Y-98051617D01*
X85571393Y-98033893D01*
X85589117Y-98017829D01*
X85608330Y-98003579D01*
X85628847Y-97991282D01*
X85650471Y-97981054D01*
X85672993Y-97972996D01*
X85696197Y-97967184D01*
X85719858Y-97963674D01*
X85743750Y-97962500D01*
X86656250Y-97962500D01*
X86680142Y-97963674D01*
X86680142Y-97963674D01*
G37*
D15*
X86200000Y-98450000D03*
D18*
X50400000Y-103075000D03*
X56600000Y-99375000D03*
X50400000Y-99375000D03*
X56600000Y-103075000D03*
D19*
X70624000Y-97356500D03*
X70624000Y-96556500D03*
X70624000Y-95756500D03*
X70624000Y-94956500D03*
X70624000Y-94156500D03*
X70624000Y-93356500D03*
X70624000Y-92556500D03*
X70624000Y-91756500D03*
X70624000Y-90956500D03*
X70624000Y-90156500D03*
X70624000Y-89356500D03*
D20*
X72324000Y-87656500D03*
X73124000Y-87656500D03*
X73924000Y-87656500D03*
X74724000Y-87656500D03*
X75524000Y-87656500D03*
X76324000Y-87656500D03*
X77124000Y-87656500D03*
X77924000Y-87656500D03*
X78724000Y-87656500D03*
X79524000Y-87656500D03*
X80324000Y-87656500D03*
D19*
X82024000Y-89356500D03*
X82024000Y-90156500D03*
X82024000Y-90956500D03*
X82024000Y-91756500D03*
X82024000Y-92556500D03*
X82024000Y-93356500D03*
X82024000Y-94156500D03*
X82024000Y-94956500D03*
X82024000Y-95756500D03*
X82024000Y-96556500D03*
X82024000Y-97356500D03*
D20*
X80324000Y-99056500D03*
X79524000Y-99056500D03*
X78724000Y-99056500D03*
X77924000Y-99056500D03*
X77124000Y-99056500D03*
X76324000Y-99056500D03*
X75524000Y-99056500D03*
X74724000Y-99056500D03*
X73924000Y-99056500D03*
X73124000Y-99056500D03*
X72324000Y-99056500D03*
D21*
X55550000Y-77144000D03*
X54750000Y-77144000D03*
X53950000Y-77144000D03*
X53150000Y-77144000D03*
X52350000Y-77144000D03*
D22*
X50300000Y-77144000D03*
X57600000Y-77144000D03*
X57600000Y-72644000D03*
X50300000Y-72644000D03*
D23*
X77142000Y-80264000D03*
X74942000Y-80264000D03*
X74942000Y-78564000D03*
X77142000Y-78564000D03*
D24*
X74930000Y-90678000D03*
X79502000Y-90932000D03*
X72675000Y-82525000D03*
X76350000Y-82550000D03*
X65278000Y-83548400D03*
X66548000Y-93218000D03*
X103378000Y-96012000D03*
X86868000Y-92202000D03*
X103378000Y-91186000D03*
X120904000Y-92202000D03*
X84836000Y-94234000D03*
X88646000Y-79756000D03*
X103378000Y-92456000D03*
X109982000Y-92456000D03*
X91440000Y-93218000D03*
X91440000Y-96012000D03*
X60625000Y-98100000D03*
X61100000Y-86125000D03*
D25*
X47130000Y-92090000D02*
X47825710Y-92785710D01*
X64468763Y-98143763D02*
X65025000Y-98700000D01*
X47130000Y-92815000D02*
X50840000Y-96525000D01*
X47130000Y-92090000D02*
X47130000Y-92815000D01*
X62850000Y-96525000D02*
X65025000Y-98700000D01*
X50840000Y-96525000D02*
X62850000Y-96525000D01*
X62012500Y-80787500D02*
X62000000Y-80775000D01*
X65300000Y-80787500D02*
X62012500Y-80787500D01*
X68359290Y-83846790D02*
X72071790Y-83846790D01*
X65300000Y-80787500D02*
X68359290Y-83846790D01*
X73924000Y-85699000D02*
X73924000Y-87656500D01*
X72071790Y-83846790D02*
X73924000Y-85699000D01*
X82155000Y-90287500D02*
X82024000Y-90156500D01*
X85550000Y-90287500D02*
X82155000Y-90287500D01*
X69670800Y-96556500D02*
X70624000Y-96556500D01*
X67168500Y-96556500D02*
X69670800Y-96556500D01*
X65025000Y-98700000D02*
X67168500Y-96556500D01*
X83000000Y-102825000D02*
X83000000Y-101150000D01*
X80324000Y-100749000D02*
X80324000Y-99056500D01*
X83000000Y-101150000D02*
X82725000Y-100875000D01*
X80450000Y-100875000D02*
X80324000Y-100749000D01*
X82725000Y-100875000D02*
X80450000Y-100875000D01*
X73924000Y-87656500D02*
X73924000Y-89672000D01*
X73924000Y-89672000D02*
X74930000Y-90678000D01*
X80277500Y-90156500D02*
X82024000Y-90156500D01*
X79502000Y-90932000D02*
X80277500Y-90156500D01*
X71577200Y-92556500D02*
X70624000Y-92556500D01*
X73924000Y-90209700D02*
X71577200Y-92556500D01*
X73924000Y-89672000D02*
X73924000Y-90209700D01*
X50400000Y-103828200D02*
X53671800Y-107100000D01*
X50400000Y-103075000D02*
X50400000Y-103828200D01*
X53671800Y-107100000D02*
X64950000Y-107100000D01*
X65025000Y-107025000D02*
X65025000Y-100575000D01*
X64950000Y-107100000D02*
X65025000Y-107025000D01*
X65825000Y-100575000D02*
X68300000Y-103050000D01*
X65025000Y-100575000D02*
X65825000Y-100575000D01*
X70083700Y-103050000D02*
X73124000Y-100009700D01*
X68300000Y-103050000D02*
X70083700Y-103050000D01*
X81125000Y-102825000D02*
X81125000Y-101575000D01*
X81125000Y-101575000D02*
X80850000Y-101300000D01*
X79524000Y-100009700D02*
X79524000Y-99056500D01*
X79524000Y-100519225D02*
X79524000Y-100009700D01*
X80304775Y-101300000D02*
X79524000Y-100519225D01*
X80850000Y-101300000D02*
X80304775Y-101300000D01*
X81125000Y-102825000D02*
X81125000Y-103625000D01*
X79524000Y-98103300D02*
X77900000Y-96479300D01*
X79524000Y-99056500D02*
X79524000Y-98103300D01*
X77900000Y-96479300D02*
X77900000Y-90875000D01*
X79418500Y-89356500D02*
X82024000Y-89356500D01*
X77900000Y-90875000D02*
X79418500Y-89356500D01*
X74724000Y-88609700D02*
X74724000Y-87656500D01*
X76989300Y-90875000D02*
X74724000Y-88609700D01*
X77900000Y-90875000D02*
X76989300Y-90875000D01*
X70624000Y-94156500D02*
X71581500Y-94156500D01*
X73124000Y-95699000D02*
X73124000Y-99056500D01*
X71581500Y-94156500D02*
X73124000Y-95699000D01*
X77119700Y-95699000D02*
X77900000Y-96479300D01*
X73124000Y-95699000D02*
X77119700Y-95699000D01*
X55550000Y-77020000D02*
X55550000Y-77895000D01*
X58055000Y-92555000D02*
X59656500Y-94156500D01*
X72375000Y-80175000D02*
X71575000Y-80175000D01*
X77042000Y-78564000D02*
X77142000Y-78564000D01*
X71575000Y-80175000D02*
X70075000Y-78675000D01*
X70075000Y-78675000D02*
X70075000Y-75875000D01*
X70075000Y-75875000D02*
X70550000Y-75400000D01*
X70550000Y-75400000D02*
X73878000Y-75400000D01*
X73878000Y-75400000D02*
X77042000Y-78564000D01*
X79711000Y-78564000D02*
X79975000Y-78300000D01*
X77142000Y-78564000D02*
X79711000Y-78564000D01*
X74724000Y-86703300D02*
X74724000Y-87656500D01*
X74724000Y-83111500D02*
X74724000Y-86703300D01*
X72375000Y-80762500D02*
X74724000Y-83111500D01*
X72375000Y-80175000D02*
X72375000Y-80762500D01*
X73124000Y-100009700D02*
X73124000Y-99056500D01*
X73025599Y-100108101D02*
X73124000Y-100009700D01*
X72375000Y-80175000D02*
X72375000Y-82225000D01*
X72375000Y-82225000D02*
X72675000Y-82525000D01*
X75042000Y-80264000D02*
X74942000Y-80264000D01*
X76350000Y-81572000D02*
X75042000Y-80264000D01*
X76350000Y-82550000D02*
X76350000Y-81572000D01*
X82024000Y-88878300D02*
X82024000Y-89356500D01*
X82489800Y-88412500D02*
X82024000Y-88878300D01*
X85550000Y-88412500D02*
X82489800Y-88412500D01*
X62561500Y-92251000D02*
X62561500Y-94156500D01*
X63537500Y-91275000D02*
X62561500Y-92251000D01*
X64125000Y-91275000D02*
X63537500Y-91275000D01*
X59656500Y-94156500D02*
X62561500Y-94156500D01*
X86200000Y-100325000D02*
X86200000Y-103538000D01*
X86200000Y-103538000D02*
X85090000Y-104648000D01*
X82948000Y-104648000D02*
X81125000Y-102825000D01*
X85090000Y-104648000D02*
X82948000Y-104648000D01*
X65300000Y-82662500D02*
X65300000Y-83526400D01*
X65300000Y-83526400D02*
X65278000Y-83548400D01*
X68311275Y-94156500D02*
X69518500Y-94156500D01*
X67772774Y-93617999D02*
X68311275Y-94156500D01*
X66947999Y-93617999D02*
X67772774Y-93617999D01*
X66548000Y-93218000D02*
X66947999Y-93617999D01*
X62561500Y-94156500D02*
X69518500Y-94156500D01*
X69518500Y-94156500D02*
X70624000Y-94156500D01*
X55550000Y-79488200D02*
X55550000Y-78160000D01*
X58055000Y-81993200D02*
X55550000Y-79488200D01*
X58055000Y-92555000D02*
X58055000Y-81993200D01*
X77231000Y-80175000D02*
X77142000Y-80264000D01*
X79975000Y-80175000D02*
X77231000Y-80175000D01*
X77142000Y-81067200D02*
X77150000Y-81075200D01*
X77142000Y-80264000D02*
X77142000Y-81067200D01*
X77150000Y-81075200D02*
X77150000Y-84400000D01*
X76324000Y-85226000D02*
X76324000Y-87656500D01*
X77150000Y-84400000D02*
X76324000Y-85226000D01*
X74678000Y-78300000D02*
X74942000Y-78564000D01*
X72375000Y-78300000D02*
X74678000Y-78300000D01*
X74038800Y-78564000D02*
X73800000Y-78802800D01*
X74942000Y-78564000D02*
X74038800Y-78564000D01*
X75524000Y-86703300D02*
X75524000Y-87656500D01*
X75524000Y-82688882D02*
X75524000Y-86703300D01*
X73800000Y-80964882D02*
X75524000Y-82688882D01*
X73800000Y-78802800D02*
X73800000Y-80964882D01*
X66000000Y-91275000D02*
X68081500Y-93356500D01*
X68081500Y-93356500D02*
X70624000Y-93356500D01*
X105410000Y-97264800D02*
X105410000Y-83184000D01*
X105410000Y-97918000D02*
X105410000Y-97264800D01*
X103378000Y-96036000D02*
X103378000Y-96012000D01*
X105410000Y-97918000D02*
X105260000Y-97918000D01*
X105260000Y-97918000D02*
X103378000Y-96036000D01*
X82977200Y-92556500D02*
X82024000Y-92556500D01*
X85947815Y-92556500D02*
X82977200Y-92556500D01*
X86302315Y-92202000D02*
X85947815Y-92556500D01*
X86868000Y-92202000D02*
X86302315Y-92202000D01*
X100497250Y-76557750D02*
X99877250Y-76557750D01*
X103823500Y-79884000D02*
X100497250Y-76557750D01*
X105410000Y-79884000D02*
X103823500Y-79884000D01*
X119595000Y-76575000D02*
X118975000Y-76575000D01*
X122650000Y-79630000D02*
X119595000Y-76575000D01*
X124460000Y-79630000D02*
X122650000Y-79630000D01*
X97685380Y-91186000D02*
X103378000Y-91186000D01*
X82024000Y-94956500D02*
X93914880Y-94956500D01*
X93914880Y-94956500D02*
X97685380Y-91186000D01*
X124460000Y-95758000D02*
X124460000Y-97790000D01*
X120904000Y-92202000D02*
X124460000Y-95758000D01*
X124460000Y-98426000D02*
X124460000Y-97790000D01*
X124460000Y-97790000D02*
X124460000Y-82930000D01*
X99875000Y-95607750D02*
X100232750Y-95607750D01*
X105410000Y-101871200D02*
X103903200Y-103378000D01*
X105410000Y-101218000D02*
X105410000Y-101871200D01*
X103903200Y-103378000D02*
X102616000Y-103378000D01*
X99915000Y-95647750D02*
X99875000Y-95607750D01*
X99915000Y-100677000D02*
X99915000Y-95647750D01*
X102616000Y-103378000D02*
X99915000Y-100677000D01*
X124460000Y-102379200D02*
X123207200Y-103632000D01*
X124460000Y-101726000D02*
X124460000Y-102379200D01*
X123207200Y-103632000D02*
X121158000Y-103632000D01*
X119000000Y-101474000D02*
X119000000Y-95625000D01*
X121158000Y-103632000D02*
X119000000Y-101474000D01*
X52350000Y-77166139D02*
X52387946Y-77030624D01*
X52350000Y-80478742D02*
X52350000Y-77166139D01*
X47130000Y-89290000D02*
X47130000Y-85698742D01*
X47130000Y-85698742D02*
X52350000Y-80478742D01*
X93567250Y-75342750D02*
X95250000Y-73660000D01*
X93567250Y-78517750D02*
X93567250Y-75342750D01*
X110560000Y-73660000D02*
X113975000Y-77075000D01*
X95250000Y-73660000D02*
X110560000Y-73660000D01*
X82024000Y-94156500D02*
X84758500Y-94156500D01*
X84758500Y-94156500D02*
X84836000Y-94234000D01*
X92728999Y-79356001D02*
X93567250Y-78517750D01*
X89045999Y-79356001D02*
X92728999Y-79356001D01*
X88646000Y-79756000D02*
X89045999Y-79356001D01*
X93565000Y-97567750D02*
X93565000Y-95919000D01*
X93565000Y-95919000D02*
X97028000Y-92456000D01*
X97028000Y-92456000D02*
X103378000Y-92456000D01*
X113651000Y-96125000D02*
X114000000Y-96125000D01*
X109982000Y-92456000D02*
X113651000Y-96125000D01*
X82024000Y-93356500D02*
X91301500Y-93356500D01*
X91301500Y-93356500D02*
X91440000Y-93218000D01*
X92009250Y-96012000D02*
X93565000Y-97567750D01*
X91440000Y-96012000D02*
X92009250Y-96012000D01*
X53150000Y-78348200D02*
X53150000Y-77020000D01*
X53150000Y-82700000D02*
X53150000Y-77020000D01*
X52000000Y-83850000D02*
X53150000Y-82700000D01*
X52000000Y-86312500D02*
X53375000Y-87687500D01*
X52000000Y-85725000D02*
X52000000Y-86312500D01*
X53375000Y-87687500D02*
X53375000Y-91475000D01*
X57656500Y-95756500D02*
X70624000Y-95756500D01*
X53375000Y-91475000D02*
X57656500Y-95756500D01*
X55050000Y-86425000D02*
X54025000Y-87450000D01*
X55050000Y-85837500D02*
X55050000Y-86425000D01*
X54025000Y-87450000D02*
X54025000Y-91275000D01*
X57706500Y-94956500D02*
X70624000Y-94956500D01*
X54025000Y-91275000D02*
X57706500Y-94956500D01*
X53950000Y-82862500D02*
X55050000Y-83962500D01*
X53950000Y-77020000D02*
X53950000Y-82862500D01*
X62000000Y-83237500D02*
X63012500Y-84250000D01*
X62000000Y-82650000D02*
X62000000Y-83237500D01*
X73124000Y-86703300D02*
X73124000Y-87656500D01*
X73124000Y-85949000D02*
X73124000Y-86703300D01*
X71425000Y-84250000D02*
X73124000Y-85949000D01*
X63012500Y-84250000D02*
X71425000Y-84250000D01*
X56600000Y-99375000D02*
X57703200Y-99375000D01*
X56600000Y-99375000D02*
X59350000Y-99375000D01*
X59350000Y-99375000D02*
X60625000Y-98100000D01*
X61100000Y-83550000D02*
X62000000Y-82650000D01*
X61100000Y-86125000D02*
X61100000Y-83550000D01*
X85106500Y-97356500D02*
X82024000Y-97356500D01*
X86200000Y-98450000D02*
X85106500Y-97356500D01*
D26*
G36*
X48876407Y-73566709D02*
G01*
X48921401Y-73715033D01*
X49059294Y-73973013D01*
X49244866Y-74199134D01*
X49470986Y-74384706D01*
X49728966Y-74522599D01*
X50008889Y-74607513D01*
X50300000Y-74636185D01*
X50591110Y-74607513D01*
X50871033Y-74522599D01*
X51129013Y-74384706D01*
X51355134Y-74199134D01*
X51540706Y-73973014D01*
X51678599Y-73715034D01*
X51718492Y-73583526D01*
X56189534Y-73609982D01*
X56221401Y-73715033D01*
X56359294Y-73973013D01*
X56544866Y-74199134D01*
X56770986Y-74384706D01*
X57028966Y-74522599D01*
X57308889Y-74607513D01*
X57600000Y-74636185D01*
X57891110Y-74607513D01*
X58171033Y-74522599D01*
X58429013Y-74384706D01*
X58655134Y-74199134D01*
X58840706Y-73973014D01*
X58978599Y-73715034D01*
X59005412Y-73626644D01*
X85979000Y-73786251D01*
X85979000Y-87288938D01*
X85835750Y-87290000D01*
X85677000Y-87448750D01*
X85677000Y-88285500D01*
X85697000Y-88285500D01*
X85697000Y-88539500D01*
X85677000Y-88539500D01*
X85677000Y-88559500D01*
X85423000Y-88559500D01*
X85423000Y-88539500D01*
X84373750Y-88539500D01*
X84215000Y-88698250D01*
X84211928Y-88900000D01*
X84224188Y-89024482D01*
X84260498Y-89144180D01*
X84319463Y-89254494D01*
X84398815Y-89351185D01*
X84476564Y-89414992D01*
X84470208Y-89420208D01*
X84362952Y-89550900D01*
X83317650Y-89550900D01*
X83316917Y-89550167D01*
X83304537Y-89527006D01*
X83225185Y-89430315D01*
X83128494Y-89350963D01*
X83018180Y-89291998D01*
X82898482Y-89255688D01*
X82774000Y-89243428D01*
X81274000Y-89243428D01*
X81149518Y-89255688D01*
X81029820Y-89291998D01*
X80919506Y-89350963D01*
X80835506Y-89419900D01*
X80313686Y-89419900D01*
X80277500Y-89416336D01*
X80241314Y-89419900D01*
X80133101Y-89430558D01*
X79994251Y-89472678D01*
X79866287Y-89541076D01*
X79754125Y-89633125D01*
X79731059Y-89661231D01*
X79495290Y-89897000D01*
X79400061Y-89897000D01*
X79200102Y-89936774D01*
X79011744Y-90014795D01*
X78842226Y-90128063D01*
X78698063Y-90272226D01*
X78584795Y-90441744D01*
X78506774Y-90630102D01*
X78467000Y-90830061D01*
X78467000Y-91033939D01*
X78506774Y-91233898D01*
X78584795Y-91422256D01*
X78698063Y-91591774D01*
X78842226Y-91735937D01*
X79011744Y-91849205D01*
X79200102Y-91927226D01*
X79400061Y-91967000D01*
X79603939Y-91967000D01*
X79803898Y-91927226D01*
X79992256Y-91849205D01*
X80161774Y-91735937D01*
X80305937Y-91591774D01*
X80419205Y-91422256D01*
X80497226Y-91233898D01*
X80537000Y-91033939D01*
X80537000Y-90938710D01*
X80582610Y-90893100D01*
X80635928Y-90893100D01*
X80635928Y-91231500D01*
X80648188Y-91355982D01*
X80648345Y-91356500D01*
X80648188Y-91357018D01*
X80635928Y-91481500D01*
X80635928Y-92031500D01*
X80648188Y-92155982D01*
X80648345Y-92156500D01*
X80648188Y-92157018D01*
X80635928Y-92281500D01*
X80635928Y-92831500D01*
X80648188Y-92955982D01*
X80648345Y-92956500D01*
X80648188Y-92957018D01*
X80635928Y-93081500D01*
X80635928Y-93631500D01*
X80648188Y-93755982D01*
X80648345Y-93756500D01*
X80648188Y-93757018D01*
X80635928Y-93881500D01*
X80635928Y-94431500D01*
X80648188Y-94555982D01*
X80648345Y-94556500D01*
X80648188Y-94557018D01*
X80635928Y-94681500D01*
X80635928Y-95231500D01*
X80648188Y-95355982D01*
X80648345Y-95356500D01*
X80648188Y-95357018D01*
X80635928Y-95481500D01*
X80635928Y-96031500D01*
X80648188Y-96155982D01*
X80648345Y-96156500D01*
X80648188Y-96157018D01*
X80635928Y-96281500D01*
X80635928Y-96831500D01*
X80648188Y-96955982D01*
X80648345Y-96956500D01*
X80648188Y-96957018D01*
X80635928Y-97081500D01*
X80635928Y-97631500D01*
X80639962Y-97672462D01*
X80599000Y-97668428D01*
X80049000Y-97668428D01*
X79924518Y-97680688D01*
X79923337Y-97681046D01*
X79809750Y-97671500D01*
X79717667Y-97763583D01*
X79694506Y-97775963D01*
X79597815Y-97855315D01*
X79524000Y-97945259D01*
X79450185Y-97855315D01*
X79353494Y-97775963D01*
X79330333Y-97763583D01*
X79238250Y-97671500D01*
X79124663Y-97681046D01*
X79123482Y-97680688D01*
X78999000Y-97668428D01*
X78449000Y-97668428D01*
X78324518Y-97680688D01*
X78324000Y-97680845D01*
X78323482Y-97680688D01*
X78199000Y-97668428D01*
X77649000Y-97668428D01*
X77524518Y-97680688D01*
X77524000Y-97680845D01*
X77523482Y-97680688D01*
X77399000Y-97668428D01*
X76849000Y-97668428D01*
X76724518Y-97680688D01*
X76724000Y-97680845D01*
X76723482Y-97680688D01*
X76599000Y-97668428D01*
X76049000Y-97668428D01*
X75924518Y-97680688D01*
X75924000Y-97680845D01*
X75923482Y-97680688D01*
X75799000Y-97668428D01*
X75249000Y-97668428D01*
X75124518Y-97680688D01*
X75124000Y-97680845D01*
X75123482Y-97680688D01*
X74999000Y-97668428D01*
X74449000Y-97668428D01*
X74324518Y-97680688D01*
X74324000Y-97680845D01*
X74323482Y-97680688D01*
X74199000Y-97668428D01*
X73649000Y-97668428D01*
X73524518Y-97680688D01*
X73523337Y-97681046D01*
X73409750Y-97671500D01*
X73317667Y-97763583D01*
X73294506Y-97775963D01*
X73197815Y-97855315D01*
X73124000Y-97945259D01*
X73050185Y-97855315D01*
X72953494Y-97775963D01*
X72930333Y-97763583D01*
X72838250Y-97671500D01*
X72724663Y-97681046D01*
X72723482Y-97680688D01*
X72599000Y-97668428D01*
X72049000Y-97668428D01*
X72008038Y-97672462D01*
X72012072Y-97631500D01*
X72012072Y-97081500D01*
X71999812Y-96957018D01*
X71999655Y-96956500D01*
X71999812Y-96955982D01*
X72012072Y-96831500D01*
X72012072Y-96281500D01*
X71999812Y-96157018D01*
X71999655Y-96156500D01*
X71999812Y-96155982D01*
X72012072Y-96031500D01*
X72012072Y-95481500D01*
X71999812Y-95357018D01*
X71999655Y-95356500D01*
X71999812Y-95355982D01*
X72012072Y-95231500D01*
X72012072Y-94681500D01*
X71999812Y-94557018D01*
X71999454Y-94555837D01*
X72009000Y-94442250D01*
X71916917Y-94350167D01*
X71904537Y-94327006D01*
X71825185Y-94230315D01*
X71735241Y-94156500D01*
X71825185Y-94082685D01*
X71904537Y-93985994D01*
X71916917Y-93962833D01*
X72009000Y-93870750D01*
X71999454Y-93757163D01*
X71999812Y-93755982D01*
X72012072Y-93631500D01*
X72012072Y-93152508D01*
X72100575Y-93079875D01*
X72123646Y-93051763D01*
X74011142Y-91164267D01*
X74012795Y-91168256D01*
X74126063Y-91337774D01*
X74270226Y-91481937D01*
X74439744Y-91595205D01*
X74628102Y-91673226D01*
X74828061Y-91713000D01*
X75031939Y-91713000D01*
X75231898Y-91673226D01*
X75420256Y-91595205D01*
X75589774Y-91481937D01*
X75733937Y-91337774D01*
X75847205Y-91168256D01*
X75925226Y-90979898D01*
X75965000Y-90779939D01*
X75965000Y-90576061D01*
X75925226Y-90376102D01*
X75847205Y-90187744D01*
X75733937Y-90018226D01*
X75589774Y-89874063D01*
X75420256Y-89760795D01*
X75231898Y-89682774D01*
X75031939Y-89643000D01*
X74936709Y-89643000D01*
X74660600Y-89366891D01*
X74660600Y-88844994D01*
X74724000Y-88767741D01*
X74797815Y-88857685D01*
X74894506Y-88937037D01*
X74917667Y-88949417D01*
X75009750Y-89041500D01*
X75123337Y-89031954D01*
X75124518Y-89032312D01*
X75249000Y-89044572D01*
X75799000Y-89044572D01*
X75923482Y-89032312D01*
X75924000Y-89032155D01*
X75924518Y-89032312D01*
X76049000Y-89044572D01*
X76599000Y-89044572D01*
X76723482Y-89032312D01*
X76724000Y-89032155D01*
X76724518Y-89032312D01*
X76849000Y-89044572D01*
X77399000Y-89044572D01*
X77523482Y-89032312D01*
X77524000Y-89032155D01*
X77524518Y-89032312D01*
X77649000Y-89044572D01*
X78199000Y-89044572D01*
X78323482Y-89032312D01*
X78324000Y-89032155D01*
X78324518Y-89032312D01*
X78449000Y-89044572D01*
X78999000Y-89044572D01*
X79123482Y-89032312D01*
X79124000Y-89032155D01*
X79124518Y-89032312D01*
X79249000Y-89044572D01*
X79799000Y-89044572D01*
X79923482Y-89032312D01*
X79924000Y-89032155D01*
X79924518Y-89032312D01*
X80049000Y-89044572D01*
X80599000Y-89044572D01*
X80641552Y-89040381D01*
X80639000Y-89070750D01*
X80797750Y-89229500D01*
X81897000Y-89229500D01*
X81897000Y-88605250D01*
X82151000Y-88605250D01*
X82151000Y-89229500D01*
X83250250Y-89229500D01*
X83409000Y-89070750D01*
X83399177Y-88953869D01*
X83362265Y-88834355D01*
X83302746Y-88724339D01*
X83222908Y-88628049D01*
X83125818Y-88549184D01*
X83015208Y-88490776D01*
X82895329Y-88455070D01*
X82770787Y-88443436D01*
X82309750Y-88446500D01*
X82151000Y-88605250D01*
X81897000Y-88605250D01*
X81738250Y-88446500D01*
X81277213Y-88443436D01*
X81233028Y-88447564D01*
X81237072Y-88406500D01*
X81237072Y-87925000D01*
X84211928Y-87925000D01*
X84215000Y-88126750D01*
X84373750Y-88285500D01*
X85423000Y-88285500D01*
X85423000Y-87448750D01*
X85264250Y-87290000D01*
X84850000Y-87286928D01*
X84725518Y-87299188D01*
X84605820Y-87335498D01*
X84495506Y-87394463D01*
X84398815Y-87473815D01*
X84319463Y-87570506D01*
X84260498Y-87680820D01*
X84224188Y-87800518D01*
X84211928Y-87925000D01*
X81237072Y-87925000D01*
X81237072Y-86906500D01*
X81224812Y-86782018D01*
X81188502Y-86662320D01*
X81129537Y-86552006D01*
X81050185Y-86455315D01*
X80953494Y-86375963D01*
X80843180Y-86316998D01*
X80723482Y-86280688D01*
X80599000Y-86268428D01*
X80049000Y-86268428D01*
X79924518Y-86280688D01*
X79924000Y-86280845D01*
X79923482Y-86280688D01*
X79799000Y-86268428D01*
X79249000Y-86268428D01*
X79124518Y-86280688D01*
X79124000Y-86280845D01*
X79123482Y-86280688D01*
X78999000Y-86268428D01*
X78449000Y-86268428D01*
X78324518Y-86280688D01*
X78324000Y-86280845D01*
X78323482Y-86280688D01*
X78199000Y-86268428D01*
X77649000Y-86268428D01*
X77524518Y-86280688D01*
X77524000Y-86280845D01*
X77523482Y-86280688D01*
X77399000Y-86268428D01*
X77060600Y-86268428D01*
X77060600Y-85531109D01*
X77645263Y-84946446D01*
X77673375Y-84923375D01*
X77765424Y-84811213D01*
X77833822Y-84683249D01*
X77875942Y-84544399D01*
X77886600Y-84436186D01*
X77886600Y-84436177D01*
X77890163Y-84400001D01*
X77886600Y-84363825D01*
X77886600Y-81497679D01*
X77966482Y-81489812D01*
X78086180Y-81453502D01*
X78196494Y-81394537D01*
X78293185Y-81315185D01*
X78372537Y-81218494D01*
X78431502Y-81108180D01*
X78467812Y-80988482D01*
X78475384Y-80911600D01*
X78787952Y-80911600D01*
X78895208Y-81042292D01*
X79028836Y-81151958D01*
X79181291Y-81233447D01*
X79346715Y-81283628D01*
X79518750Y-81300572D01*
X80431250Y-81300572D01*
X80603285Y-81283628D01*
X80768709Y-81233447D01*
X80921164Y-81151958D01*
X81054792Y-81042292D01*
X81164458Y-80908664D01*
X81245947Y-80756209D01*
X81296128Y-80590785D01*
X81313072Y-80418750D01*
X81313072Y-79931250D01*
X81296128Y-79759215D01*
X81245947Y-79593791D01*
X81164458Y-79441336D01*
X81054792Y-79307708D01*
X81048436Y-79302492D01*
X81126185Y-79238685D01*
X81205537Y-79141994D01*
X81264502Y-79031680D01*
X81300812Y-78911982D01*
X81313072Y-78787500D01*
X81310000Y-78585750D01*
X81151250Y-78427000D01*
X80102000Y-78427000D01*
X80102000Y-78447000D01*
X79848000Y-78447000D01*
X79848000Y-78427000D01*
X78798750Y-78427000D01*
X78640000Y-78585750D01*
X78636928Y-78787500D01*
X78649188Y-78911982D01*
X78685498Y-79031680D01*
X78744463Y-79141994D01*
X78823815Y-79238685D01*
X78901564Y-79302492D01*
X78895208Y-79307708D01*
X78787952Y-79438400D01*
X78437138Y-79438400D01*
X78431502Y-79419820D01*
X78428391Y-79414000D01*
X78431502Y-79408180D01*
X78467812Y-79288482D01*
X78480072Y-79164000D01*
X78477000Y-78849750D01*
X78318250Y-78691000D01*
X77269000Y-78691000D01*
X77269000Y-78711000D01*
X77015000Y-78711000D01*
X77015000Y-78691000D01*
X76995000Y-78691000D01*
X76995000Y-78437000D01*
X77015000Y-78437000D01*
X77015000Y-77487750D01*
X77269000Y-77487750D01*
X77269000Y-78437000D01*
X78318250Y-78437000D01*
X78477000Y-78278250D01*
X78480072Y-77964000D01*
X78467812Y-77839518D01*
X78459617Y-77812500D01*
X78636928Y-77812500D01*
X78640000Y-78014250D01*
X78798750Y-78173000D01*
X79848000Y-78173000D01*
X79848000Y-77336250D01*
X80102000Y-77336250D01*
X80102000Y-78173000D01*
X81151250Y-78173000D01*
X81310000Y-78014250D01*
X81313072Y-77812500D01*
X81300812Y-77688018D01*
X81264502Y-77568320D01*
X81205537Y-77458006D01*
X81126185Y-77361315D01*
X81029494Y-77281963D01*
X80919180Y-77222998D01*
X80799482Y-77186688D01*
X80675000Y-77174428D01*
X80260750Y-77177500D01*
X80102000Y-77336250D01*
X79848000Y-77336250D01*
X79689250Y-77177500D01*
X79275000Y-77174428D01*
X79150518Y-77186688D01*
X79030820Y-77222998D01*
X78920506Y-77281963D01*
X78823815Y-77361315D01*
X78744463Y-77458006D01*
X78685498Y-77568320D01*
X78649188Y-77688018D01*
X78636928Y-77812500D01*
X78459617Y-77812500D01*
X78431502Y-77719820D01*
X78372537Y-77609506D01*
X78293185Y-77512815D01*
X78196494Y-77433463D01*
X78086180Y-77374498D01*
X77966482Y-77338188D01*
X77842000Y-77325928D01*
X77427750Y-77329000D01*
X77269000Y-77487750D01*
X77015000Y-77487750D01*
X76856250Y-77329000D01*
X76442000Y-77325928D01*
X76317518Y-77338188D01*
X76197820Y-77374498D01*
X76087506Y-77433463D01*
X76042000Y-77470809D01*
X75996494Y-77433463D01*
X75886180Y-77374498D01*
X75766482Y-77338188D01*
X75642000Y-77325928D01*
X74242000Y-77325928D01*
X74117518Y-77338188D01*
X73997820Y-77374498D01*
X73887506Y-77433463D01*
X73790815Y-77512815D01*
X73749301Y-77563400D01*
X73562048Y-77563400D01*
X73454792Y-77432708D01*
X73321164Y-77323042D01*
X73168709Y-77241553D01*
X73003285Y-77191372D01*
X72831250Y-77174428D01*
X71918750Y-77174428D01*
X71746715Y-77191372D01*
X71581291Y-77241553D01*
X71428836Y-77323042D01*
X71295208Y-77432708D01*
X71185542Y-77566336D01*
X71104053Y-77718791D01*
X71053872Y-77884215D01*
X71036928Y-78056250D01*
X71036928Y-78543750D01*
X71053872Y-78715785D01*
X71104053Y-78881209D01*
X71185542Y-79033664D01*
X71295208Y-79167292D01*
X71301564Y-79172508D01*
X71223815Y-79236315D01*
X71144463Y-79333006D01*
X71085498Y-79443320D01*
X71049188Y-79563018D01*
X71036928Y-79687500D01*
X71040000Y-79889250D01*
X71198750Y-80048000D01*
X72248000Y-80048000D01*
X72248000Y-80028000D01*
X72502000Y-80028000D01*
X72502000Y-80048000D01*
X72522000Y-80048000D01*
X72522000Y-80302000D01*
X72502000Y-80302000D01*
X72502000Y-81138750D01*
X72660750Y-81297500D01*
X73075000Y-81300572D01*
X73140748Y-81294097D01*
X73175145Y-81358448D01*
X73184577Y-81376095D01*
X73276626Y-81488257D01*
X73304732Y-81511323D01*
X74787400Y-82993992D01*
X74787401Y-86468005D01*
X74724000Y-86545259D01*
X74660600Y-86468006D01*
X74660600Y-85735186D01*
X74664164Y-85699000D01*
X74649942Y-85554601D01*
X74611018Y-85426287D01*
X74607822Y-85415751D01*
X74539424Y-85287787D01*
X74513576Y-85256291D01*
X74470442Y-85203732D01*
X74470437Y-85203727D01*
X74447374Y-85175625D01*
X74419273Y-85152563D01*
X72618235Y-83351526D01*
X72595165Y-83323415D01*
X72483003Y-83231366D01*
X72355039Y-83162968D01*
X72216189Y-83120848D01*
X72107976Y-83110190D01*
X72107973Y-83110190D01*
X72071790Y-83106626D01*
X72035607Y-83110190D01*
X68664399Y-83110190D01*
X66633355Y-81079146D01*
X66638072Y-81031250D01*
X66638072Y-80662500D01*
X71036928Y-80662500D01*
X71049188Y-80786982D01*
X71085498Y-80906680D01*
X71144463Y-81016994D01*
X71223815Y-81113685D01*
X71320506Y-81193037D01*
X71430820Y-81252002D01*
X71550518Y-81288312D01*
X71675000Y-81300572D01*
X72089250Y-81297500D01*
X72248000Y-81138750D01*
X72248000Y-80302000D01*
X71198750Y-80302000D01*
X71040000Y-80460750D01*
X71036928Y-80662500D01*
X66638072Y-80662500D01*
X66638072Y-80543750D01*
X66621128Y-80371715D01*
X66570947Y-80206291D01*
X66489458Y-80053836D01*
X66379792Y-79920208D01*
X66246164Y-79810542D01*
X66093709Y-79729053D01*
X65928285Y-79678872D01*
X65756250Y-79661928D01*
X64843750Y-79661928D01*
X64671715Y-79678872D01*
X64506291Y-79729053D01*
X64353836Y-79810542D01*
X64220208Y-79920208D01*
X64112952Y-80050900D01*
X63194570Y-80050900D01*
X63189458Y-80041336D01*
X63079792Y-79907708D01*
X62946164Y-79798042D01*
X62793709Y-79716553D01*
X62628285Y-79666372D01*
X62456250Y-79649428D01*
X61543750Y-79649428D01*
X61371715Y-79666372D01*
X61206291Y-79716553D01*
X61053836Y-79798042D01*
X60920208Y-79907708D01*
X60810542Y-80041336D01*
X60729053Y-80193791D01*
X60678872Y-80359215D01*
X60661928Y-80531250D01*
X60661928Y-81018750D01*
X60678872Y-81190785D01*
X60729053Y-81356209D01*
X60810542Y-81508664D01*
X60920208Y-81642292D01*
X61005756Y-81712500D01*
X60920208Y-81782708D01*
X60810542Y-81916336D01*
X60729053Y-82068791D01*
X60678872Y-82234215D01*
X60661928Y-82406250D01*
X60661928Y-82893750D01*
X60666645Y-82941646D01*
X60604732Y-83003559D01*
X60576626Y-83026625D01*
X60553560Y-83054731D01*
X60553558Y-83054733D01*
X60484576Y-83138788D01*
X60416178Y-83266753D01*
X60405987Y-83300348D01*
X60381434Y-83381291D01*
X60374059Y-83405602D01*
X60359836Y-83550000D01*
X60363401Y-83586193D01*
X60363400Y-85397889D01*
X60296063Y-85465226D01*
X60182795Y-85634744D01*
X60104774Y-85823102D01*
X60065000Y-86023061D01*
X60065000Y-86226939D01*
X60104774Y-86426898D01*
X60182795Y-86615256D01*
X60296063Y-86784774D01*
X60440226Y-86928937D01*
X60609744Y-87042205D01*
X60798102Y-87120226D01*
X60998061Y-87160000D01*
X61201939Y-87160000D01*
X61401898Y-87120226D01*
X61590256Y-87042205D01*
X61759774Y-86928937D01*
X61903937Y-86784774D01*
X62017205Y-86615256D01*
X62095226Y-86426898D01*
X62135000Y-86226939D01*
X62135000Y-86023061D01*
X62095226Y-85823102D01*
X62017205Y-85634744D01*
X61903937Y-85465226D01*
X61836600Y-85397889D01*
X61836600Y-84115809D01*
X62466057Y-84745267D01*
X62489125Y-84773375D01*
X62601287Y-84865424D01*
X62729251Y-84933822D01*
X62868101Y-84975942D01*
X62976314Y-84986600D01*
X62976323Y-84986600D01*
X63012499Y-84990163D01*
X63048675Y-84986600D01*
X71119891Y-84986600D01*
X72387400Y-86254110D01*
X72387400Y-86268428D01*
X72049000Y-86268428D01*
X71924518Y-86280688D01*
X71804820Y-86316998D01*
X71694506Y-86375963D01*
X71597815Y-86455315D01*
X71518463Y-86552006D01*
X71459498Y-86662320D01*
X71423188Y-86782018D01*
X71410928Y-86906500D01*
X71410928Y-88406500D01*
X71414962Y-88447462D01*
X71374000Y-88443428D01*
X69874000Y-88443428D01*
X69749518Y-88455688D01*
X69629820Y-88491998D01*
X69519506Y-88550963D01*
X69422815Y-88630315D01*
X69343463Y-88727006D01*
X69284498Y-88837320D01*
X69248188Y-88957018D01*
X69235928Y-89081500D01*
X69235928Y-89631500D01*
X69248188Y-89755982D01*
X69248345Y-89756500D01*
X69248188Y-89757018D01*
X69235928Y-89881500D01*
X69235928Y-90431500D01*
X69248188Y-90555982D01*
X69248345Y-90556500D01*
X69248188Y-90557018D01*
X69235928Y-90681500D01*
X69235928Y-91231500D01*
X69248188Y-91355982D01*
X69248345Y-91356500D01*
X69248188Y-91357018D01*
X69235928Y-91481500D01*
X69235928Y-92031500D01*
X69248188Y-92155982D01*
X69248345Y-92156500D01*
X69248188Y-92157018D01*
X69235928Y-92281500D01*
X69235928Y-92619900D01*
X68386610Y-92619900D01*
X67125572Y-91358863D01*
X67125572Y-90818750D01*
X67108628Y-90646715D01*
X67058447Y-90481291D01*
X66976958Y-90328836D01*
X66867292Y-90195208D01*
X66733664Y-90085542D01*
X66581209Y-90004053D01*
X66415785Y-89953872D01*
X66243750Y-89936928D01*
X65756250Y-89936928D01*
X65584215Y-89953872D01*
X65418791Y-90004053D01*
X65266336Y-90085542D01*
X65132708Y-90195208D01*
X65127492Y-90201564D01*
X65063685Y-90123815D01*
X64966994Y-90044463D01*
X64856680Y-89985498D01*
X64736982Y-89949188D01*
X64612500Y-89936928D01*
X64410750Y-89940000D01*
X64252000Y-90098750D01*
X64252000Y-91148000D01*
X64272000Y-91148000D01*
X64272000Y-91402000D01*
X64252000Y-91402000D01*
X64252000Y-92451250D01*
X64410750Y-92610000D01*
X64612500Y-92613072D01*
X64736982Y-92600812D01*
X64856680Y-92564502D01*
X64966994Y-92505537D01*
X65063685Y-92426185D01*
X65127492Y-92348436D01*
X65132708Y-92354792D01*
X65266336Y-92464458D01*
X65418791Y-92545947D01*
X65584215Y-92596128D01*
X65756250Y-92613072D01*
X66243750Y-92613072D01*
X66291645Y-92608355D01*
X67535059Y-93851769D01*
X67558125Y-93879875D01*
X67670287Y-93971924D01*
X67798251Y-94040322D01*
X67848906Y-94055688D01*
X67937101Y-94082442D01*
X68081500Y-94096664D01*
X68117686Y-94093100D01*
X69435506Y-94093100D01*
X69512759Y-94156500D01*
X69435506Y-94219900D01*
X58011610Y-94219900D01*
X55766710Y-91975000D01*
X62999428Y-91975000D01*
X63011688Y-92099482D01*
X63047998Y-92219180D01*
X63106963Y-92329494D01*
X63186315Y-92426185D01*
X63283006Y-92505537D01*
X63393320Y-92564502D01*
X63513018Y-92600812D01*
X63637500Y-92613072D01*
X63839250Y-92610000D01*
X63998000Y-92451250D01*
X63998000Y-91402000D01*
X63161250Y-91402000D01*
X63002500Y-91560750D01*
X62999428Y-91975000D01*
X55766710Y-91975000D01*
X54761600Y-90969891D01*
X54761600Y-90575000D01*
X62999428Y-90575000D01*
X63002500Y-90989250D01*
X63161250Y-91148000D01*
X63998000Y-91148000D01*
X63998000Y-90098750D01*
X63839250Y-89940000D01*
X63637500Y-89936928D01*
X63513018Y-89949188D01*
X63393320Y-89985498D01*
X63283006Y-90044463D01*
X63186315Y-90123815D01*
X63106963Y-90220506D01*
X63047998Y-90330820D01*
X63011688Y-90450518D01*
X62999428Y-90575000D01*
X54761600Y-90575000D01*
X54761600Y-87755109D01*
X55545269Y-86971441D01*
X55562179Y-86957563D01*
X55678285Y-86946128D01*
X55843709Y-86895947D01*
X55996164Y-86814458D01*
X56129792Y-86704792D01*
X56239458Y-86571164D01*
X56320947Y-86418709D01*
X56371128Y-86253285D01*
X56388072Y-86081250D01*
X56388072Y-85593750D01*
X56371128Y-85421715D01*
X56320947Y-85256291D01*
X56239458Y-85103836D01*
X56129792Y-84970208D01*
X56044244Y-84900000D01*
X56129792Y-84829792D01*
X56239458Y-84696164D01*
X56320947Y-84543709D01*
X56371128Y-84378285D01*
X56388072Y-84206250D01*
X56388072Y-83718750D01*
X56371128Y-83546715D01*
X56320947Y-83381291D01*
X56239458Y-83228836D01*
X56129792Y-83095208D01*
X55996164Y-82985542D01*
X55843709Y-82904053D01*
X55678285Y-82853872D01*
X55506250Y-82836928D01*
X54966137Y-82836928D01*
X54686600Y-82557391D01*
X54686600Y-78907072D01*
X55000000Y-78907072D01*
X55124482Y-78894812D01*
X55149266Y-78887294D01*
X55168639Y-78893404D01*
X55268250Y-78904000D01*
X55427000Y-78745250D01*
X55427000Y-78740033D01*
X55451185Y-78720185D01*
X55530537Y-78623494D01*
X55589502Y-78513180D01*
X55625812Y-78393482D01*
X55638072Y-78269000D01*
X55638072Y-76019000D01*
X55625812Y-75894518D01*
X55589502Y-75774820D01*
X55530537Y-75664506D01*
X55451185Y-75567815D01*
X55427000Y-75547967D01*
X55427000Y-75542750D01*
X55673000Y-75542750D01*
X55673000Y-77017000D01*
X55697000Y-77017000D01*
X55697000Y-77271000D01*
X55673000Y-77271000D01*
X55673000Y-78745250D01*
X55831750Y-78904000D01*
X55931361Y-78893404D01*
X56050652Y-78855779D01*
X56160311Y-78795604D01*
X56256123Y-78715193D01*
X56334406Y-78617634D01*
X56390123Y-78510578D01*
X56544866Y-78699134D01*
X56770986Y-78884706D01*
X57028966Y-79022599D01*
X57308889Y-79107513D01*
X57600000Y-79136185D01*
X57891110Y-79107513D01*
X58171033Y-79022599D01*
X58429013Y-78884706D01*
X58655134Y-78699134D01*
X58840706Y-78473014D01*
X58978599Y-78215034D01*
X59063513Y-77935111D01*
X59085000Y-77716950D01*
X59085000Y-76571050D01*
X59063513Y-76352889D01*
X58978599Y-76072966D01*
X58840706Y-75814986D01*
X58655134Y-75588866D01*
X58429014Y-75403294D01*
X58171034Y-75265401D01*
X57891111Y-75180487D01*
X57600000Y-75151815D01*
X57308890Y-75180487D01*
X57028967Y-75265401D01*
X56770987Y-75403294D01*
X56544867Y-75588866D01*
X56390123Y-75777421D01*
X56334406Y-75670366D01*
X56256123Y-75572807D01*
X56160311Y-75492396D01*
X56050652Y-75432221D01*
X55931361Y-75394596D01*
X55831750Y-75384000D01*
X55673000Y-75542750D01*
X55427000Y-75542750D01*
X55268250Y-75384000D01*
X55168639Y-75394596D01*
X55149266Y-75400706D01*
X55124482Y-75393188D01*
X55000000Y-75380928D01*
X54500000Y-75380928D01*
X54375518Y-75393188D01*
X54350000Y-75400929D01*
X54324482Y-75393188D01*
X54200000Y-75380928D01*
X53700000Y-75380928D01*
X53575518Y-75393188D01*
X53550000Y-75400929D01*
X53524482Y-75393188D01*
X53400000Y-75380928D01*
X52900000Y-75380928D01*
X52775518Y-75393188D01*
X52750000Y-75400929D01*
X52724482Y-75393188D01*
X52600000Y-75380928D01*
X52100000Y-75380928D01*
X51975518Y-75393188D01*
X51855820Y-75429498D01*
X51745506Y-75488463D01*
X51648815Y-75567815D01*
X51569463Y-75664506D01*
X51510498Y-75774820D01*
X51509754Y-75777271D01*
X51355134Y-75588866D01*
X51129014Y-75403294D01*
X50871034Y-75265401D01*
X50591111Y-75180487D01*
X50300000Y-75151815D01*
X50008890Y-75180487D01*
X49728967Y-75265401D01*
X49470987Y-75403294D01*
X49244867Y-75588866D01*
X49059294Y-75814986D01*
X48921401Y-76072966D01*
X48836487Y-76352889D01*
X48815000Y-76571050D01*
X48815000Y-77716949D01*
X48836487Y-77935110D01*
X48921401Y-78215033D01*
X49059294Y-78473013D01*
X49244866Y-78699134D01*
X49470986Y-78884706D01*
X49728966Y-79022599D01*
X50008889Y-79107513D01*
X50300000Y-79136185D01*
X50591110Y-79107513D01*
X50871033Y-79022599D01*
X51129013Y-78884706D01*
X51355134Y-78699134D01*
X51509754Y-78510729D01*
X51510498Y-78513180D01*
X51569463Y-78623494D01*
X51613401Y-78677032D01*
X51613400Y-80173632D01*
X46634732Y-85152301D01*
X46606626Y-85175367D01*
X46583560Y-85203473D01*
X46583558Y-85203475D01*
X46514576Y-85287530D01*
X46446178Y-85415495D01*
X46426232Y-85481250D01*
X46404059Y-85554343D01*
X46402792Y-85567210D01*
X46389836Y-85698742D01*
X46393401Y-85734935D01*
X46393400Y-88037920D01*
X46331746Y-88043992D01*
X46165150Y-88094528D01*
X46011614Y-88176595D01*
X45877038Y-88287038D01*
X45766595Y-88421614D01*
X45684528Y-88575150D01*
X45633992Y-88741746D01*
X45616928Y-88915000D01*
X45616928Y-89665000D01*
X45633992Y-89838254D01*
X45684528Y-90004850D01*
X45766595Y-90158386D01*
X45877038Y-90292962D01*
X46011614Y-90403405D01*
X46165150Y-90485472D01*
X46331746Y-90536008D01*
X46505000Y-90553072D01*
X47755000Y-90553072D01*
X47928254Y-90536008D01*
X48094850Y-90485472D01*
X48248386Y-90403405D01*
X48382962Y-90292962D01*
X48493405Y-90158386D01*
X48575472Y-90004850D01*
X48626008Y-89838254D01*
X48643072Y-89665000D01*
X48643072Y-88915000D01*
X48626008Y-88741746D01*
X48575472Y-88575150D01*
X48493405Y-88421614D01*
X48382962Y-88287038D01*
X48248386Y-88176595D01*
X48094850Y-88094528D01*
X47928254Y-88043992D01*
X47866600Y-88037920D01*
X47866600Y-86003851D01*
X52413400Y-81457052D01*
X52413400Y-82394890D01*
X52083862Y-82724428D01*
X51543750Y-82724428D01*
X51371715Y-82741372D01*
X51206291Y-82791553D01*
X51053836Y-82873042D01*
X50920208Y-82982708D01*
X50810542Y-83116336D01*
X50729053Y-83268791D01*
X50678872Y-83434215D01*
X50661928Y-83606250D01*
X50661928Y-84093750D01*
X50678872Y-84265785D01*
X50729053Y-84431209D01*
X50810542Y-84583664D01*
X50920208Y-84717292D01*
X51005756Y-84787500D01*
X50920208Y-84857708D01*
X50810542Y-84991336D01*
X50729053Y-85143791D01*
X50678872Y-85309215D01*
X50661928Y-85481250D01*
X50661928Y-85968750D01*
X50678872Y-86140785D01*
X50729053Y-86306209D01*
X50810542Y-86458664D01*
X50920208Y-86592292D01*
X51053836Y-86701958D01*
X51206291Y-86783447D01*
X51371715Y-86833628D01*
X51487822Y-86845064D01*
X51504732Y-86858941D01*
X52638400Y-87992610D01*
X52638401Y-91438807D01*
X52634836Y-91475000D01*
X52649059Y-91619398D01*
X52691178Y-91758247D01*
X52759576Y-91886212D01*
X52819166Y-91958822D01*
X52851626Y-91998375D01*
X52879732Y-92021441D01*
X56646691Y-95788400D01*
X51145109Y-95788400D01*
X48480320Y-93123611D01*
X48509532Y-93068958D01*
X48551652Y-92930109D01*
X48561395Y-92831186D01*
X48575472Y-92804850D01*
X48626008Y-92638254D01*
X48643072Y-92465000D01*
X48643072Y-91715000D01*
X48626008Y-91541746D01*
X48575472Y-91375150D01*
X48493405Y-91221614D01*
X48382962Y-91087038D01*
X48248386Y-90976595D01*
X48094850Y-90894528D01*
X47928254Y-90843992D01*
X47755000Y-90826928D01*
X46505000Y-90826928D01*
X46331746Y-90843992D01*
X46165150Y-90894528D01*
X46011614Y-90976595D01*
X45877038Y-91087038D01*
X45766595Y-91221614D01*
X45684528Y-91375150D01*
X45633992Y-91541746D01*
X45616928Y-91715000D01*
X45616928Y-92465000D01*
X45633992Y-92638254D01*
X45684528Y-92804850D01*
X45766595Y-92958386D01*
X45877038Y-93092962D01*
X46011614Y-93203405D01*
X46165150Y-93285472D01*
X46331746Y-93336008D01*
X46505000Y-93353072D01*
X46624534Y-93353072D01*
X46634732Y-93361441D01*
X50293554Y-97020263D01*
X50316625Y-97048375D01*
X50428787Y-97140424D01*
X50556751Y-97208822D01*
X50695601Y-97250942D01*
X50803814Y-97261600D01*
X50803823Y-97261600D01*
X50839999Y-97265163D01*
X50876175Y-97261600D01*
X60016804Y-97261600D01*
X59965226Y-97296063D01*
X59821063Y-97440226D01*
X59707795Y-97609744D01*
X59629774Y-97798102D01*
X59590000Y-97998061D01*
X59590000Y-98093290D01*
X59044891Y-98638400D01*
X58106969Y-98638400D01*
X58089502Y-98580820D01*
X58030537Y-98470506D01*
X57951185Y-98373815D01*
X57854494Y-98294463D01*
X57744180Y-98235498D01*
X57624482Y-98199188D01*
X57500000Y-98186928D01*
X55700000Y-98186928D01*
X55575518Y-98199188D01*
X55455820Y-98235498D01*
X55345506Y-98294463D01*
X55248815Y-98373815D01*
X55169463Y-98470506D01*
X55110498Y-98580820D01*
X55074188Y-98700518D01*
X55061928Y-98825000D01*
X55061928Y-99925000D01*
X55074188Y-100049482D01*
X55110498Y-100169180D01*
X55169463Y-100279494D01*
X55248815Y-100376185D01*
X55345506Y-100455537D01*
X55455820Y-100514502D01*
X55575518Y-100550812D01*
X55700000Y-100563072D01*
X57500000Y-100563072D01*
X57624482Y-100550812D01*
X57744180Y-100514502D01*
X57854494Y-100455537D01*
X57951185Y-100376185D01*
X58030537Y-100279494D01*
X58089502Y-100169180D01*
X58106969Y-100111600D01*
X59313817Y-100111600D01*
X59350000Y-100115164D01*
X59386183Y-100111600D01*
X59386186Y-100111600D01*
X59494399Y-100100942D01*
X59633249Y-100058822D01*
X59761213Y-99990424D01*
X59873375Y-99898375D01*
X59896445Y-99870264D01*
X60631710Y-99135000D01*
X60726939Y-99135000D01*
X60926898Y-99095226D01*
X61115256Y-99017205D01*
X61284774Y-98903937D01*
X61428937Y-98759774D01*
X61542205Y-98590256D01*
X61620226Y-98401898D01*
X61660000Y-98201939D01*
X61660000Y-97998061D01*
X61620226Y-97798102D01*
X61542205Y-97609744D01*
X61428937Y-97440226D01*
X61284774Y-97296063D01*
X61233196Y-97261600D01*
X62544891Y-97261600D01*
X63691645Y-98408354D01*
X63686928Y-98456250D01*
X63686928Y-98943750D01*
X63703872Y-99115785D01*
X63754053Y-99281209D01*
X63835542Y-99433664D01*
X63945208Y-99567292D01*
X63951564Y-99572508D01*
X63873815Y-99636315D01*
X63794463Y-99733006D01*
X63735498Y-99843320D01*
X63699188Y-99963018D01*
X63686928Y-100087500D01*
X63690000Y-100289250D01*
X63848750Y-100448000D01*
X64898000Y-100448000D01*
X64898000Y-100428000D01*
X65152000Y-100428000D01*
X65152000Y-100448000D01*
X66201250Y-100448000D01*
X66360000Y-100289250D01*
X66363072Y-100087500D01*
X66350812Y-99963018D01*
X66314502Y-99843320D01*
X66255537Y-99733006D01*
X66176185Y-99636315D01*
X66098436Y-99572508D01*
X66104792Y-99567292D01*
X66214458Y-99433664D01*
X66295947Y-99281209D01*
X66346128Y-99115785D01*
X66363072Y-98943750D01*
X66363072Y-98456250D01*
X66358355Y-98408355D01*
X67473610Y-97293100D01*
X69235928Y-97293100D01*
X69235928Y-97631500D01*
X69248188Y-97755982D01*
X69284498Y-97875680D01*
X69343463Y-97985994D01*
X69422815Y-98082685D01*
X69519506Y-98162037D01*
X69629820Y-98221002D01*
X69749518Y-98257312D01*
X69874000Y-98269572D01*
X71374000Y-98269572D01*
X71414962Y-98265538D01*
X71410928Y-98306500D01*
X71410928Y-99806500D01*
X71423188Y-99930982D01*
X71459498Y-100050680D01*
X71518463Y-100160994D01*
X71597815Y-100257685D01*
X71694506Y-100337037D01*
X71804820Y-100396002D01*
X71924518Y-100432312D01*
X72049000Y-100444572D01*
X72599000Y-100444572D01*
X72723482Y-100432312D01*
X72724663Y-100431954D01*
X72838250Y-100441500D01*
X72930333Y-100349417D01*
X72953494Y-100337037D01*
X73050185Y-100257685D01*
X73124000Y-100167741D01*
X73197815Y-100257685D01*
X73294506Y-100337037D01*
X73317667Y-100349417D01*
X73409750Y-100441500D01*
X73523337Y-100431954D01*
X73524518Y-100432312D01*
X73649000Y-100444572D01*
X74199000Y-100444572D01*
X74323482Y-100432312D01*
X74324000Y-100432155D01*
X74324518Y-100432312D01*
X74449000Y-100444572D01*
X74999000Y-100444572D01*
X75123482Y-100432312D01*
X75124000Y-100432155D01*
X75124518Y-100432312D01*
X75249000Y-100444572D01*
X75799000Y-100444572D01*
X75923482Y-100432312D01*
X75924000Y-100432155D01*
X75924518Y-100432312D01*
X76049000Y-100444572D01*
X76599000Y-100444572D01*
X76723482Y-100432312D01*
X76724000Y-100432155D01*
X76724518Y-100432312D01*
X76849000Y-100444572D01*
X77399000Y-100444572D01*
X77523482Y-100432312D01*
X77524000Y-100432155D01*
X77524518Y-100432312D01*
X77649000Y-100444572D01*
X78199000Y-100444572D01*
X78323482Y-100432312D01*
X78324000Y-100432155D01*
X78324518Y-100432312D01*
X78449000Y-100444572D01*
X78999000Y-100444572D01*
X79123482Y-100432312D01*
X79124663Y-100431954D01*
X79238250Y-100441500D01*
X79330333Y-100349417D01*
X79353494Y-100337037D01*
X79450185Y-100257685D01*
X79524000Y-100167741D01*
X79587400Y-100244995D01*
X79587400Y-100712816D01*
X79583836Y-100749000D01*
X79587400Y-100785183D01*
X79587400Y-100785185D01*
X79598058Y-100893398D01*
X79640178Y-101032248D01*
X79708576Y-101160212D01*
X79800625Y-101272374D01*
X79828732Y-101295441D01*
X79903554Y-101370263D01*
X79926625Y-101398375D01*
X80038787Y-101490424D01*
X80166751Y-101558822D01*
X80283454Y-101594224D01*
X80283006Y-101594463D01*
X80186315Y-101673815D01*
X80106963Y-101770506D01*
X80047998Y-101880820D01*
X80011688Y-102000518D01*
X79999428Y-102125000D01*
X80002500Y-102539250D01*
X80161250Y-102698000D01*
X80998000Y-102698000D01*
X80998000Y-102678000D01*
X81252000Y-102678000D01*
X81252000Y-102698000D01*
X81272000Y-102698000D01*
X81272000Y-102952000D01*
X81252000Y-102952000D01*
X81252000Y-104001250D01*
X81410750Y-104160000D01*
X81612500Y-104163072D01*
X81736982Y-104150812D01*
X81856680Y-104114502D01*
X81966994Y-104055537D01*
X82063685Y-103976185D01*
X82127492Y-103898436D01*
X82132708Y-103904792D01*
X82266336Y-104014458D01*
X82418791Y-104095947D01*
X82584215Y-104146128D01*
X82756250Y-104163072D01*
X83243750Y-104163072D01*
X83415785Y-104146128D01*
X83581209Y-104095947D01*
X83733664Y-104014458D01*
X83867292Y-103904792D01*
X83976958Y-103771164D01*
X84058447Y-103618709D01*
X84108628Y-103453285D01*
X84125572Y-103281250D01*
X84125572Y-102368750D01*
X84108628Y-102196715D01*
X84058447Y-102031291D01*
X83976958Y-101878836D01*
X83867292Y-101745208D01*
X83736600Y-101637952D01*
X83736600Y-101186186D01*
X83740164Y-101150000D01*
X83725942Y-101005601D01*
X83705126Y-100936982D01*
X83683822Y-100866751D01*
X83615424Y-100738787D01*
X83523375Y-100626625D01*
X83495263Y-100603554D01*
X83271446Y-100379737D01*
X83248375Y-100351625D01*
X83136213Y-100259576D01*
X83008249Y-100191178D01*
X82869399Y-100149058D01*
X82761186Y-100138400D01*
X82761183Y-100138400D01*
X82725000Y-100134836D01*
X82688817Y-100138400D01*
X81141614Y-100138400D01*
X81188502Y-100050680D01*
X81224812Y-99930982D01*
X81237072Y-99806500D01*
X81237072Y-98306500D01*
X81233038Y-98265538D01*
X81274000Y-98269572D01*
X82774000Y-98269572D01*
X82898482Y-98257312D01*
X83018180Y-98221002D01*
X83128494Y-98162037D01*
X83212494Y-98093100D01*
X84801391Y-98093100D01*
X84866645Y-98158355D01*
X84861928Y-98206250D01*
X84861928Y-98693750D01*
X84878872Y-98865785D01*
X84929053Y-99031209D01*
X85010542Y-99183664D01*
X85120208Y-99317292D01*
X85126564Y-99322508D01*
X85048815Y-99386315D01*
X84969463Y-99483006D01*
X84910498Y-99593320D01*
X84874188Y-99713018D01*
X84861928Y-99837500D01*
X84865000Y-100039250D01*
X85023750Y-100198000D01*
X85979000Y-100198000D01*
X85979000Y-100452000D01*
X85023750Y-100452000D01*
X84865000Y-100610750D01*
X84861928Y-100812500D01*
X84874188Y-100936982D01*
X84910498Y-101056680D01*
X84969463Y-101166994D01*
X85048815Y-101263685D01*
X85145506Y-101343037D01*
X85255820Y-101402002D01*
X85375518Y-101438312D01*
X85500000Y-101450572D01*
X85914250Y-101447500D01*
X85979000Y-101382750D01*
X85979000Y-109347000D01*
X43307000Y-109347000D01*
X43307000Y-103625000D01*
X48861928Y-103625000D01*
X48874188Y-103749482D01*
X48910498Y-103869180D01*
X48969463Y-103979494D01*
X49048815Y-104076185D01*
X49145506Y-104155537D01*
X49255820Y-104214502D01*
X49375518Y-104250812D01*
X49500000Y-104263072D01*
X50114250Y-104260000D01*
X50273000Y-104101250D01*
X50273000Y-103202000D01*
X50527000Y-103202000D01*
X50527000Y-104101250D01*
X50685750Y-104260000D01*
X51300000Y-104263072D01*
X51424482Y-104250812D01*
X51544180Y-104214502D01*
X51654494Y-104155537D01*
X51751185Y-104076185D01*
X51830537Y-103979494D01*
X51889502Y-103869180D01*
X51925812Y-103749482D01*
X51938072Y-103625000D01*
X51935000Y-103360750D01*
X51776250Y-103202000D01*
X50527000Y-103202000D01*
X50273000Y-103202000D01*
X49023750Y-103202000D01*
X48865000Y-103360750D01*
X48861928Y-103625000D01*
X43307000Y-103625000D01*
X43307000Y-102525000D01*
X48861928Y-102525000D01*
X48865000Y-102789250D01*
X49023750Y-102948000D01*
X50273000Y-102948000D01*
X50273000Y-102048750D01*
X50527000Y-102048750D01*
X50527000Y-102948000D01*
X51776250Y-102948000D01*
X51935000Y-102789250D01*
X51938072Y-102525000D01*
X55061928Y-102525000D01*
X55061928Y-103625000D01*
X55074188Y-103749482D01*
X55110498Y-103869180D01*
X55169463Y-103979494D01*
X55248815Y-104076185D01*
X55345506Y-104155537D01*
X55455820Y-104214502D01*
X55575518Y-104250812D01*
X55700000Y-104263072D01*
X57500000Y-104263072D01*
X57624482Y-104250812D01*
X57744180Y-104214502D01*
X57854494Y-104155537D01*
X57951185Y-104076185D01*
X58030537Y-103979494D01*
X58089502Y-103869180D01*
X58125812Y-103749482D01*
X58138072Y-103625000D01*
X58138072Y-103525000D01*
X79999428Y-103525000D01*
X80011688Y-103649482D01*
X80047998Y-103769180D01*
X80106963Y-103879494D01*
X80186315Y-103976185D01*
X80283006Y-104055537D01*
X80393320Y-104114502D01*
X80513018Y-104150812D01*
X80637500Y-104163072D01*
X80839250Y-104160000D01*
X80998000Y-104001250D01*
X80998000Y-102952000D01*
X80161250Y-102952000D01*
X80002500Y-103110750D01*
X79999428Y-103525000D01*
X58138072Y-103525000D01*
X58138072Y-102525000D01*
X58125812Y-102400518D01*
X58089502Y-102280820D01*
X58030537Y-102170506D01*
X57951185Y-102073815D01*
X57854494Y-101994463D01*
X57744180Y-101935498D01*
X57624482Y-101899188D01*
X57500000Y-101886928D01*
X55700000Y-101886928D01*
X55575518Y-101899188D01*
X55455820Y-101935498D01*
X55345506Y-101994463D01*
X55248815Y-102073815D01*
X55169463Y-102170506D01*
X55110498Y-102280820D01*
X55074188Y-102400518D01*
X55061928Y-102525000D01*
X51938072Y-102525000D01*
X51925812Y-102400518D01*
X51889502Y-102280820D01*
X51830537Y-102170506D01*
X51751185Y-102073815D01*
X51654494Y-101994463D01*
X51544180Y-101935498D01*
X51424482Y-101899188D01*
X51300000Y-101886928D01*
X50685750Y-101890000D01*
X50527000Y-102048750D01*
X50273000Y-102048750D01*
X50114250Y-101890000D01*
X49500000Y-101886928D01*
X49375518Y-101899188D01*
X49255820Y-101935498D01*
X49145506Y-101994463D01*
X49048815Y-102073815D01*
X48969463Y-102170506D01*
X48910498Y-102280820D01*
X48874188Y-102400518D01*
X48861928Y-102525000D01*
X43307000Y-102525000D01*
X43307000Y-101062500D01*
X63686928Y-101062500D01*
X63699188Y-101186982D01*
X63735498Y-101306680D01*
X63794463Y-101416994D01*
X63873815Y-101513685D01*
X63970506Y-101593037D01*
X64080820Y-101652002D01*
X64200518Y-101688312D01*
X64325000Y-101700572D01*
X64739250Y-101697500D01*
X64898000Y-101538750D01*
X64898000Y-100702000D01*
X65152000Y-100702000D01*
X65152000Y-101538750D01*
X65310750Y-101697500D01*
X65725000Y-101700572D01*
X65849482Y-101688312D01*
X65969180Y-101652002D01*
X66079494Y-101593037D01*
X66176185Y-101513685D01*
X66255537Y-101416994D01*
X66314502Y-101306680D01*
X66350812Y-101186982D01*
X66363072Y-101062500D01*
X66360000Y-100860750D01*
X66201250Y-100702000D01*
X65152000Y-100702000D01*
X64898000Y-100702000D01*
X63848750Y-100702000D01*
X63690000Y-100860750D01*
X63686928Y-101062500D01*
X43307000Y-101062500D01*
X43307000Y-98825000D01*
X48861928Y-98825000D01*
X48861928Y-99925000D01*
X48874188Y-100049482D01*
X48910498Y-100169180D01*
X48969463Y-100279494D01*
X49048815Y-100376185D01*
X49145506Y-100455537D01*
X49255820Y-100514502D01*
X49375518Y-100550812D01*
X49500000Y-100563072D01*
X51300000Y-100563072D01*
X51424482Y-100550812D01*
X51544180Y-100514502D01*
X51654494Y-100455537D01*
X51751185Y-100376185D01*
X51830537Y-100279494D01*
X51889502Y-100169180D01*
X51925812Y-100049482D01*
X51938072Y-99925000D01*
X51938072Y-98825000D01*
X51925812Y-98700518D01*
X51889502Y-98580820D01*
X51830537Y-98470506D01*
X51751185Y-98373815D01*
X51654494Y-98294463D01*
X51544180Y-98235498D01*
X51424482Y-98199188D01*
X51300000Y-98186928D01*
X49500000Y-98186928D01*
X49375518Y-98199188D01*
X49255820Y-98235498D01*
X49145506Y-98294463D01*
X49048815Y-98373815D01*
X48969463Y-98470506D01*
X48910498Y-98580820D01*
X48874188Y-98700518D01*
X48861928Y-98825000D01*
X43307000Y-98825000D01*
X43307000Y-73533754D01*
X48876407Y-73566709D01*
X48876407Y-73566709D01*
G37*
X48876407Y-73566709D02*
X48921401Y-73715033D01*
X49059294Y-73973013D01*
X49244866Y-74199134D01*
X49470986Y-74384706D01*
X49728966Y-74522599D01*
X50008889Y-74607513D01*
X50300000Y-74636185D01*
X50591110Y-74607513D01*
X50871033Y-74522599D01*
X51129013Y-74384706D01*
X51355134Y-74199134D01*
X51540706Y-73973014D01*
X51678599Y-73715034D01*
X51718492Y-73583526D01*
X56189534Y-73609982D01*
X56221401Y-73715033D01*
X56359294Y-73973013D01*
X56544866Y-74199134D01*
X56770986Y-74384706D01*
X57028966Y-74522599D01*
X57308889Y-74607513D01*
X57600000Y-74636185D01*
X57891110Y-74607513D01*
X58171033Y-74522599D01*
X58429013Y-74384706D01*
X58655134Y-74199134D01*
X58840706Y-73973014D01*
X58978599Y-73715034D01*
X59005412Y-73626644D01*
X85979000Y-73786251D01*
X85979000Y-87288938D01*
X85835750Y-87290000D01*
X85677000Y-87448750D01*
X85677000Y-88285500D01*
X85697000Y-88285500D01*
X85697000Y-88539500D01*
X85677000Y-88539500D01*
X85677000Y-88559500D01*
X85423000Y-88559500D01*
X85423000Y-88539500D01*
X84373750Y-88539500D01*
X84215000Y-88698250D01*
X84211928Y-88900000D01*
X84224188Y-89024482D01*
X84260498Y-89144180D01*
X84319463Y-89254494D01*
X84398815Y-89351185D01*
X84476564Y-89414992D01*
X84470208Y-89420208D01*
X84362952Y-89550900D01*
X83317650Y-89550900D01*
X83316917Y-89550167D01*
X83304537Y-89527006D01*
X83225185Y-89430315D01*
X83128494Y-89350963D01*
X83018180Y-89291998D01*
X82898482Y-89255688D01*
X82774000Y-89243428D01*
X81274000Y-89243428D01*
X81149518Y-89255688D01*
X81029820Y-89291998D01*
X80919506Y-89350963D01*
X80835506Y-89419900D01*
X80313686Y-89419900D01*
X80277500Y-89416336D01*
X80241314Y-89419900D01*
X80133101Y-89430558D01*
X79994251Y-89472678D01*
X79866287Y-89541076D01*
X79754125Y-89633125D01*
X79731059Y-89661231D01*
X79495290Y-89897000D01*
X79400061Y-89897000D01*
X79200102Y-89936774D01*
X79011744Y-90014795D01*
X78842226Y-90128063D01*
X78698063Y-90272226D01*
X78584795Y-90441744D01*
X78506774Y-90630102D01*
X78467000Y-90830061D01*
X78467000Y-91033939D01*
X78506774Y-91233898D01*
X78584795Y-91422256D01*
X78698063Y-91591774D01*
X78842226Y-91735937D01*
X79011744Y-91849205D01*
X79200102Y-91927226D01*
X79400061Y-91967000D01*
X79603939Y-91967000D01*
X79803898Y-91927226D01*
X79992256Y-91849205D01*
X80161774Y-91735937D01*
X80305937Y-91591774D01*
X80419205Y-91422256D01*
X80497226Y-91233898D01*
X80537000Y-91033939D01*
X80537000Y-90938710D01*
X80582610Y-90893100D01*
X80635928Y-90893100D01*
X80635928Y-91231500D01*
X80648188Y-91355982D01*
X80648345Y-91356500D01*
X80648188Y-91357018D01*
X80635928Y-91481500D01*
X80635928Y-92031500D01*
X80648188Y-92155982D01*
X80648345Y-92156500D01*
X80648188Y-92157018D01*
X80635928Y-92281500D01*
X80635928Y-92831500D01*
X80648188Y-92955982D01*
X80648345Y-92956500D01*
X80648188Y-92957018D01*
X80635928Y-93081500D01*
X80635928Y-93631500D01*
X80648188Y-93755982D01*
X80648345Y-93756500D01*
X80648188Y-93757018D01*
X80635928Y-93881500D01*
X80635928Y-94431500D01*
X80648188Y-94555982D01*
X80648345Y-94556500D01*
X80648188Y-94557018D01*
X80635928Y-94681500D01*
X80635928Y-95231500D01*
X80648188Y-95355982D01*
X80648345Y-95356500D01*
X80648188Y-95357018D01*
X80635928Y-95481500D01*
X80635928Y-96031500D01*
X80648188Y-96155982D01*
X80648345Y-96156500D01*
X80648188Y-96157018D01*
X80635928Y-96281500D01*
X80635928Y-96831500D01*
X80648188Y-96955982D01*
X80648345Y-96956500D01*
X80648188Y-96957018D01*
X80635928Y-97081500D01*
X80635928Y-97631500D01*
X80639962Y-97672462D01*
X80599000Y-97668428D01*
X80049000Y-97668428D01*
X79924518Y-97680688D01*
X79923337Y-97681046D01*
X79809750Y-97671500D01*
X79717667Y-97763583D01*
X79694506Y-97775963D01*
X79597815Y-97855315D01*
X79524000Y-97945259D01*
X79450185Y-97855315D01*
X79353494Y-97775963D01*
X79330333Y-97763583D01*
X79238250Y-97671500D01*
X79124663Y-97681046D01*
X79123482Y-97680688D01*
X78999000Y-97668428D01*
X78449000Y-97668428D01*
X78324518Y-97680688D01*
X78324000Y-97680845D01*
X78323482Y-97680688D01*
X78199000Y-97668428D01*
X77649000Y-97668428D01*
X77524518Y-97680688D01*
X77524000Y-97680845D01*
X77523482Y-97680688D01*
X77399000Y-97668428D01*
X76849000Y-97668428D01*
X76724518Y-97680688D01*
X76724000Y-97680845D01*
X76723482Y-97680688D01*
X76599000Y-97668428D01*
X76049000Y-97668428D01*
X75924518Y-97680688D01*
X75924000Y-97680845D01*
X75923482Y-97680688D01*
X75799000Y-97668428D01*
X75249000Y-97668428D01*
X75124518Y-97680688D01*
X75124000Y-97680845D01*
X75123482Y-97680688D01*
X74999000Y-97668428D01*
X74449000Y-97668428D01*
X74324518Y-97680688D01*
X74324000Y-97680845D01*
X74323482Y-97680688D01*
X74199000Y-97668428D01*
X73649000Y-97668428D01*
X73524518Y-97680688D01*
X73523337Y-97681046D01*
X73409750Y-97671500D01*
X73317667Y-97763583D01*
X73294506Y-97775963D01*
X73197815Y-97855315D01*
X73124000Y-97945259D01*
X73050185Y-97855315D01*
X72953494Y-97775963D01*
X72930333Y-97763583D01*
X72838250Y-97671500D01*
X72724663Y-97681046D01*
X72723482Y-97680688D01*
X72599000Y-97668428D01*
X72049000Y-97668428D01*
X72008038Y-97672462D01*
X72012072Y-97631500D01*
X72012072Y-97081500D01*
X71999812Y-96957018D01*
X71999655Y-96956500D01*
X71999812Y-96955982D01*
X72012072Y-96831500D01*
X72012072Y-96281500D01*
X71999812Y-96157018D01*
X71999655Y-96156500D01*
X71999812Y-96155982D01*
X72012072Y-96031500D01*
X72012072Y-95481500D01*
X71999812Y-95357018D01*
X71999655Y-95356500D01*
X71999812Y-95355982D01*
X72012072Y-95231500D01*
X72012072Y-94681500D01*
X71999812Y-94557018D01*
X71999454Y-94555837D01*
X72009000Y-94442250D01*
X71916917Y-94350167D01*
X71904537Y-94327006D01*
X71825185Y-94230315D01*
X71735241Y-94156500D01*
X71825185Y-94082685D01*
X71904537Y-93985994D01*
X71916917Y-93962833D01*
X72009000Y-93870750D01*
X71999454Y-93757163D01*
X71999812Y-93755982D01*
X72012072Y-93631500D01*
X72012072Y-93152508D01*
X72100575Y-93079875D01*
X72123646Y-93051763D01*
X74011142Y-91164267D01*
X74012795Y-91168256D01*
X74126063Y-91337774D01*
X74270226Y-91481937D01*
X74439744Y-91595205D01*
X74628102Y-91673226D01*
X74828061Y-91713000D01*
X75031939Y-91713000D01*
X75231898Y-91673226D01*
X75420256Y-91595205D01*
X75589774Y-91481937D01*
X75733937Y-91337774D01*
X75847205Y-91168256D01*
X75925226Y-90979898D01*
X75965000Y-90779939D01*
X75965000Y-90576061D01*
X75925226Y-90376102D01*
X75847205Y-90187744D01*
X75733937Y-90018226D01*
X75589774Y-89874063D01*
X75420256Y-89760795D01*
X75231898Y-89682774D01*
X75031939Y-89643000D01*
X74936709Y-89643000D01*
X74660600Y-89366891D01*
X74660600Y-88844994D01*
X74724000Y-88767741D01*
X74797815Y-88857685D01*
X74894506Y-88937037D01*
X74917667Y-88949417D01*
X75009750Y-89041500D01*
X75123337Y-89031954D01*
X75124518Y-89032312D01*
X75249000Y-89044572D01*
X75799000Y-89044572D01*
X75923482Y-89032312D01*
X75924000Y-89032155D01*
X75924518Y-89032312D01*
X76049000Y-89044572D01*
X76599000Y-89044572D01*
X76723482Y-89032312D01*
X76724000Y-89032155D01*
X76724518Y-89032312D01*
X76849000Y-89044572D01*
X77399000Y-89044572D01*
X77523482Y-89032312D01*
X77524000Y-89032155D01*
X77524518Y-89032312D01*
X77649000Y-89044572D01*
X78199000Y-89044572D01*
X78323482Y-89032312D01*
X78324000Y-89032155D01*
X78324518Y-89032312D01*
X78449000Y-89044572D01*
X78999000Y-89044572D01*
X79123482Y-89032312D01*
X79124000Y-89032155D01*
X79124518Y-89032312D01*
X79249000Y-89044572D01*
X79799000Y-89044572D01*
X79923482Y-89032312D01*
X79924000Y-89032155D01*
X79924518Y-89032312D01*
X80049000Y-89044572D01*
X80599000Y-89044572D01*
X80641552Y-89040381D01*
X80639000Y-89070750D01*
X80797750Y-89229500D01*
X81897000Y-89229500D01*
X81897000Y-88605250D01*
X82151000Y-88605250D01*
X82151000Y-89229500D01*
X83250250Y-89229500D01*
X83409000Y-89070750D01*
X83399177Y-88953869D01*
X83362265Y-88834355D01*
X83302746Y-88724339D01*
X83222908Y-88628049D01*
X83125818Y-88549184D01*
X83015208Y-88490776D01*
X82895329Y-88455070D01*
X82770787Y-88443436D01*
X82309750Y-88446500D01*
X82151000Y-88605250D01*
X81897000Y-88605250D01*
X81738250Y-88446500D01*
X81277213Y-88443436D01*
X81233028Y-88447564D01*
X81237072Y-88406500D01*
X81237072Y-87925000D01*
X84211928Y-87925000D01*
X84215000Y-88126750D01*
X84373750Y-88285500D01*
X85423000Y-88285500D01*
X85423000Y-87448750D01*
X85264250Y-87290000D01*
X84850000Y-87286928D01*
X84725518Y-87299188D01*
X84605820Y-87335498D01*
X84495506Y-87394463D01*
X84398815Y-87473815D01*
X84319463Y-87570506D01*
X84260498Y-87680820D01*
X84224188Y-87800518D01*
X84211928Y-87925000D01*
X81237072Y-87925000D01*
X81237072Y-86906500D01*
X81224812Y-86782018D01*
X81188502Y-86662320D01*
X81129537Y-86552006D01*
X81050185Y-86455315D01*
X80953494Y-86375963D01*
X80843180Y-86316998D01*
X80723482Y-86280688D01*
X80599000Y-86268428D01*
X80049000Y-86268428D01*
X79924518Y-86280688D01*
X79924000Y-86280845D01*
X79923482Y-86280688D01*
X79799000Y-86268428D01*
X79249000Y-86268428D01*
X79124518Y-86280688D01*
X79124000Y-86280845D01*
X79123482Y-86280688D01*
X78999000Y-86268428D01*
X78449000Y-86268428D01*
X78324518Y-86280688D01*
X78324000Y-86280845D01*
X78323482Y-86280688D01*
X78199000Y-86268428D01*
X77649000Y-86268428D01*
X77524518Y-86280688D01*
X77524000Y-86280845D01*
X77523482Y-86280688D01*
X77399000Y-86268428D01*
X77060600Y-86268428D01*
X77060600Y-85531109D01*
X77645263Y-84946446D01*
X77673375Y-84923375D01*
X77765424Y-84811213D01*
X77833822Y-84683249D01*
X77875942Y-84544399D01*
X77886600Y-84436186D01*
X77886600Y-84436177D01*
X77890163Y-84400001D01*
X77886600Y-84363825D01*
X77886600Y-81497679D01*
X77966482Y-81489812D01*
X78086180Y-81453502D01*
X78196494Y-81394537D01*
X78293185Y-81315185D01*
X78372537Y-81218494D01*
X78431502Y-81108180D01*
X78467812Y-80988482D01*
X78475384Y-80911600D01*
X78787952Y-80911600D01*
X78895208Y-81042292D01*
X79028836Y-81151958D01*
X79181291Y-81233447D01*
X79346715Y-81283628D01*
X79518750Y-81300572D01*
X80431250Y-81300572D01*
X80603285Y-81283628D01*
X80768709Y-81233447D01*
X80921164Y-81151958D01*
X81054792Y-81042292D01*
X81164458Y-80908664D01*
X81245947Y-80756209D01*
X81296128Y-80590785D01*
X81313072Y-80418750D01*
X81313072Y-79931250D01*
X81296128Y-79759215D01*
X81245947Y-79593791D01*
X81164458Y-79441336D01*
X81054792Y-79307708D01*
X81048436Y-79302492D01*
X81126185Y-79238685D01*
X81205537Y-79141994D01*
X81264502Y-79031680D01*
X81300812Y-78911982D01*
X81313072Y-78787500D01*
X81310000Y-78585750D01*
X81151250Y-78427000D01*
X80102000Y-78427000D01*
X80102000Y-78447000D01*
X79848000Y-78447000D01*
X79848000Y-78427000D01*
X78798750Y-78427000D01*
X78640000Y-78585750D01*
X78636928Y-78787500D01*
X78649188Y-78911982D01*
X78685498Y-79031680D01*
X78744463Y-79141994D01*
X78823815Y-79238685D01*
X78901564Y-79302492D01*
X78895208Y-79307708D01*
X78787952Y-79438400D01*
X78437138Y-79438400D01*
X78431502Y-79419820D01*
X78428391Y-79414000D01*
X78431502Y-79408180D01*
X78467812Y-79288482D01*
X78480072Y-79164000D01*
X78477000Y-78849750D01*
X78318250Y-78691000D01*
X77269000Y-78691000D01*
X77269000Y-78711000D01*
X77015000Y-78711000D01*
X77015000Y-78691000D01*
X76995000Y-78691000D01*
X76995000Y-78437000D01*
X77015000Y-78437000D01*
X77015000Y-77487750D01*
X77269000Y-77487750D01*
X77269000Y-78437000D01*
X78318250Y-78437000D01*
X78477000Y-78278250D01*
X78480072Y-77964000D01*
X78467812Y-77839518D01*
X78459617Y-77812500D01*
X78636928Y-77812500D01*
X78640000Y-78014250D01*
X78798750Y-78173000D01*
X79848000Y-78173000D01*
X79848000Y-77336250D01*
X80102000Y-77336250D01*
X80102000Y-78173000D01*
X81151250Y-78173000D01*
X81310000Y-78014250D01*
X81313072Y-77812500D01*
X81300812Y-77688018D01*
X81264502Y-77568320D01*
X81205537Y-77458006D01*
X81126185Y-77361315D01*
X81029494Y-77281963D01*
X80919180Y-77222998D01*
X80799482Y-77186688D01*
X80675000Y-77174428D01*
X80260750Y-77177500D01*
X80102000Y-77336250D01*
X79848000Y-77336250D01*
X79689250Y-77177500D01*
X79275000Y-77174428D01*
X79150518Y-77186688D01*
X79030820Y-77222998D01*
X78920506Y-77281963D01*
X78823815Y-77361315D01*
X78744463Y-77458006D01*
X78685498Y-77568320D01*
X78649188Y-77688018D01*
X78636928Y-77812500D01*
X78459617Y-77812500D01*
X78431502Y-77719820D01*
X78372537Y-77609506D01*
X78293185Y-77512815D01*
X78196494Y-77433463D01*
X78086180Y-77374498D01*
X77966482Y-77338188D01*
X77842000Y-77325928D01*
X77427750Y-77329000D01*
X77269000Y-77487750D01*
X77015000Y-77487750D01*
X76856250Y-77329000D01*
X76442000Y-77325928D01*
X76317518Y-77338188D01*
X76197820Y-77374498D01*
X76087506Y-77433463D01*
X76042000Y-77470809D01*
X75996494Y-77433463D01*
X75886180Y-77374498D01*
X75766482Y-77338188D01*
X75642000Y-77325928D01*
X74242000Y-77325928D01*
X74117518Y-77338188D01*
X73997820Y-77374498D01*
X73887506Y-77433463D01*
X73790815Y-77512815D01*
X73749301Y-77563400D01*
X73562048Y-77563400D01*
X73454792Y-77432708D01*
X73321164Y-77323042D01*
X73168709Y-77241553D01*
X73003285Y-77191372D01*
X72831250Y-77174428D01*
X71918750Y-77174428D01*
X71746715Y-77191372D01*
X71581291Y-77241553D01*
X71428836Y-77323042D01*
X71295208Y-77432708D01*
X71185542Y-77566336D01*
X71104053Y-77718791D01*
X71053872Y-77884215D01*
X71036928Y-78056250D01*
X71036928Y-78543750D01*
X71053872Y-78715785D01*
X71104053Y-78881209D01*
X71185542Y-79033664D01*
X71295208Y-79167292D01*
X71301564Y-79172508D01*
X71223815Y-79236315D01*
X71144463Y-79333006D01*
X71085498Y-79443320D01*
X71049188Y-79563018D01*
X71036928Y-79687500D01*
X71040000Y-79889250D01*
X71198750Y-80048000D01*
X72248000Y-80048000D01*
X72248000Y-80028000D01*
X72502000Y-80028000D01*
X72502000Y-80048000D01*
X72522000Y-80048000D01*
X72522000Y-80302000D01*
X72502000Y-80302000D01*
X72502000Y-81138750D01*
X72660750Y-81297500D01*
X73075000Y-81300572D01*
X73140748Y-81294097D01*
X73175145Y-81358448D01*
X73184577Y-81376095D01*
X73276626Y-81488257D01*
X73304732Y-81511323D01*
X74787400Y-82993992D01*
X74787401Y-86468005D01*
X74724000Y-86545259D01*
X74660600Y-86468006D01*
X74660600Y-85735186D01*
X74664164Y-85699000D01*
X74649942Y-85554601D01*
X74611018Y-85426287D01*
X74607822Y-85415751D01*
X74539424Y-85287787D01*
X74513576Y-85256291D01*
X74470442Y-85203732D01*
X74470437Y-85203727D01*
X74447374Y-85175625D01*
X74419273Y-85152563D01*
X72618235Y-83351526D01*
X72595165Y-83323415D01*
X72483003Y-83231366D01*
X72355039Y-83162968D01*
X72216189Y-83120848D01*
X72107976Y-83110190D01*
X72107973Y-83110190D01*
X72071790Y-83106626D01*
X72035607Y-83110190D01*
X68664399Y-83110190D01*
X66633355Y-81079146D01*
X66638072Y-81031250D01*
X66638072Y-80662500D01*
X71036928Y-80662500D01*
X71049188Y-80786982D01*
X71085498Y-80906680D01*
X71144463Y-81016994D01*
X71223815Y-81113685D01*
X71320506Y-81193037D01*
X71430820Y-81252002D01*
X71550518Y-81288312D01*
X71675000Y-81300572D01*
X72089250Y-81297500D01*
X72248000Y-81138750D01*
X72248000Y-80302000D01*
X71198750Y-80302000D01*
X71040000Y-80460750D01*
X71036928Y-80662500D01*
X66638072Y-80662500D01*
X66638072Y-80543750D01*
X66621128Y-80371715D01*
X66570947Y-80206291D01*
X66489458Y-80053836D01*
X66379792Y-79920208D01*
X66246164Y-79810542D01*
X66093709Y-79729053D01*
X65928285Y-79678872D01*
X65756250Y-79661928D01*
X64843750Y-79661928D01*
X64671715Y-79678872D01*
X64506291Y-79729053D01*
X64353836Y-79810542D01*
X64220208Y-79920208D01*
X64112952Y-80050900D01*
X63194570Y-80050900D01*
X63189458Y-80041336D01*
X63079792Y-79907708D01*
X62946164Y-79798042D01*
X62793709Y-79716553D01*
X62628285Y-79666372D01*
X62456250Y-79649428D01*
X61543750Y-79649428D01*
X61371715Y-79666372D01*
X61206291Y-79716553D01*
X61053836Y-79798042D01*
X60920208Y-79907708D01*
X60810542Y-80041336D01*
X60729053Y-80193791D01*
X60678872Y-80359215D01*
X60661928Y-80531250D01*
X60661928Y-81018750D01*
X60678872Y-81190785D01*
X60729053Y-81356209D01*
X60810542Y-81508664D01*
X60920208Y-81642292D01*
X61005756Y-81712500D01*
X60920208Y-81782708D01*
X60810542Y-81916336D01*
X60729053Y-82068791D01*
X60678872Y-82234215D01*
X60661928Y-82406250D01*
X60661928Y-82893750D01*
X60666645Y-82941646D01*
X60604732Y-83003559D01*
X60576626Y-83026625D01*
X60553560Y-83054731D01*
X60553558Y-83054733D01*
X60484576Y-83138788D01*
X60416178Y-83266753D01*
X60405987Y-83300348D01*
X60381434Y-83381291D01*
X60374059Y-83405602D01*
X60359836Y-83550000D01*
X60363401Y-83586193D01*
X60363400Y-85397889D01*
X60296063Y-85465226D01*
X60182795Y-85634744D01*
X60104774Y-85823102D01*
X60065000Y-86023061D01*
X60065000Y-86226939D01*
X60104774Y-86426898D01*
X60182795Y-86615256D01*
X60296063Y-86784774D01*
X60440226Y-86928937D01*
X60609744Y-87042205D01*
X60798102Y-87120226D01*
X60998061Y-87160000D01*
X61201939Y-87160000D01*
X61401898Y-87120226D01*
X61590256Y-87042205D01*
X61759774Y-86928937D01*
X61903937Y-86784774D01*
X62017205Y-86615256D01*
X62095226Y-86426898D01*
X62135000Y-86226939D01*
X62135000Y-86023061D01*
X62095226Y-85823102D01*
X62017205Y-85634744D01*
X61903937Y-85465226D01*
X61836600Y-85397889D01*
X61836600Y-84115809D01*
X62466057Y-84745267D01*
X62489125Y-84773375D01*
X62601287Y-84865424D01*
X62729251Y-84933822D01*
X62868101Y-84975942D01*
X62976314Y-84986600D01*
X62976323Y-84986600D01*
X63012499Y-84990163D01*
X63048675Y-84986600D01*
X71119891Y-84986600D01*
X72387400Y-86254110D01*
X72387400Y-86268428D01*
X72049000Y-86268428D01*
X71924518Y-86280688D01*
X71804820Y-86316998D01*
X71694506Y-86375963D01*
X71597815Y-86455315D01*
X71518463Y-86552006D01*
X71459498Y-86662320D01*
X71423188Y-86782018D01*
X71410928Y-86906500D01*
X71410928Y-88406500D01*
X71414962Y-88447462D01*
X71374000Y-88443428D01*
X69874000Y-88443428D01*
X69749518Y-88455688D01*
X69629820Y-88491998D01*
X69519506Y-88550963D01*
X69422815Y-88630315D01*
X69343463Y-88727006D01*
X69284498Y-88837320D01*
X69248188Y-88957018D01*
X69235928Y-89081500D01*
X69235928Y-89631500D01*
X69248188Y-89755982D01*
X69248345Y-89756500D01*
X69248188Y-89757018D01*
X69235928Y-89881500D01*
X69235928Y-90431500D01*
X69248188Y-90555982D01*
X69248345Y-90556500D01*
X69248188Y-90557018D01*
X69235928Y-90681500D01*
X69235928Y-91231500D01*
X69248188Y-91355982D01*
X69248345Y-91356500D01*
X69248188Y-91357018D01*
X69235928Y-91481500D01*
X69235928Y-92031500D01*
X69248188Y-92155982D01*
X69248345Y-92156500D01*
X69248188Y-92157018D01*
X69235928Y-92281500D01*
X69235928Y-92619900D01*
X68386610Y-92619900D01*
X67125572Y-91358863D01*
X67125572Y-90818750D01*
X67108628Y-90646715D01*
X67058447Y-90481291D01*
X66976958Y-90328836D01*
X66867292Y-90195208D01*
X66733664Y-90085542D01*
X66581209Y-90004053D01*
X66415785Y-89953872D01*
X66243750Y-89936928D01*
X65756250Y-89936928D01*
X65584215Y-89953872D01*
X65418791Y-90004053D01*
X65266336Y-90085542D01*
X65132708Y-90195208D01*
X65127492Y-90201564D01*
X65063685Y-90123815D01*
X64966994Y-90044463D01*
X64856680Y-89985498D01*
X64736982Y-89949188D01*
X64612500Y-89936928D01*
X64410750Y-89940000D01*
X64252000Y-90098750D01*
X64252000Y-91148000D01*
X64272000Y-91148000D01*
X64272000Y-91402000D01*
X64252000Y-91402000D01*
X64252000Y-92451250D01*
X64410750Y-92610000D01*
X64612500Y-92613072D01*
X64736982Y-92600812D01*
X64856680Y-92564502D01*
X64966994Y-92505537D01*
X65063685Y-92426185D01*
X65127492Y-92348436D01*
X65132708Y-92354792D01*
X65266336Y-92464458D01*
X65418791Y-92545947D01*
X65584215Y-92596128D01*
X65756250Y-92613072D01*
X66243750Y-92613072D01*
X66291645Y-92608355D01*
X67535059Y-93851769D01*
X67558125Y-93879875D01*
X67670287Y-93971924D01*
X67798251Y-94040322D01*
X67848906Y-94055688D01*
X67937101Y-94082442D01*
X68081500Y-94096664D01*
X68117686Y-94093100D01*
X69435506Y-94093100D01*
X69512759Y-94156500D01*
X69435506Y-94219900D01*
X58011610Y-94219900D01*
X55766710Y-91975000D01*
X62999428Y-91975000D01*
X63011688Y-92099482D01*
X63047998Y-92219180D01*
X63106963Y-92329494D01*
X63186315Y-92426185D01*
X63283006Y-92505537D01*
X63393320Y-92564502D01*
X63513018Y-92600812D01*
X63637500Y-92613072D01*
X63839250Y-92610000D01*
X63998000Y-92451250D01*
X63998000Y-91402000D01*
X63161250Y-91402000D01*
X63002500Y-91560750D01*
X62999428Y-91975000D01*
X55766710Y-91975000D01*
X54761600Y-90969891D01*
X54761600Y-90575000D01*
X62999428Y-90575000D01*
X63002500Y-90989250D01*
X63161250Y-91148000D01*
X63998000Y-91148000D01*
X63998000Y-90098750D01*
X63839250Y-89940000D01*
X63637500Y-89936928D01*
X63513018Y-89949188D01*
X63393320Y-89985498D01*
X63283006Y-90044463D01*
X63186315Y-90123815D01*
X63106963Y-90220506D01*
X63047998Y-90330820D01*
X63011688Y-90450518D01*
X62999428Y-90575000D01*
X54761600Y-90575000D01*
X54761600Y-87755109D01*
X55545269Y-86971441D01*
X55562179Y-86957563D01*
X55678285Y-86946128D01*
X55843709Y-86895947D01*
X55996164Y-86814458D01*
X56129792Y-86704792D01*
X56239458Y-86571164D01*
X56320947Y-86418709D01*
X56371128Y-86253285D01*
X56388072Y-86081250D01*
X56388072Y-85593750D01*
X56371128Y-85421715D01*
X56320947Y-85256291D01*
X56239458Y-85103836D01*
X56129792Y-84970208D01*
X56044244Y-84900000D01*
X56129792Y-84829792D01*
X56239458Y-84696164D01*
X56320947Y-84543709D01*
X56371128Y-84378285D01*
X56388072Y-84206250D01*
X56388072Y-83718750D01*
X56371128Y-83546715D01*
X56320947Y-83381291D01*
X56239458Y-83228836D01*
X56129792Y-83095208D01*
X55996164Y-82985542D01*
X55843709Y-82904053D01*
X55678285Y-82853872D01*
X55506250Y-82836928D01*
X54966137Y-82836928D01*
X54686600Y-82557391D01*
X54686600Y-78907072D01*
X55000000Y-78907072D01*
X55124482Y-78894812D01*
X55149266Y-78887294D01*
X55168639Y-78893404D01*
X55268250Y-78904000D01*
X55427000Y-78745250D01*
X55427000Y-78740033D01*
X55451185Y-78720185D01*
X55530537Y-78623494D01*
X55589502Y-78513180D01*
X55625812Y-78393482D01*
X55638072Y-78269000D01*
X55638072Y-76019000D01*
X55625812Y-75894518D01*
X55589502Y-75774820D01*
X55530537Y-75664506D01*
X55451185Y-75567815D01*
X55427000Y-75547967D01*
X55427000Y-75542750D01*
X55673000Y-75542750D01*
X55673000Y-77017000D01*
X55697000Y-77017000D01*
X55697000Y-77271000D01*
X55673000Y-77271000D01*
X55673000Y-78745250D01*
X55831750Y-78904000D01*
X55931361Y-78893404D01*
X56050652Y-78855779D01*
X56160311Y-78795604D01*
X56256123Y-78715193D01*
X56334406Y-78617634D01*
X56390123Y-78510578D01*
X56544866Y-78699134D01*
X56770986Y-78884706D01*
X57028966Y-79022599D01*
X57308889Y-79107513D01*
X57600000Y-79136185D01*
X57891110Y-79107513D01*
X58171033Y-79022599D01*
X58429013Y-78884706D01*
X58655134Y-78699134D01*
X58840706Y-78473014D01*
X58978599Y-78215034D01*
X59063513Y-77935111D01*
X59085000Y-77716950D01*
X59085000Y-76571050D01*
X59063513Y-76352889D01*
X58978599Y-76072966D01*
X58840706Y-75814986D01*
X58655134Y-75588866D01*
X58429014Y-75403294D01*
X58171034Y-75265401D01*
X57891111Y-75180487D01*
X57600000Y-75151815D01*
X57308890Y-75180487D01*
X57028967Y-75265401D01*
X56770987Y-75403294D01*
X56544867Y-75588866D01*
X56390123Y-75777421D01*
X56334406Y-75670366D01*
X56256123Y-75572807D01*
X56160311Y-75492396D01*
X56050652Y-75432221D01*
X55931361Y-75394596D01*
X55831750Y-75384000D01*
X55673000Y-75542750D01*
X55427000Y-75542750D01*
X55268250Y-75384000D01*
X55168639Y-75394596D01*
X55149266Y-75400706D01*
X55124482Y-75393188D01*
X55000000Y-75380928D01*
X54500000Y-75380928D01*
X54375518Y-75393188D01*
X54350000Y-75400929D01*
X54324482Y-75393188D01*
X54200000Y-75380928D01*
X53700000Y-75380928D01*
X53575518Y-75393188D01*
X53550000Y-75400929D01*
X53524482Y-75393188D01*
X53400000Y-75380928D01*
X52900000Y-75380928D01*
X52775518Y-75393188D01*
X52750000Y-75400929D01*
X52724482Y-75393188D01*
X52600000Y-75380928D01*
X52100000Y-75380928D01*
X51975518Y-75393188D01*
X51855820Y-75429498D01*
X51745506Y-75488463D01*
X51648815Y-75567815D01*
X51569463Y-75664506D01*
X51510498Y-75774820D01*
X51509754Y-75777271D01*
X51355134Y-75588866D01*
X51129014Y-75403294D01*
X50871034Y-75265401D01*
X50591111Y-75180487D01*
X50300000Y-75151815D01*
X50008890Y-75180487D01*
X49728967Y-75265401D01*
X49470987Y-75403294D01*
X49244867Y-75588866D01*
X49059294Y-75814986D01*
X48921401Y-76072966D01*
X48836487Y-76352889D01*
X48815000Y-76571050D01*
X48815000Y-77716949D01*
X48836487Y-77935110D01*
X48921401Y-78215033D01*
X49059294Y-78473013D01*
X49244866Y-78699134D01*
X49470986Y-78884706D01*
X49728966Y-79022599D01*
X50008889Y-79107513D01*
X50300000Y-79136185D01*
X50591110Y-79107513D01*
X50871033Y-79022599D01*
X51129013Y-78884706D01*
X51355134Y-78699134D01*
X51509754Y-78510729D01*
X51510498Y-78513180D01*
X51569463Y-78623494D01*
X51613401Y-78677032D01*
X51613400Y-80173632D01*
X46634732Y-85152301D01*
X46606626Y-85175367D01*
X46583560Y-85203473D01*
X46583558Y-85203475D01*
X46514576Y-85287530D01*
X46446178Y-85415495D01*
X46426232Y-85481250D01*
X46404059Y-85554343D01*
X46402792Y-85567210D01*
X46389836Y-85698742D01*
X46393401Y-85734935D01*
X46393400Y-88037920D01*
X46331746Y-88043992D01*
X46165150Y-88094528D01*
X46011614Y-88176595D01*
X45877038Y-88287038D01*
X45766595Y-88421614D01*
X45684528Y-88575150D01*
X45633992Y-88741746D01*
X45616928Y-88915000D01*
X45616928Y-89665000D01*
X45633992Y-89838254D01*
X45684528Y-90004850D01*
X45766595Y-90158386D01*
X45877038Y-90292962D01*
X46011614Y-90403405D01*
X46165150Y-90485472D01*
X46331746Y-90536008D01*
X46505000Y-90553072D01*
X47755000Y-90553072D01*
X47928254Y-90536008D01*
X48094850Y-90485472D01*
X48248386Y-90403405D01*
X48382962Y-90292962D01*
X48493405Y-90158386D01*
X48575472Y-90004850D01*
X48626008Y-89838254D01*
X48643072Y-89665000D01*
X48643072Y-88915000D01*
X48626008Y-88741746D01*
X48575472Y-88575150D01*
X48493405Y-88421614D01*
X48382962Y-88287038D01*
X48248386Y-88176595D01*
X48094850Y-88094528D01*
X47928254Y-88043992D01*
X47866600Y-88037920D01*
X47866600Y-86003851D01*
X52413400Y-81457052D01*
X52413400Y-82394890D01*
X52083862Y-82724428D01*
X51543750Y-82724428D01*
X51371715Y-82741372D01*
X51206291Y-82791553D01*
X51053836Y-82873042D01*
X50920208Y-82982708D01*
X50810542Y-83116336D01*
X50729053Y-83268791D01*
X50678872Y-83434215D01*
X50661928Y-83606250D01*
X50661928Y-84093750D01*
X50678872Y-84265785D01*
X50729053Y-84431209D01*
X50810542Y-84583664D01*
X50920208Y-84717292D01*
X51005756Y-84787500D01*
X50920208Y-84857708D01*
X50810542Y-84991336D01*
X50729053Y-85143791D01*
X50678872Y-85309215D01*
X50661928Y-85481250D01*
X50661928Y-85968750D01*
X50678872Y-86140785D01*
X50729053Y-86306209D01*
X50810542Y-86458664D01*
X50920208Y-86592292D01*
X51053836Y-86701958D01*
X51206291Y-86783447D01*
X51371715Y-86833628D01*
X51487822Y-86845064D01*
X51504732Y-86858941D01*
X52638400Y-87992610D01*
X52638401Y-91438807D01*
X52634836Y-91475000D01*
X52649059Y-91619398D01*
X52691178Y-91758247D01*
X52759576Y-91886212D01*
X52819166Y-91958822D01*
X52851626Y-91998375D01*
X52879732Y-92021441D01*
X56646691Y-95788400D01*
X51145109Y-95788400D01*
X48480320Y-93123611D01*
X48509532Y-93068958D01*
X48551652Y-92930109D01*
X48561395Y-92831186D01*
X48575472Y-92804850D01*
X48626008Y-92638254D01*
X48643072Y-92465000D01*
X48643072Y-91715000D01*
X48626008Y-91541746D01*
X48575472Y-91375150D01*
X48493405Y-91221614D01*
X48382962Y-91087038D01*
X48248386Y-90976595D01*
X48094850Y-90894528D01*
X47928254Y-90843992D01*
X47755000Y-90826928D01*
X46505000Y-90826928D01*
X46331746Y-90843992D01*
X46165150Y-90894528D01*
X46011614Y-90976595D01*
X45877038Y-91087038D01*
X45766595Y-91221614D01*
X45684528Y-91375150D01*
X45633992Y-91541746D01*
X45616928Y-91715000D01*
X45616928Y-92465000D01*
X45633992Y-92638254D01*
X45684528Y-92804850D01*
X45766595Y-92958386D01*
X45877038Y-93092962D01*
X46011614Y-93203405D01*
X46165150Y-93285472D01*
X46331746Y-93336008D01*
X46505000Y-93353072D01*
X46624534Y-93353072D01*
X46634732Y-93361441D01*
X50293554Y-97020263D01*
X50316625Y-97048375D01*
X50428787Y-97140424D01*
X50556751Y-97208822D01*
X50695601Y-97250942D01*
X50803814Y-97261600D01*
X50803823Y-97261600D01*
X50839999Y-97265163D01*
X50876175Y-97261600D01*
X60016804Y-97261600D01*
X59965226Y-97296063D01*
X59821063Y-97440226D01*
X59707795Y-97609744D01*
X59629774Y-97798102D01*
X59590000Y-97998061D01*
X59590000Y-98093290D01*
X59044891Y-98638400D01*
X58106969Y-98638400D01*
X58089502Y-98580820D01*
X58030537Y-98470506D01*
X57951185Y-98373815D01*
X57854494Y-98294463D01*
X57744180Y-98235498D01*
X57624482Y-98199188D01*
X57500000Y-98186928D01*
X55700000Y-98186928D01*
X55575518Y-98199188D01*
X55455820Y-98235498D01*
X55345506Y-98294463D01*
X55248815Y-98373815D01*
X55169463Y-98470506D01*
X55110498Y-98580820D01*
X55074188Y-98700518D01*
X55061928Y-98825000D01*
X55061928Y-99925000D01*
X55074188Y-100049482D01*
X55110498Y-100169180D01*
X55169463Y-100279494D01*
X55248815Y-100376185D01*
X55345506Y-100455537D01*
X55455820Y-100514502D01*
X55575518Y-100550812D01*
X55700000Y-100563072D01*
X57500000Y-100563072D01*
X57624482Y-100550812D01*
X57744180Y-100514502D01*
X57854494Y-100455537D01*
X57951185Y-100376185D01*
X58030537Y-100279494D01*
X58089502Y-100169180D01*
X58106969Y-100111600D01*
X59313817Y-100111600D01*
X59350000Y-100115164D01*
X59386183Y-100111600D01*
X59386186Y-100111600D01*
X59494399Y-100100942D01*
X59633249Y-100058822D01*
X59761213Y-99990424D01*
X59873375Y-99898375D01*
X59896445Y-99870264D01*
X60631710Y-99135000D01*
X60726939Y-99135000D01*
X60926898Y-99095226D01*
X61115256Y-99017205D01*
X61284774Y-98903937D01*
X61428937Y-98759774D01*
X61542205Y-98590256D01*
X61620226Y-98401898D01*
X61660000Y-98201939D01*
X61660000Y-97998061D01*
X61620226Y-97798102D01*
X61542205Y-97609744D01*
X61428937Y-97440226D01*
X61284774Y-97296063D01*
X61233196Y-97261600D01*
X62544891Y-97261600D01*
X63691645Y-98408354D01*
X63686928Y-98456250D01*
X63686928Y-98943750D01*
X63703872Y-99115785D01*
X63754053Y-99281209D01*
X63835542Y-99433664D01*
X63945208Y-99567292D01*
X63951564Y-99572508D01*
X63873815Y-99636315D01*
X63794463Y-99733006D01*
X63735498Y-99843320D01*
X63699188Y-99963018D01*
X63686928Y-100087500D01*
X63690000Y-100289250D01*
X63848750Y-100448000D01*
X64898000Y-100448000D01*
X64898000Y-100428000D01*
X65152000Y-100428000D01*
X65152000Y-100448000D01*
X66201250Y-100448000D01*
X66360000Y-100289250D01*
X66363072Y-100087500D01*
X66350812Y-99963018D01*
X66314502Y-99843320D01*
X66255537Y-99733006D01*
X66176185Y-99636315D01*
X66098436Y-99572508D01*
X66104792Y-99567292D01*
X66214458Y-99433664D01*
X66295947Y-99281209D01*
X66346128Y-99115785D01*
X66363072Y-98943750D01*
X66363072Y-98456250D01*
X66358355Y-98408355D01*
X67473610Y-97293100D01*
X69235928Y-97293100D01*
X69235928Y-97631500D01*
X69248188Y-97755982D01*
X69284498Y-97875680D01*
X69343463Y-97985994D01*
X69422815Y-98082685D01*
X69519506Y-98162037D01*
X69629820Y-98221002D01*
X69749518Y-98257312D01*
X69874000Y-98269572D01*
X71374000Y-98269572D01*
X71414962Y-98265538D01*
X71410928Y-98306500D01*
X71410928Y-99806500D01*
X71423188Y-99930982D01*
X71459498Y-100050680D01*
X71518463Y-100160994D01*
X71597815Y-100257685D01*
X71694506Y-100337037D01*
X71804820Y-100396002D01*
X71924518Y-100432312D01*
X72049000Y-100444572D01*
X72599000Y-100444572D01*
X72723482Y-100432312D01*
X72724663Y-100431954D01*
X72838250Y-100441500D01*
X72930333Y-100349417D01*
X72953494Y-100337037D01*
X73050185Y-100257685D01*
X73124000Y-100167741D01*
X73197815Y-100257685D01*
X73294506Y-100337037D01*
X73317667Y-100349417D01*
X73409750Y-100441500D01*
X73523337Y-100431954D01*
X73524518Y-100432312D01*
X73649000Y-100444572D01*
X74199000Y-100444572D01*
X74323482Y-100432312D01*
X74324000Y-100432155D01*
X74324518Y-100432312D01*
X74449000Y-100444572D01*
X74999000Y-100444572D01*
X75123482Y-100432312D01*
X75124000Y-100432155D01*
X75124518Y-100432312D01*
X75249000Y-100444572D01*
X75799000Y-100444572D01*
X75923482Y-100432312D01*
X75924000Y-100432155D01*
X75924518Y-100432312D01*
X76049000Y-100444572D01*
X76599000Y-100444572D01*
X76723482Y-100432312D01*
X76724000Y-100432155D01*
X76724518Y-100432312D01*
X76849000Y-100444572D01*
X77399000Y-100444572D01*
X77523482Y-100432312D01*
X77524000Y-100432155D01*
X77524518Y-100432312D01*
X77649000Y-100444572D01*
X78199000Y-100444572D01*
X78323482Y-100432312D01*
X78324000Y-100432155D01*
X78324518Y-100432312D01*
X78449000Y-100444572D01*
X78999000Y-100444572D01*
X79123482Y-100432312D01*
X79124663Y-100431954D01*
X79238250Y-100441500D01*
X79330333Y-100349417D01*
X79353494Y-100337037D01*
X79450185Y-100257685D01*
X79524000Y-100167741D01*
X79587400Y-100244995D01*
X79587400Y-100712816D01*
X79583836Y-100749000D01*
X79587400Y-100785183D01*
X79587400Y-100785185D01*
X79598058Y-100893398D01*
X79640178Y-101032248D01*
X79708576Y-101160212D01*
X79800625Y-101272374D01*
X79828732Y-101295441D01*
X79903554Y-101370263D01*
X79926625Y-101398375D01*
X80038787Y-101490424D01*
X80166751Y-101558822D01*
X80283454Y-101594224D01*
X80283006Y-101594463D01*
X80186315Y-101673815D01*
X80106963Y-101770506D01*
X80047998Y-101880820D01*
X80011688Y-102000518D01*
X79999428Y-102125000D01*
X80002500Y-102539250D01*
X80161250Y-102698000D01*
X80998000Y-102698000D01*
X80998000Y-102678000D01*
X81252000Y-102678000D01*
X81252000Y-102698000D01*
X81272000Y-102698000D01*
X81272000Y-102952000D01*
X81252000Y-102952000D01*
X81252000Y-104001250D01*
X81410750Y-104160000D01*
X81612500Y-104163072D01*
X81736982Y-104150812D01*
X81856680Y-104114502D01*
X81966994Y-104055537D01*
X82063685Y-103976185D01*
X82127492Y-103898436D01*
X82132708Y-103904792D01*
X82266336Y-104014458D01*
X82418791Y-104095947D01*
X82584215Y-104146128D01*
X82756250Y-104163072D01*
X83243750Y-104163072D01*
X83415785Y-104146128D01*
X83581209Y-104095947D01*
X83733664Y-104014458D01*
X83867292Y-103904792D01*
X83976958Y-103771164D01*
X84058447Y-103618709D01*
X84108628Y-103453285D01*
X84125572Y-103281250D01*
X84125572Y-102368750D01*
X84108628Y-102196715D01*
X84058447Y-102031291D01*
X83976958Y-101878836D01*
X83867292Y-101745208D01*
X83736600Y-101637952D01*
X83736600Y-101186186D01*
X83740164Y-101150000D01*
X83725942Y-101005601D01*
X83705126Y-100936982D01*
X83683822Y-100866751D01*
X83615424Y-100738787D01*
X83523375Y-100626625D01*
X83495263Y-100603554D01*
X83271446Y-100379737D01*
X83248375Y-100351625D01*
X83136213Y-100259576D01*
X83008249Y-100191178D01*
X82869399Y-100149058D01*
X82761186Y-100138400D01*
X82761183Y-100138400D01*
X82725000Y-100134836D01*
X82688817Y-100138400D01*
X81141614Y-100138400D01*
X81188502Y-100050680D01*
X81224812Y-99930982D01*
X81237072Y-99806500D01*
X81237072Y-98306500D01*
X81233038Y-98265538D01*
X81274000Y-98269572D01*
X82774000Y-98269572D01*
X82898482Y-98257312D01*
X83018180Y-98221002D01*
X83128494Y-98162037D01*
X83212494Y-98093100D01*
X84801391Y-98093100D01*
X84866645Y-98158355D01*
X84861928Y-98206250D01*
X84861928Y-98693750D01*
X84878872Y-98865785D01*
X84929053Y-99031209D01*
X85010542Y-99183664D01*
X85120208Y-99317292D01*
X85126564Y-99322508D01*
X85048815Y-99386315D01*
X84969463Y-99483006D01*
X84910498Y-99593320D01*
X84874188Y-99713018D01*
X84861928Y-99837500D01*
X84865000Y-100039250D01*
X85023750Y-100198000D01*
X85979000Y-100198000D01*
X85979000Y-100452000D01*
X85023750Y-100452000D01*
X84865000Y-100610750D01*
X84861928Y-100812500D01*
X84874188Y-100936982D01*
X84910498Y-101056680D01*
X84969463Y-101166994D01*
X85048815Y-101263685D01*
X85145506Y-101343037D01*
X85255820Y-101402002D01*
X85375518Y-101438312D01*
X85500000Y-101450572D01*
X85914250Y-101447500D01*
X85979000Y-101382750D01*
X85979000Y-109347000D01*
X43307000Y-109347000D01*
X43307000Y-103625000D01*
X48861928Y-103625000D01*
X48874188Y-103749482D01*
X48910498Y-103869180D01*
X48969463Y-103979494D01*
X49048815Y-104076185D01*
X49145506Y-104155537D01*
X49255820Y-104214502D01*
X49375518Y-104250812D01*
X49500000Y-104263072D01*
X50114250Y-104260000D01*
X50273000Y-104101250D01*
X50273000Y-103202000D01*
X50527000Y-103202000D01*
X50527000Y-104101250D01*
X50685750Y-104260000D01*
X51300000Y-104263072D01*
X51424482Y-104250812D01*
X51544180Y-104214502D01*
X51654494Y-104155537D01*
X51751185Y-104076185D01*
X51830537Y-103979494D01*
X51889502Y-103869180D01*
X51925812Y-103749482D01*
X51938072Y-103625000D01*
X51935000Y-103360750D01*
X51776250Y-103202000D01*
X50527000Y-103202000D01*
X50273000Y-103202000D01*
X49023750Y-103202000D01*
X48865000Y-103360750D01*
X48861928Y-103625000D01*
X43307000Y-103625000D01*
X43307000Y-102525000D01*
X48861928Y-102525000D01*
X48865000Y-102789250D01*
X49023750Y-102948000D01*
X50273000Y-102948000D01*
X50273000Y-102048750D01*
X50527000Y-102048750D01*
X50527000Y-102948000D01*
X51776250Y-102948000D01*
X51935000Y-102789250D01*
X51938072Y-102525000D01*
X55061928Y-102525000D01*
X55061928Y-103625000D01*
X55074188Y-103749482D01*
X55110498Y-103869180D01*
X55169463Y-103979494D01*
X55248815Y-104076185D01*
X55345506Y-104155537D01*
X55455820Y-104214502D01*
X55575518Y-104250812D01*
X55700000Y-104263072D01*
X57500000Y-104263072D01*
X57624482Y-104250812D01*
X57744180Y-104214502D01*
X57854494Y-104155537D01*
X57951185Y-104076185D01*
X58030537Y-103979494D01*
X58089502Y-103869180D01*
X58125812Y-103749482D01*
X58138072Y-103625000D01*
X58138072Y-103525000D01*
X79999428Y-103525000D01*
X80011688Y-103649482D01*
X80047998Y-103769180D01*
X80106963Y-103879494D01*
X80186315Y-103976185D01*
X80283006Y-104055537D01*
X80393320Y-104114502D01*
X80513018Y-104150812D01*
X80637500Y-104163072D01*
X80839250Y-104160000D01*
X80998000Y-104001250D01*
X80998000Y-102952000D01*
X80161250Y-102952000D01*
X80002500Y-103110750D01*
X79999428Y-103525000D01*
X58138072Y-103525000D01*
X58138072Y-102525000D01*
X58125812Y-102400518D01*
X58089502Y-102280820D01*
X58030537Y-102170506D01*
X57951185Y-102073815D01*
X57854494Y-101994463D01*
X57744180Y-101935498D01*
X57624482Y-101899188D01*
X57500000Y-101886928D01*
X55700000Y-101886928D01*
X55575518Y-101899188D01*
X55455820Y-101935498D01*
X55345506Y-101994463D01*
X55248815Y-102073815D01*
X55169463Y-102170506D01*
X55110498Y-102280820D01*
X55074188Y-102400518D01*
X55061928Y-102525000D01*
X51938072Y-102525000D01*
X51925812Y-102400518D01*
X51889502Y-102280820D01*
X51830537Y-102170506D01*
X51751185Y-102073815D01*
X51654494Y-101994463D01*
X51544180Y-101935498D01*
X51424482Y-101899188D01*
X51300000Y-101886928D01*
X50685750Y-101890000D01*
X50527000Y-102048750D01*
X50273000Y-102048750D01*
X50114250Y-101890000D01*
X49500000Y-101886928D01*
X49375518Y-101899188D01*
X49255820Y-101935498D01*
X49145506Y-101994463D01*
X49048815Y-102073815D01*
X48969463Y-102170506D01*
X48910498Y-102280820D01*
X48874188Y-102400518D01*
X48861928Y-102525000D01*
X43307000Y-102525000D01*
X43307000Y-101062500D01*
X63686928Y-101062500D01*
X63699188Y-101186982D01*
X63735498Y-101306680D01*
X63794463Y-101416994D01*
X63873815Y-101513685D01*
X63970506Y-101593037D01*
X64080820Y-101652002D01*
X64200518Y-101688312D01*
X64325000Y-101700572D01*
X64739250Y-101697500D01*
X64898000Y-101538750D01*
X64898000Y-100702000D01*
X65152000Y-100702000D01*
X65152000Y-101538750D01*
X65310750Y-101697500D01*
X65725000Y-101700572D01*
X65849482Y-101688312D01*
X65969180Y-101652002D01*
X66079494Y-101593037D01*
X66176185Y-101513685D01*
X66255537Y-101416994D01*
X66314502Y-101306680D01*
X66350812Y-101186982D01*
X66363072Y-101062500D01*
X66360000Y-100860750D01*
X66201250Y-100702000D01*
X65152000Y-100702000D01*
X64898000Y-100702000D01*
X63848750Y-100702000D01*
X63690000Y-100860750D01*
X63686928Y-101062500D01*
X43307000Y-101062500D01*
X43307000Y-98825000D01*
X48861928Y-98825000D01*
X48861928Y-99925000D01*
X48874188Y-100049482D01*
X48910498Y-100169180D01*
X48969463Y-100279494D01*
X49048815Y-100376185D01*
X49145506Y-100455537D01*
X49255820Y-100514502D01*
X49375518Y-100550812D01*
X49500000Y-100563072D01*
X51300000Y-100563072D01*
X51424482Y-100550812D01*
X51544180Y-100514502D01*
X51654494Y-100455537D01*
X51751185Y-100376185D01*
X51830537Y-100279494D01*
X51889502Y-100169180D01*
X51925812Y-100049482D01*
X51938072Y-99925000D01*
X51938072Y-98825000D01*
X51925812Y-98700518D01*
X51889502Y-98580820D01*
X51830537Y-98470506D01*
X51751185Y-98373815D01*
X51654494Y-98294463D01*
X51544180Y-98235498D01*
X51424482Y-98199188D01*
X51300000Y-98186928D01*
X49500000Y-98186928D01*
X49375518Y-98199188D01*
X49255820Y-98235498D01*
X49145506Y-98294463D01*
X49048815Y-98373815D01*
X48969463Y-98470506D01*
X48910498Y-98580820D01*
X48874188Y-98700518D01*
X48861928Y-98825000D01*
X43307000Y-98825000D01*
X43307000Y-73533754D01*
X48876407Y-73566709D01*
G36*
X81252002Y-101648748D02*
G01*
X81252002Y-101611600D01*
X81289150Y-101611600D01*
X81252002Y-101648748D01*
X81252002Y-101648748D01*
G37*
X81252002Y-101648748D02*
X81252002Y-101611600D01*
X81289150Y-101611600D01*
X81252002Y-101648748D01*
G36*
X80997998Y-101648748D02*
G01*
X80960850Y-101611600D01*
X80997998Y-101611600D01*
X80997998Y-101648748D01*
X80997998Y-101648748D01*
G37*
X80997998Y-101648748D02*
X80960850Y-101611600D01*
X80997998Y-101611600D01*
X80997998Y-101648748D01*
G36*
X76087506Y-81394537D02*
G01*
X76197820Y-81453502D01*
X76317518Y-81489812D01*
X76413400Y-81499255D01*
X76413401Y-84094890D01*
X76260600Y-84247691D01*
X76260600Y-82725057D01*
X76264163Y-82688881D01*
X76260600Y-82652705D01*
X76260600Y-82652696D01*
X76249942Y-82544483D01*
X76207822Y-82405633D01*
X76139424Y-82277669D01*
X76103762Y-82234215D01*
X76070442Y-82193614D01*
X76070437Y-82193609D01*
X76047374Y-82165507D01*
X76019273Y-82142445D01*
X75376934Y-81500106D01*
X75642000Y-81502072D01*
X75766482Y-81489812D01*
X75886180Y-81453502D01*
X75996494Y-81394537D01*
X76042000Y-81357191D01*
X76087506Y-81394537D01*
X76087506Y-81394537D01*
G37*
X76087506Y-81394537D02*
X76197820Y-81453502D01*
X76317518Y-81489812D01*
X76413400Y-81499255D01*
X76413401Y-84094890D01*
X76260600Y-84247691D01*
X76260600Y-82725057D01*
X76264163Y-82688881D01*
X76260600Y-82652705D01*
X76260600Y-82652696D01*
X76249942Y-82544483D01*
X76207822Y-82405633D01*
X76139424Y-82277669D01*
X76103762Y-82234215D01*
X76070442Y-82193614D01*
X76070437Y-82193609D01*
X76047374Y-82165507D01*
X76019273Y-82142445D01*
X75376934Y-81500106D01*
X75642000Y-81502072D01*
X75766482Y-81489812D01*
X75886180Y-81453502D01*
X75996494Y-81394537D01*
X76042000Y-81357191D01*
X76087506Y-81394537D01*
G36*
X64220208Y-81654792D02*
G01*
X64226564Y-81660008D01*
X64148815Y-81723815D01*
X64069463Y-81820506D01*
X64010498Y-81930820D01*
X63974188Y-82050518D01*
X63961928Y-82175000D01*
X63965000Y-82376750D01*
X64123750Y-82535500D01*
X65173000Y-82535500D01*
X65173000Y-82515500D01*
X65427000Y-82515500D01*
X65427000Y-82535500D01*
X65447000Y-82535500D01*
X65447000Y-82789500D01*
X65427000Y-82789500D01*
X65427000Y-82809500D01*
X65173000Y-82809500D01*
X65173000Y-82789500D01*
X64123750Y-82789500D01*
X63965000Y-82948250D01*
X63961928Y-83150000D01*
X63974188Y-83274482D01*
X64010498Y-83394180D01*
X64069463Y-83504494D01*
X64076772Y-83513400D01*
X63317610Y-83513400D01*
X63188744Y-83384534D01*
X63189458Y-83383664D01*
X63270947Y-83231209D01*
X63321128Y-83065785D01*
X63338072Y-82893750D01*
X63338072Y-82406250D01*
X63321128Y-82234215D01*
X63270947Y-82068791D01*
X63189458Y-81916336D01*
X63079792Y-81782708D01*
X62994244Y-81712500D01*
X63079792Y-81642292D01*
X63176790Y-81524100D01*
X64112952Y-81524100D01*
X64220208Y-81654792D01*
X64220208Y-81654792D01*
G37*
X64220208Y-81654792D02*
X64226564Y-81660008D01*
X64148815Y-81723815D01*
X64069463Y-81820506D01*
X64010498Y-81930820D01*
X63974188Y-82050518D01*
X63961928Y-82175000D01*
X63965000Y-82376750D01*
X64123750Y-82535500D01*
X65173000Y-82535500D01*
X65173000Y-82515500D01*
X65427000Y-82515500D01*
X65427000Y-82535500D01*
X65447000Y-82535500D01*
X65447000Y-82789500D01*
X65427000Y-82789500D01*
X65427000Y-82809500D01*
X65173000Y-82809500D01*
X65173000Y-82789500D01*
X64123750Y-82789500D01*
X63965000Y-82948250D01*
X63961928Y-83150000D01*
X63974188Y-83274482D01*
X64010498Y-83394180D01*
X64069463Y-83504494D01*
X64076772Y-83513400D01*
X63317610Y-83513400D01*
X63188744Y-83384534D01*
X63189458Y-83383664D01*
X63270947Y-83231209D01*
X63321128Y-83065785D01*
X63338072Y-82893750D01*
X63338072Y-82406250D01*
X63321128Y-82234215D01*
X63270947Y-82068791D01*
X63189458Y-81916336D01*
X63079792Y-81782708D01*
X62994244Y-81712500D01*
X63079792Y-81642292D01*
X63176790Y-81524100D01*
X64112952Y-81524100D01*
X64220208Y-81654792D01*
G36*
X75069000Y-80137000D02*
G01*
X75089000Y-80137000D01*
X75089000Y-80391000D01*
X75069000Y-80391000D01*
X75069000Y-80411000D01*
X74815000Y-80411000D01*
X74815000Y-80391000D01*
X74795000Y-80391000D01*
X74795000Y-80137000D01*
X74815000Y-80137000D01*
X74815000Y-80117000D01*
X75069000Y-80117000D01*
X75069000Y-80137000D01*
X75069000Y-80137000D01*
G37*
X75069000Y-80137000D02*
X75089000Y-80137000D01*
X75089000Y-80391000D01*
X75069000Y-80391000D01*
X75069000Y-80411000D01*
X74815000Y-80411000D01*
X74815000Y-80391000D01*
X74795000Y-80391000D01*
X74795000Y-80137000D01*
X74815000Y-80137000D01*
X74815000Y-80117000D01*
X75069000Y-80117000D01*
X75069000Y-80137000D01*
M02*
