M48
; DRILL file {KiCad (5.1.2)-1} date 27/05/2019 11:12:55 AM
; FORMAT={-:-/ absolute / inch / decimal}
; #@! TF.CreationDate,2019-05-27T11:12:55-07:00
; #@! TF.GenerationSoftware,Kicad,Pcbnew,(5.1.2)-1
; #@! TF.FileFunction,Plated,1,2,PTH
FMAT,2
INCH
T1C0.0157
T2C0.0276
T3C0.0409
T4C0.0579
%
G90
G05
T1
X2.3868Y-3.8622
X2.4055Y-3.3907
X2.57Y-3.2893
X2.62Y-3.67
X2.8612Y-3.249
X2.95Y-3.57
X3.0059Y-3.25
X3.13Y-3.58
X3.34Y-3.71
X3.42Y-3.63
X3.49Y-3.14
X3.6Y-3.67
X3.6Y-3.78
X4.07Y-3.59
X4.07Y-3.64
X4.07Y-3.78
X4.33Y-3.64
X4.76Y-3.63
T3
X3.7837Y-3.3912
X3.8838Y-3.3912
X3.7837Y-4.1413
X3.8837Y-4.1413
X4.5366Y-4.1445
X4.6366Y-4.1445
X4.5356Y-3.3919
X4.6356Y-3.3919
T4
X3.6837Y-3.0913
X3.7353Y-3.0338
X3.9322Y-3.0141
X3.9337Y-2.9912
X3.6837Y-3.8413
X3.7352Y-3.7838
X3.9321Y-3.7641
X3.9337Y-3.7412
X4.4366Y-3.8445
X4.4882Y-3.787
X4.685Y-3.7673
X4.6866Y-3.7445
X4.4356Y-3.0919
X4.4872Y-3.0344
X4.6841Y-3.0148
X4.6856Y-2.9919
T2
G00X1.9803Y-2.8364
M15
G01X1.9803Y-2.8836
M16
G05
G00X1.9803Y-3.0135
M15
G01X1.9803Y-3.0608
M16
G05
G00X2.2677Y-2.8364
M15
G01X2.2677Y-2.8836
M16
G05
G00X2.2677Y-3.0135
M15
G01X2.2677Y-3.0608
M16
G05
T0
M30
